<?xml version="1.0" standalone="no"?>
<!DOCTYPE svg PUBLIC "-//W3C//DTD SVG 1.1//EN" "http://www.w3.org/Graphics/SVG/1.1/DTD/svg11.dtd" >
<svg xmlns="http://www.w3.org/2000/svg" xmlns:xlink="http://www.w3.org/1999/xlink" version="1.1">
<metadata>
Created by FontForge 20170731 at Mon Sep 12 21:05:38 2022
 By Aleksey,,,
Copyright (c) 2017 by James Puckett. All rights reserved.
</metadata>
<defs>
<font id="AntarcticanHeadline-Semibold" horiz-adv-x="819" >
  <font-face 
    font-family="Antarctican Headline Semibold"
    font-weight="600"
    font-stretch="normal"
    units-per-em="2048"
    panose-1="2 0 7 0 0 0 0 0 0 0"
    ascent="1638"
    descent="-410"
    x-height="1030"
    cap-height="1393"
    bbox="-1044 -457 1810 2144"
    underline-thickness="102"
    underline-position="-307"
    unicode-range="U+0020-FB02"
  />
<missing-glyph horiz-adv-x="1024" 
d="M885 1434v-1434h-746v1434h746zM803 1376h-584l291 -592zM199 1288v-1143l280 572zM825 1288l-282 -571l282 -572v1143zM510 649l-291 -592h584z" />
    <glyph glyph-name="fi" unicode="fi" horiz-adv-x="962" 
d="M383 1030h502v-1030h-226v836h-276v-836h-225v836h-142v194h142v72q0 167 79 239t259 72q49 0 67 -2v-197q-21 3 -51 3q-72 0 -100.5 -26.5t-28.5 -92.5v-68zM659 1370h228v-248h-228v248z" />
    <glyph glyph-name="fl" unicode="fl" horiz-adv-x="964" 
d="M383 1098v-68h180v-194h-180v-836h-225v836h-142v194h142v72q0 167 79 239t259 72q49 0 67 -2v-197q-21 3 -51 3q-72 0 -100.5 -26.5t-28.5 -92.5zM662 1393h225v-1393h-225v1393z" />
    <glyph glyph-name="f_f" unicode="ff" horiz-adv-x="1081" 
d="M383 1098v-68h180v-194h-180v-836h-225v836h-142v194h142v72q0 167 79 239t259 72q49 0 67 -2v-197q-21 3 -51 3q-72 0 -100.5 -26.5t-28.5 -92.5zM885 1098v-68h180v-194h-180v-836h-226v836h-141v194h141v72q0 167 79 239t259 72q50 0 68 -2v-197q-21 3 -51 3
q-72 0 -100.5 -26.5t-28.5 -92.5z" />
    <glyph glyph-name="f_f_i" unicode="ffi" horiz-adv-x="1462" 
d="M1384 1030v-1030h-225v836h-274v-836h-226v836h-276v-836h-225v836h-142v194h142v72q0 167 79 239t259 72q49 0 67 -2v-197q-21 3 -51 3q-72 0 -100.5 -26.5t-28.5 -92.5v-68h276v72q0 167 79 239t259 72q48 0 66 -2v-197q-18 3 -49 3q-72 0 -100.5 -26.5t-28.5 -92.5
v-68h499zM1159 1370h227v-248h-227v248z" />
    <glyph glyph-name="f_f_l" unicode="ffl" horiz-adv-x="1462" 
d="M383 1098v-68h180v-194h-180v-836h-225v836h-142v194h142v72q0 167 79 239t259 72q49 0 67 -2v-197q-21 3 -51 3q-72 0 -100.5 -26.5t-28.5 -92.5zM885 1098v-68h180v-194h-180v-836h-226v836h-141v194h141v72q0 167 79 239t259 72q50 0 68 -2v-197q-21 3 -51 3
q-72 0 -100.5 -26.5t-28.5 -92.5zM1159 1393h225v-1393h-225v1393z" />
    <glyph glyph-name=".notdef" horiz-adv-x="1024" 
d="M885 1434v-1434h-746v1434h746zM803 1376h-584l291 -592zM199 1288v-1143l280 572zM825 1288l-282 -571l282 -572v1143zM510 649l-291 -592h584z" />
    <glyph glyph-name=".null" horiz-adv-x="0" 
 />
    <glyph glyph-name="nonmarkingreturn" horiz-adv-x="682" 
 />
    <glyph glyph-name="space" unicode=" " horiz-adv-x="323" 
 />
    <glyph glyph-name="exclam" unicode="!" horiz-adv-x="401" 
d="M78 1393h252v-4l-35 -912h-182l-35 912v4zM68 303h272v-303h-272v303z" />
    <glyph glyph-name="quotedbl" unicode="&#x22;" horiz-adv-x="663" 
d="M74 1393h196v-512h-196v512zM395 1393h197v-512h-197v512z" />
    <glyph glyph-name="numbersign" unicode="#" horiz-adv-x="907" 
d="M889 842h-152l-24 -283h139v-174h-156l-32 -385h-191l33 385h-160l-33 -385h-190l33 385h-138v174h154l25 283h-138v176h152l33 375h190l-33 -375h160l33 375h190l-32 -375h137v-176zM522 559l25 283h-160l-25 -283h160z" />
    <glyph glyph-name="dollar" unicode="$" horiz-adv-x="784" 
d="M436 33l-16 -195h-197l19 213q-100 32 -148.5 119.5t-48.5 239.5v57h229v-74q0 -93 29 -131.5t96 -38.5q63 0 88 34.5t25 119.5q0 68 -14 100q-16 37 -49 60q-28 22 -125 84q-55 34 -86.5 55t-66.5 50t-52.5 54.5t-34.5 62t-24 79.5t-9 100q0 165 76.5 250t234.5 92
l17 190h196l-18 -219q178 -76 178 -352v-45h-229v57q0 97 -27.5 136.5t-91.5 39.5q-61 0 -87 -30t-26 -101q3 -35 5 -55t11.5 -41.5t15 -30.5t30.5 -28.5t41.5 -29.5t63.5 -38q6 -4 10.5 -6.5t9.5 -5.5q61 -36 96 -59t70 -52t52 -54t32 -62t20.5 -79t7.5 -102
q0 -181 -73.5 -267t-229.5 -97z" />
    <glyph glyph-name="percent" unicode="%" horiz-adv-x="1206" 
d="M45 950v217q0 248 221 248h17q221 0 221 -248v-217q0 -243 -217 -243h-25q-217 0 -217 243zM295 0l256 721l219 672h145l-258 -721l-219 -672h-143zM332 938v246q0 47 -13.5 66.5t-44.5 19.5q-30 0 -42.5 -19.5t-12.5 -66.5v-246q0 -49 12.5 -68.5t42.5 -19.5
q31 0 44.5 20.5t13.5 67.5zM705 225v217q0 248 219 248h16q221 0 221 -248v-217q0 -243 -217 -243h-24q-215 0 -215 243zM989 213v248q0 47 -12.5 66.5t-42.5 19.5q-31 0 -44 -19.5t-13 -66.5v-248q0 -47 13 -66.5t44 -19.5q30 0 42.5 19.5t12.5 66.5z" />
    <glyph glyph-name="ampersand" unicode="&#x26;" horiz-adv-x="888" 
d="M889 0h-230l-20 41q-97 -66 -223 -66h-17q-177 0 -265.5 95t-88.5 272v111q0 142 50 231t167 150q-42 92 -59 161t-17 144q0 139 68 209.5t197 70.5h8q128 0 190 -68t62 -210v-62h-191v66q0 49 -15 69.5t-50 20.5q-37 0 -51.5 -21.5t-14.5 -72.5q0 -66 17 -127.5
t65 -157.5l178 -367q4 98 4 125v160h191v-164q0 -232 -64 -387zM561 207l-221 459q-35 -32 -46 -69t-11 -114v-135q0 -89 38.5 -131.5t124.5 -42.5q76 0 115 33z" />
    <glyph glyph-name="quotesingle" unicode="'" horiz-adv-x="342" 
d="M74 1393h196v-512h-196v512z" />
    <glyph glyph-name="parenleft" unicode="(" horiz-adv-x="446" 
d="M301 653q0 -402 100 -755h-225q-50 168 -72 347t-22 408q0 437 94 740h225q-100 -340 -100 -740z" />
    <glyph glyph-name="parenright" unicode=")" horiz-adv-x="446" 
d="M145 653q0 400 -100 740h225q95 -306 95 -740q0 -438 -95 -755h-225q100 353 100 755z" />
    <glyph glyph-name="asterisk" unicode="*" horiz-adv-x="624" 
d="M199 805l-125 90l125 160l-195 57l47 148l191 -70l-6 203h153l-6 -203l190 70l48 -148l-195 -57l125 -160l-125 -90l-113 168z" />
    <glyph glyph-name="plus" unicode="+" horiz-adv-x="761" 
d="M283 387v215h-217v197h217v215h196v-215h217v-197h-217v-215h-196z" />
    <glyph glyph-name="comma" unicode="," horiz-adv-x="415" 
d="M68 -301v139h14q80 0 102.5 25t22.5 102v35h-135v303h272v-328q0 -145 -66.5 -210.5t-209.5 -65.5z" />
    <glyph glyph-name="hyphen" unicode="-" horiz-adv-x="673" 
d="M72 461v223h530v-223h-530z" />
    <glyph glyph-name="period" unicode="." horiz-adv-x="415" 
d="M72 303h272v-303h-272v303z" />
    <glyph glyph-name="slash" unicode="/" horiz-adv-x="581" 
d="M186 -113h-196l405 1598h197z" />
    <glyph glyph-name="zero" unicode="0" horiz-adv-x="905" 
d="M76 399v594q0 428 368 428h17q368 0 368 -428v-594q0 -217 -88 -322.5t-276 -105.5h-25q-185 0 -274.5 106t-89.5 322zM592 379v643q0 104 -32.5 149.5t-106.5 45.5t-107 -45.5t-33 -149.5v-643q0 -104 33.5 -151.5t106.5 -47.5t106 47t33 152z" />
    <glyph glyph-name="one" unicode="1" horiz-adv-x="651" 
d="M461 225h178v-225h-592v225h176v928l-176 -51v233l225 58h189v-1168z" />
    <glyph glyph-name="two" unicode="2" horiz-adv-x="813" 
d="M41 0v184q205 261 307 408q90 126 131 229q37 98 37 215q0 99 -28 140t-95 41t-97 -41.5t-30 -135.5v-90h-221v68q0 204 85.5 303.5t268.5 99.5h15q342 0 342 -377q0 -150 -51 -278q-49 -129 -132 -246q-69 -102 -225 -295v-6h414l-2 -219h-719z" />
    <glyph glyph-name="three" unicode="3" horiz-adv-x="827" 
d="M39 377v78h237v-88q0 -97 32 -142t104 -45q69 0 101 45t32 142v51q0 92 -34.5 135t-111.5 43h-135v219h135q133 0 133 154v84q0 85 -29.5 124.5t-92.5 39.5q-66 0 -95.5 -39.5t-29.5 -124.5v-103h-222v54q0 213 85.5 315t259.5 102h12q170 0 257 -97t87 -284v-36
q0 -117 -45 -191.5t-131 -97.5v-8q92 -19 144 -101t52 -211v-30q0 -196 -91.5 -295t-270.5 -99h-25q-358 0 -358 406z" />
    <glyph glyph-name="four" unicode="4" horiz-adv-x="854" 
d="M815 510v-217h-129v-293h-235v293h-422v190l348 910h309v-883h129zM236 508h215v559z" />
    <glyph glyph-name="five" unicode="5" horiz-adv-x="858" 
d="M72 389v66h237v-88q0 -97 32 -142t101 -45q67 0 98 45t31 142v153q0 110 -30.5 157.5t-102.5 47.5q-108 0 -129 -104h-237v772h704v-224h-469v-381h4q43 150 226 150q137 0 204.5 -93t67.5 -288v-168q0 -211 -87 -314.5t-269 -103.5h-25q-182 0 -269 103.5t-87 314.5z
" />
    <glyph glyph-name="six" unicode="6" horiz-adv-x="882" 
d="M76 399v594q0 216 90 322t274 106h17q174 0 259 -100.5t85 -310.5v-29h-221v47q0 102 -31 145.5t-103 43.5t-102.5 -45t-30.5 -150v-383h4q21 246 248 246q133 0 197.5 -89t64.5 -272v-162q0 -192 -91.5 -291.5t-274.5 -99.5h-25q-184 0 -272 106t-88 322zM590 377v110
q0 99 -30 142t-101 43q-146 0 -146 -197v-98q0 -104 33 -150.5t105 -46.5t105.5 46.5t33.5 150.5z" />
    <glyph glyph-name="seven" unicode="7" horiz-adv-x="747" 
d="M16 1393h699v-193l-289 -1200h-256l313 1169h-467v224z" />
    <glyph glyph-name="eight" unicode="8" horiz-adv-x="829" 
d="M41 340v51q2 117 54 199t143 108v9q-177 63 -177 309v41q0 176 90.5 270t258.5 94h12q170 0 258 -92.5t88 -271.5v-41q0 -244 -176 -307v-11q93 -25 146 -107t53 -200v-51q0 -179 -92.5 -274t-270.5 -95h-25q-178 0 -270 95t-92 274zM541 969v94q0 154 -125 154
q-127 0 -127 -154v-94q0 -156 127 -156q62 0 93.5 41t31.5 115zM553 344v90q0 164 -137 164t-137 -164v-90q0 -83 33 -123.5t104 -40.5t104 40.5t33 123.5z" />
    <glyph glyph-name="nine" unicode="9" horiz-adv-x="894" 
d="M70 391v25h237v-41q0 -103 32.5 -149t104.5 -46t105 47.5t33 151.5v381h-4q-18 -244 -246 -244q-134 0 -199 87.5t-65 270.5v160q0 387 366 387h25q184 0 272 -105.5t88 -322.5v-594q0 -216 -88.5 -322t-273.5 -106h-25q-183 0 -272.5 105t-89.5 315zM582 918v100
q0 105 -33 152t-105 47t-105.5 -47.5t-33.5 -151.5v-113q0 -93 31 -134.5t102 -41.5q74 0 109 46t35 143z" />
    <glyph glyph-name="colon" unicode=":" horiz-adv-x="419" 
d="M74 963h272v-304h-272v304zM74 303h272v-303h-272v303z" />
    <glyph glyph-name="semicolon" unicode=";" horiz-adv-x="419" 
d="M74 659v304h272v-304h-272zM70 -301v139h14q80 0 102.5 25t22.5 102v35h-135v303h272v-328q0 -145 -66.5 -210.5t-209.5 -65.5z" />
    <glyph glyph-name="less" unicode="&#x3c;" horiz-adv-x="741" 
d="M666 1126v-223l-367 -203l367 -202v-224l-623 359v135z" />
    <glyph glyph-name="equal" unicode="=" horiz-adv-x="761" 
d="M66 772v199h630v-199h-630zM66 430v199h630v-199h-630z" />
    <glyph glyph-name="greater" unicode="&#x3e;" horiz-adv-x="741" 
d="M76 903v223l622 -358v-135l-622 -359v224l366 202z" />
    <glyph glyph-name="question" unicode="?" horiz-adv-x="796" 
d="M270 395v385h129q63 0 92 37t29 121v82q0 105 -29.5 151t-97.5 46q-66 0 -95.5 -40.5t-29.5 -132.5v-69h-223v33q0 413 346 413h17q175 0 262.5 -102.5t87.5 -317.5v-53q0 -158 -66 -243.5t-180 -96.5v-213h-242zM262 0v293h260v-293h-260z" />
    <glyph glyph-name="at" unicode="@" horiz-adv-x="1259" 
d="M74 299v432q0 264 139.5 398.5t409.5 134.5h16q269 0 408 -135t139 -398v-379q0 -235 -228 -235h-12q-216 0 -237 188h-2q-18 -188 -168 -188q-86 0 -126 46.5t-40 149.5v361q0 108 40 157.5t126 49.5q67 0 104 -40t49 -130h2l-2 120v31h195v-545q0 -36 20.5 -57.5
t55.5 -21.5h8q33 0 54.5 22t21.5 57v433q0 385 -404 385h-27q-403 0 -403 -385v-465q0 -383 399 -383h37q184 0 293 80l72 -115q-143 -96 -367 -96h-33q-266 0 -403 133t-137 395zM694 381v233q0 63 -16 93t-51 30q-33 0 -48.5 -21.5t-15.5 -74.5v-287q0 -53 15.5 -74.5
t48.5 -21.5q36 0 51.5 28t15.5 95z" />
    <glyph glyph-name="A" unicode="A" horiz-adv-x="821" 
d="M584 0l-47 305h-267l-47 -305h-223l242 1397h340l239 -1397h-237zM408 1223h-11l-98 -707h211z" />
    <glyph glyph-name="B" unicode="B" horiz-adv-x="880" 
d="M94 0v1393h312q405 0 405 -367q-1 -138 -52 -210t-157 -97v-8q120 -23 173.5 -103t53.5 -225q0 -196 -97 -289.5t-298 -93.5h-340zM328 811h78q174 0 174 184q0 97 -42.5 140t-140.5 43h-69v-367zM328 217h84q99 0 139.5 44.5t40.5 152.5q0 105 -42.5 148.5t-146.5 43.5
h-75v-389z" />
    <glyph glyph-name="C" unicode="C" horiz-adv-x="847" 
d="M76 399v594q0 428 362 428h17q344 0 344 -428v-104h-224v133q0 104 -30.5 149.5t-98.5 45.5q-69 0 -100 -45.5t-31 -149.5v-643q0 -104 31 -151.5t100 -47.5q68 0 98.5 47.5t30.5 151.5v119h224v-99q0 -216 -83.5 -322t-256.5 -106h-25q-183 0 -270.5 105.5t-87.5 322.5z
" />
    <glyph glyph-name="D" unicode="D" horiz-adv-x="915" 
d="M94 0v1393h332q227 0 324.5 -108t97.5 -359v-461q0 -247 -96.5 -356t-315.5 -109h-342zM332 223h90q106 0 147 47.5t41 171.5v504q0 129 -41 178.5t-147 49.5h-90v-951z" />
    <glyph glyph-name="E" unicode="E" horiz-adv-x="798" 
d="M94 0v1393h651v-222h-421v-352h366v-221h-366v-375h421v-223h-651z" />
    <glyph glyph-name="F" unicode="F" horiz-adv-x="782" 
d="M741 1393v-224h-413v-354h368v-219h-368v-596h-234v1393h647z" />
    <glyph glyph-name="G" unicode="G" horiz-adv-x="856" 
d="M76 399v594q0 428 362 428h17q344 0 344 -428v-104h-224v133q0 104 -30.5 149.5t-98.5 45.5q-69 0 -100 -45.5t-31 -149.5v-643q0 -104 31 -151.5t100 -47.5q68 0 98.5 47.5t30.5 151.5v129h-139v203h363v-312q0 -216 -83.5 -322t-256.5 -106h-25q-183 0 -270.5 105.5
t-87.5 322.5z" />
    <glyph glyph-name="H" unicode="H" horiz-adv-x="940" 
d="M610 1393h238v-1393h-238v590h-278v-590h-238v1393h238v-580h278v580z" />
    <glyph glyph-name="I" unicode="I" horiz-adv-x="423" 
d="M332 1393v-1393h-238v1393h238z" />
    <glyph glyph-name="J" unicode="J" horiz-adv-x="526" 
d="M432 1393v-1080q0 -169 -73.5 -244t-235.5 -75q-65 0 -109 8v223q49 -6 76 -6q57 0 81 24.5t24 86.5v1063h237z" />
    <glyph glyph-name="K" unicode="K" horiz-adv-x="874" 
d="M549 739l325 -739h-260l-280 639v-639h-240v1393h240v-592h2l278 592h248z" />
    <glyph glyph-name="L" unicode="L" horiz-adv-x="749" 
d="M332 1393v-1168h409v-225h-647v1393h238z" />
    <glyph glyph-name="M" unicode="M" horiz-adv-x="1288" 
d="M94 0v1393h387l162 -1004h4l162 1004h387v-1393h-235v1202h-5l-194 -1202h-250l-195 1202h-4l2 -1202h-221z" />
    <glyph glyph-name="N" unicode="N" horiz-adv-x="940" 
d="M94 0v1393h240l297 -861h6v861h211v-1393h-240l-297 862h-6v-862h-211z" />
    <glyph glyph-name="O" unicode="O" horiz-adv-x="905" 
d="M76 399v594q0 428 368 428h17q368 0 368 -428v-594q0 -217 -88 -322.5t-276 -105.5h-25q-185 0 -274.5 106t-89.5 322zM592 379v643q0 104 -32.5 149.5t-106.5 45.5t-107 -45.5t-33 -149.5v-643q0 -104 33.5 -151.5t106.5 -47.5t106 47t33 152z" />
    <glyph glyph-name="P" unicode="P" horiz-adv-x="854" 
d="M94 0v1393h332q215 0 311.5 -104t96.5 -333q0 -232 -100 -337t-322 -105h-80v-514h-238zM332 725h78q100 0 141 51.5t41 175.5q0 123 -41 172.5t-141 49.5h-78v-449z" />
    <glyph glyph-name="Q" unicode="Q" horiz-adv-x="905" 
d="M836 -246h-258l-107 217h-6h-25q-185 0 -274.5 106t-89.5 322v594q0 428 368 428h17q368 0 368 -428v-594q0 -271 -141 -370zM453 180q73 0 106 47t33 152v643q0 104 -32.5 149.5t-106.5 45.5t-107 -45.5t-33 -149.5v-643q0 -104 33.5 -151.5t106.5 -47.5z" />
    <glyph glyph-name="R" unicode="R" horiz-adv-x="882" 
d="M840 0h-244l-147 553h-119v-553h-236v1393h330q212 0 309.5 -101t97.5 -313q3 -272 -157 -377zM330 768h84q98 0 137 45t39 158q0 115 -39 160t-137 45h-84v-408z" />
    <glyph glyph-name="S" unicode="S" horiz-adv-x="806" 
d="M43 385v64h238v-84q0 -107 29.5 -149t99.5 -42q72 0 96 35.5t24 136.5q-6 94 -18 121q-16 35 -75 78q-21 15 -105 71q-71 45 -109.5 73t-76.5 65.5t-56 76.5t-29.5 92.5t-13.5 127.5q0 370 350 370h17q348 0 348 -413v-52h-238v68q0 111 -28.5 155t-98.5 44
q-64 0 -92.5 -35.5t-28.5 -116.5q3 -36 6 -58t13.5 -45.5t20 -36.5t36.5 -35t50 -38t73 -49q112 -67 172 -121q59 -49 88 -124.5t29 -196.5q0 -206 -82.5 -301t-265.5 -95h-25q-182 0 -265 100.5t-83 313.5z" />
    <glyph glyph-name="T" unicode="T" horiz-adv-x="759" 
d="M262 0v1169h-246v224h727v-224h-243v-1169h-238z" />
    <glyph glyph-name="U" unicode="U" horiz-adv-x="903" 
d="M82 399v994h237v-1016q0 -104 34 -151.5t108 -47.5q73 0 105 47t32 152v1016h223v-996q0 -217 -85 -321.5t-267 -104.5h-25q-185 0 -273.5 106t-88.5 322z" />
    <glyph glyph-name="V" unicode="V" horiz-adv-x="794" 
d="M217 -4l-217 1397h240l161 -1153h11l157 1153h226l-213 -1397h-365z" />
    <glyph glyph-name="W" unicode="W" horiz-adv-x="1218" 
d="M186 0l-178 1393h240l117 -1082h2l131 1082h239l129 -1082h4l123 1082h219l-178 -1393h-315l-111 981h-4l-112 -981h-306z" />
    <glyph glyph-name="X" unicode="X" horiz-adv-x="815" 
d="M16 0l228 686l-226 707h246l139 -494h9l153 494h232l-232 -676l232 -717h-248l-143 500h-9l-149 -500h-232z" />
    <glyph glyph-name="Y" unicode="Y" horiz-adv-x="823" 
d="M823 1393l-291 -875v-518h-239v510l-293 883h250l164 -584h8l168 584h233z" />
    <glyph glyph-name="Z" unicode="Z" horiz-adv-x="825" 
d="M51 0v193l447 978v7h-443v215h715v-189l-446 -977v-6h450v-221h-723z" />
    <glyph glyph-name="bracketleft" unicode="[" horiz-adv-x="512" 
d="M477 -129v-178h-385v1792h385v-178h-172v-1436h172z" />
    <glyph glyph-name="backslash" unicode="\" horiz-adv-x="581" 
d="M592 -113h-197l-405 1598h196z" />
    <glyph glyph-name="bracketright" unicode="]" horiz-adv-x="512" 
d="M35 -307v178h172v1436h-172v178h385v-1792h-385z" />
    <glyph glyph-name="asciicircum" unicode="^" horiz-adv-x="690" 
d="M662 993h-197l-119 203l-121 -203h-196l213 400h207z" />
    <glyph glyph-name="underscore" unicode="_" horiz-adv-x="1024" 
d="M0 -174v174h1024v-174h-1024z" />
    <glyph glyph-name="grave" unicode="`" horiz-adv-x="1024" 
d="M602 1157h-180l-176 283h246z" />
    <glyph glyph-name="a" unicode="a" 
d="M41 262q0 185 89 267.5t296 82.5h90v113q0 79 -24 112t-84 33q-62 0 -88.5 -32.5t-26.5 -110.5v-16h-221q0 178 79.5 263t251.5 85h11q173 0 250 -84t77 -273v-702h-225v35q0 59 6 203h-4q-13 -134 -71.5 -196t-165.5 -62q-117 0 -178.5 70.5t-61.5 211.5zM520 360v99
h-74q-91 0 -133.5 -36t-42.5 -110v-18q0 -117 115 -117q70 0 102.5 43t32.5 139z" />
    <glyph glyph-name="b" unicode="b" horiz-adv-x="835" 
d="M768 246q0 -269 -227 -269q-106 0 -164.5 62.5t-75.5 198.5h-4q6 -144 6 -203v-35h-225v1393h225v-402q0 -92 -2 -123l-2 -67h4q12 133 67.5 194.5t161.5 61.5q236 0 236 -283v-528zM301 360q0 -93 30.5 -136.5t94.5 -43.5q117 0 117 146v383q0 145 -117 145
q-125 0 -125 -180v-314z" />
    <glyph glyph-name="c" unicode="c" horiz-adv-x="757" 
d="M63 344v338q0 379 330 379h10q316 0 316 -379v-47h-211v86q0 77 -26.5 113t-82.5 36q-57 0 -83.5 -35t-26.5 -114v-414q0 -77 27 -111t83 -34t82.5 34t26.5 111v80h211v-43q0 -187 -74.5 -281t-232.5 -94h-25q-168 0 -246 93.5t-78 281.5z" />
    <glyph glyph-name="d" unicode="d" horiz-adv-x="835" 
d="M68 246v528q0 283 235 283q106 0 161.5 -61.5t67.5 -194.5h5l-2 67q-3 46 -3 123v402h226v-1393h-226v35q0 35 7 203h-4q-17 -136 -75.5 -198.5t-164.5 -62.5q-227 0 -227 269zM535 360v314q0 180 -125 180q-117 0 -117 -145v-383q0 -146 117 -146q64 0 94.5 43.5
t30.5 136.5z" />
    <glyph glyph-name="e" unicode="e" horiz-adv-x="817" 
d="M287 444v-139q0 -77 30 -111t93 -34t91.5 33.5t28.5 111.5v29h224v-4q0 -361 -332 -361h-23q-170 0 -253 93t-83 282v334q0 379 343 379h8q340 0 340 -379v-234h-467zM287 721v-109h243v109q0 79 -29 114t-91 35q-63 0 -93 -35.5t-30 -113.5z" />
    <glyph glyph-name="f" unicode="f" horiz-adv-x="581" 
d="M383 1098v-68h180v-194h-180v-836h-225v836h-142v194h142v72q0 167 79 239t259 72q49 0 67 -2v-197q-21 3 -51 3q-72 0 -100.5 -26.5t-28.5 -92.5z" />
    <glyph glyph-name="g" unicode="g" horiz-adv-x="835" 
d="M70 -37h223v-12q0 -59 27 -82t94 -23q65 0 91.5 31.5t26.5 104.5v114q0 35 7 203h-4q-17 -136 -75 -198t-167 -62q-225 0 -225 268v467q0 283 235 283q106 0 161.5 -61.5t67.5 -194.5h5l-2 67q-3 46 -3 123v39h226v-1007q0 -182 -82 -266.5t-256 -84.5h-17
q-175 0 -254 71.5t-79 219.5zM535 422v252q0 180 -125 180q-117 0 -117 -145v-322q0 -145 117 -145q64 0 94.5 43.5t30.5 136.5z" />
    <glyph glyph-name="h" unicode="h" horiz-adv-x="845" 
d="M78 0v1393h225v-414l-2 -148q-2 -10 -2 -49h4q13 141 74 208t174 67q110 0 163.5 -69t53.5 -212v-776h-225v698q0 78 -25.5 115t-79.5 37q-135 0 -135 -180v-670h-225z" />
    <glyph glyph-name="i" unicode="i" horiz-adv-x="380" 
d="M78 1370h227v-248h-227v248zM78 1030h225v-1030h-225v1030z" />
    <glyph glyph-name="j" unicode="j" horiz-adv-x="382" 
d="M82 1370h221v-244h-221v244zM8 -328v191q42 0 56 14.5t14 56.5v1096h225v-1093q0 -147 -65.5 -206t-229.5 -59z" />
    <glyph glyph-name="k" unicode="k" horiz-adv-x="780" 
d="M780 1030l-274 -455l274 -575h-248l-225 494h-4v-494h-225v1393h225v-766h4l232 403h241z" />
    <glyph glyph-name="l" unicode="l" horiz-adv-x="380" 
d="M78 1393h225v-1393h-225v1393z" />
    <glyph glyph-name="m" unicode="m" horiz-adv-x="1290" 
d="M78 0v1030h225v-51l-2 -133l-2 -64h4q26 273 240 273q105 0 155 -64t56 -209h4q13 140 72.5 206.5t166.5 66.5q110 0 162.5 -68.5t52.5 -210.5v-776h-225v698q0 76 -24.5 113t-77.5 37q-62 0 -94.5 -45.5t-32.5 -132.5v-660h-226v688q0 76 -24.5 113t-77.5 37
q-62 0 -94.5 -45.5t-32.5 -132.5v-670h-225z" />
    <glyph glyph-name="n" unicode="n" horiz-adv-x="845" 
d="M78 0v1030h225v-51l-2 -148q-2 -10 -2 -49h4q13 139 74 206t174 67q110 0 163.5 -68.5t53.5 -210.5v-776h-225v698q0 78 -25.5 114t-79.5 36q-135 0 -135 -178v-670h-225z" />
    <glyph glyph-name="o" unicode="o" 
d="M63 346v334q0 379 345 379h8q340 0 340 -379v-334q0 -375 -334 -375h-23q-336 0 -336 375zM530 307v414q0 78 -28 113.5t-90 35.5q-63 0 -93 -35.5t-30 -113.5v-414q0 -77 30 -111t93 -34q62 0 90 33.5t28 111.5z" />
    <glyph glyph-name="p" unicode="p" horiz-adv-x="833" 
d="M303 37v-344h-225v1337h225v-39q0 -92 -2 -123l-2 -67h4q12 133 67.5 194.5t161.5 61.5q234 0 234 -283v-526q0 -271 -225 -271q-106 0 -164.5 62.5t-75.5 198.5h-4q6 -144 6 -201zM301 360q0 -93 30 -136.5t93 -43.5q117 0 117 146v383q0 145 -115 145q-125 0 -125 -180
v-314z" />
    <glyph glyph-name="q" unicode="q" horiz-adv-x="833" 
d="M530 -307v344q0 33 7 201h-5q-17 -136 -75 -198.5t-164 -62.5q-225 0 -225 271v526q0 143 57.5 213t175.5 70q106 0 161.5 -61.5t67.5 -194.5h5l-3 67q-2 31 -2 123v39h226v-1337h-226zM532 360v314q0 92 -30.5 136t-93.5 44q-115 0 -115 -145v-383q0 -146 117 -146
q63 0 92.5 43t29.5 137z" />
    <glyph glyph-name="r" unicode="r" horiz-adv-x="772" 
d="M78 0v1030h225v-45q0 -83 -4 -219h4q18 289 227 289q104 0 153.5 -68t49.5 -211v-192h-225v118q0 77 -21 110.5t-69 33.5q-115 0 -115 -205v-641h-225z" />
    <glyph glyph-name="s" unicode="s" horiz-adv-x="751" 
d="M43 305v27h223v-47q0 -73 25 -102t88 -29q61 0 84.5 25t23.5 87q-5 63 -16 81q-14 23 -78 53q-15 7 -69 32q-80 35 -126.5 61.5t-83 64t-51 85.5t-14.5 117q0 299 320 299h6q170 0 250 -80.5t80 -251.5v-22h-224v36q0 76 -24.5 107t-85.5 31q-57 0 -81 -23.5t-24 -77.5
q0 -65 26.5 -91t133.5 -71q112 -48 162 -81q119 -69 119 -254q0 -156 -78.5 -233t-243.5 -77h-20q-322 0 -322 334z" />
    <glyph glyph-name="t" unicode="t" horiz-adv-x="655" 
d="M608 836h-202v-523q0 -61 29.5 -85.5t99.5 -24.5q55 0 73 2v-209q-23 -2 -88 -2q-186 0 -263 70.5t-77 228.5v543h-153v194h153v262h226v-262h202v-194z" />
    <glyph glyph-name="u" unicode="u" horiz-adv-x="839" 
d="M78 256v774h225v-700q0 -146 103 -146q63 0 97 45t34 131v670h225v-1030h-225v51l2 146q2 10 2 53h-4q-12 -140 -72.5 -206.5t-171.5 -66.5q-215 0 -215 279z" />
    <glyph glyph-name="v" unicode="v" horiz-adv-x="722" 
d="M506 1030h217l-209 -1030h-305l-209 1030h231l127 -786h9z" />
    <glyph glyph-name="w" unicode="w" horiz-adv-x="1120" 
d="M909 1030h211l-159 -1030h-304l-100 705l-102 -705h-293l-162 1030h225l113 -803l117 803h225l117 -803z" />
    <glyph glyph-name="x" unicode="x" horiz-adv-x="765" 
d="M6 0l230 510l-226 520h238l137 -342h4l146 342h223l-223 -498l225 -532h-238l-141 354h-4l-146 -354h-225z" />
    <glyph glyph-name="y" unicode="y" horiz-adv-x="716" 
d="M498 1030h219l-318 -1337h-217l74 291l-256 1046h231l129 -663h7z" />
    <glyph glyph-name="z" unicode="z" horiz-adv-x="718" 
d="M297 193h383v-193h-641v166l379 672h-369v192h629v-162z" />
    <glyph glyph-name="braceleft" unicode="{" horiz-adv-x="618" 
d="M199 700v785h385v-178h-172v-1436h172v-178h-385v796h-176v211h176z" />
    <glyph glyph-name="bar" unicode="|" horiz-adv-x="1024" 
d="M416 1485h194v-1792h-194v1792z" />
    <glyph glyph-name="braceright" unicode="}" horiz-adv-x="618" 
d="M420 1485v-785h176v-211h-176v-796h-385v178h172v1436h-172v178h385z" />
    <glyph glyph-name="asciitilde" unicode="~" horiz-adv-x="786" 
d="M367 616q-22 26 -35 34.5t-35 8.5q-33 0 -49.5 -18.5t-22.5 -62.5h-178q15 280 217 280q57 0 89 -16.5t65 -53.5q33 -45 74 -45q31 0 47 18.5t24 61.5h176q-15 -278 -217 -278q-58 0 -91.5 17.5t-63.5 53.5z" />
    <glyph glyph-name="uni00A0" unicode="&#xa0;" horiz-adv-x="323" 
 />
    <glyph glyph-name="exclamdown" unicode="&#xa1;" horiz-adv-x="395" 
d="M66 727v303h272v-303h-272zM76 -307v4l35 938h182l35 -938v-4h-252z" />
    <glyph glyph-name="cent" unicode="&#xa2;" horiz-adv-x="765" 
d="M723 823h-211v86q0 78 -26.5 114t-82.5 36q-57 0 -83.5 -35.5t-26.5 -114.5v-413q0 -77 27 -111.5t83 -34.5t82.5 34.5t26.5 111.5v79h211v-43q0 -180 -68.5 -273.5t-212.5 -100.5l-18 -197h-193l21 219q-95 35 -139.5 122t-44.5 230v338q0 175 69 269.5t213 107.5
l19 185h192l-20 -205q182 -65 182 -357v-47z" />
    <glyph glyph-name="sterling" unicode="&#xa3;" horiz-adv-x="872" 
d="M811 938h-221v82q0 102 -28.5 146t-92.5 44q-62 0 -89.5 -44t-27.5 -146v-238h244v-211h-244v-346h457v-225h-797v225h103v346h-103v211h103v222q0 417 348 417h14q170 0 252 -103.5t82 -313.5v-66z" />
    <glyph glyph-name="yen" unicode="&#xa5;" horiz-adv-x="882" 
d="M852 1393l-184 -557h166v-199h-234l-39 -119v-63h273v-199h-273v-256h-239v256h-271v199h271v55l-43 127h-228v199h162l-184 557h250l163 -584h9l167 584h234z" />
    <glyph glyph-name="brokenbar" unicode="&#xa6;" horiz-adv-x="1024" 
d="M416 1487h194v-801h-194v801zM416 496h194v-803h-194v803z" />
    <glyph glyph-name="section" unicode="&#xa7;" horiz-adv-x="741" 
d="M692 1198h-211v27q0 86 -26 120.5t-88 34.5q-58 0 -82.5 -26.5t-24.5 -91.5q2 -45 8 -69t28.5 -48.5t50 -41.5t91.5 -52q78 -45 118 -73t72 -66.5t43.5 -81.5t14.5 -111q0 -159 -121 -250q65 -53 96 -116.5t31 -157.5q0 -154 -81 -236t-234 -82h-17q-149 0 -230 93.5
t-81 269.5v12h213v-25q0 -87 25.5 -122t87.5 -35q59 0 83.5 27t24.5 91q-3 44 -9 68t-30 49.5t-49 41.5t-90 54q-77 44 -118 72t-72.5 66.5t-43 82t-14.5 111.5q0 158 119 250q-65 51 -96 114.5t-31 157.5q0 154 81 236t235 82h16q150 0 230.5 -93.5t80.5 -269.5v-12z
M307 901l-6 2q-49 -69 -49 -133q4 -81 35.5 -116.5t148.5 -102.5l4 -2q49 66 49 131q0 79 -36 121q-34 39 -146 100z" />
    <glyph glyph-name="dieresis" unicode="&#xa8;" horiz-adv-x="1024" 
d="M260 1157v217h209v-217h-209zM555 1157v217h209v-217h-209z" />
    <glyph glyph-name="copyright" unicode="&#xa9;" horiz-adv-x="1261" 
d="M82 479v432q0 262 137.5 396.5t403.5 134.5h18q265 0 402 -134t137 -397v-432q0 -259 -135.5 -393.5t-395.5 -134.5h-35q-260 0 -396 134.5t-136 393.5zM612 80h39q393 0 393 385v465q0 195 -98.5 291t-300.5 96h-27q-202 0 -300.5 -96t-98.5 -291v-465q0 -385 393 -385z
M375 532v324q0 150 62.5 222.5t195.5 72.5h12q124 0 183 -71.5t59 -221.5v-72h-176v76q0 69 -16.5 96t-57.5 27q-39 0 -57.5 -28.5t-18.5 -94.5v-332q0 -66 18 -93t60 -27q41 0 56.5 25.5t15.5 94.5v80h176v-78q0 -147 -56.5 -218.5t-177.5 -71.5h-26q-132 0 -192 70.5
t-60 219.5z" />
    <glyph glyph-name="ordfeminine" unicode="&#xaa;" horiz-adv-x="540" 
d="M35 948q0 107 51 155t172 48h68v66q0 75 -60 75q-31 0 -45 -16.5t-14 -56.5v-17h-158q0 109 50.5 158t166.5 49h8q114 0 161.5 -48t47.5 -159v-405h-157v18q0 51 4 105h-4q-21 -138 -148 -138q-143 0 -143 166zM328 1001v64h-41q-48 0 -69 -18.5t-21 -57.5v-26
q0 -60 57 -60q74 0 74 98z" />
    <glyph glyph-name="guillemotleft" unicode="&#xab;" horiz-adv-x="901" 
d="M643 539l180 -437h-213l-172 437l172 436h213zM270 539l181 -437h-213l-172 437l172 436h213z" />
    <glyph glyph-name="registered" unicode="&#xae;" horiz-adv-x="1261" 
d="M1180 911v-432q0 -259 -135.5 -393.5t-395.5 -134.5h-35q-260 0 -396 134.5t-136 393.5v432q0 262 137.5 396.5t403.5 134.5h18q265 0 402 -134t137 -397zM1044 465v465q0 195 -98.5 291t-300.5 96h-27q-202 0 -300.5 -96t-98.5 -291v-465q0 -385 393 -385h39
q393 0 393 385zM813 631l88 -365h-188l-70 320h-53v-320h-187v860h240q132 0 195 -65.5t63 -200.5q0 -165 -88 -229zM590 735h39q44 0 63 27.5t19 93.5q0 63 -20.5 91t-65.5 28h-35v-240z" />
    <glyph glyph-name="overscore" unicode="&#xaf;" horiz-adv-x="1024" 
d="M311 1217v163h404v-163h-404z" />
    <glyph glyph-name="degree" unicode="&#xb0;" horiz-adv-x="694" 
d="M43 1020v45q0 129 83 209t214 80h14q131 0 214 -80t83 -209v-45q0 -128 -83 -207.5t-214 -79.5h-14q-131 0 -214 80t-83 207zM344 897h8q57 0 93 36.5t36 96.5v25q0 61 -36 98t-93 37h-8q-57 0 -93 -37t-36 -98v-25q0 -60 36 -96.5t93 -36.5z" />
    <glyph glyph-name="plusminus" unicode="&#xb1;" horiz-adv-x="761" 
d="M283 549v215h-217v197h217v217h196v-217h217v-197h-217v-215h-196zM66 225v199h630v-199h-630z" />
    <glyph glyph-name="uni00B2" unicode="&#xb2;" horiz-adv-x="497" 
d="M20 799v121q124 140 189 217q52 63 73 109.5t21 105.5q0 44 -14.5 63t-46.5 19q-36 0 -52 -20.5t-16 -67.5v-31h-151v20q0 119 53.5 178.5t165.5 59.5h10q215 0 215 -213q0 -72 -29 -141q-25 -60 -68 -116.5t-132 -152.5h231v-151h-449z" />
    <glyph glyph-name="uni00B3" unicode="&#xb3;" horiz-adv-x="509" 
d="M18 1014v35h164v-39q0 -86 70 -86q36 0 51.5 20.5t15.5 65.5v22q0 42 -16.5 59t-58.5 17h-84v147h84q40 0 55.5 16t15.5 54v35q0 39 -14 56.5t-49 17.5q-36 0 -51 -19.5t-15 -66.5v-33h-153v22q0 121 53 178.5t164 57.5h12q103 0 157 -55t54 -160q0 -136 -102 -170v-2
q112 -27 112 -180q0 -109 -57 -166.5t-166 -57.5h-16q-226 0 -226 232z" />
    <glyph glyph-name="acute" unicode="&#xb4;" horiz-adv-x="1024" 
d="M424 1157l111 283h245l-176 -283h-180z" />
    <glyph glyph-name="paragraph" unicode="&#xb6;" horiz-adv-x="1044" 
d="M446 0v647q-193 0 -288 91t-95 282q0 194 95 283.5t297 89.5h495v-1393h-174v1233h-151v-1233h-179z" />
    <glyph glyph-name="middot" unicode="&#xb7;" horiz-adv-x="415" 
d="M72 852h272v-303h-272v303z" />
    <glyph glyph-name="cedilla" unicode="&#xb8;" horiz-adv-x="1024" 
d="M709 -242q0 -86 -58 -126t-186 -40q-61 0 -141 13v133q66 -14 131 -14q56 0 76 10t20 39t-25.5 38.5t-111.5 14.5l57 207h135l-35 -127q70 -11 104 -46.5t34 -101.5z" />
    <glyph glyph-name="uni00B9" unicode="&#xb9;" horiz-adv-x="413" 
d="M303 950h103v-151h-369v151h102v443l-102 -31v162l139 35h127v-609z" />
    <glyph glyph-name="ordmasculine" unicode="&#xba;" horiz-adv-x="540" 
d="M49 1004v178q0 227 219 227h6q218 0 218 -227v-178q0 -226 -213 -226h-15q-215 0 -215 226zM334 975v237q0 80 -64 80q-63 0 -63 -80v-237q0 -42 15 -59t48 -17t48.5 17t15.5 59z" />
    <glyph glyph-name="guillemotright" unicode="&#xbb;" horiz-adv-x="901" 
d="M78 100l180 437l-180 436h213l172 -436l-172 -437h-213zM451 100l180 437l-180 436h213l172 -436l-172 -437h-213z" />
    <glyph glyph-name="onequarter" unicode="&#xbc;" horiz-adv-x="1118" 
d="M303 784h103v-151h-369v151h102v443l-102 -31v162l139 35h127v-609zM248 0l256 721l219 672h145l-258 -721l-219 -672h-143zM1100 293v-148h-72v-145h-164v145h-250v127l215 488h199v-467h72zM868 569l-120 -276h120v276z" />
    <glyph glyph-name="onehalf" unicode="&#xbd;" horiz-adv-x="1167" 
d="M303 784h103v-151h-369v151h102v443l-102 -31v162l139 35h127v-609zM248 0l256 721l219 672h145l-258 -721l-219 -672h-143zM690 0v121q124 140 189 217q52 63 73 109.5t21 105.5q0 44 -14.5 63t-47.5 19q-35 0 -51 -20.5t-16 -67.5v-31h-152v21q0 119 53.5 178t165.5 59
h11q215 0 215 -213q0 -72 -29 -141q-25 -60 -67.5 -115t-133.5 -153h232v-152h-449z" />
    <glyph glyph-name="threequarters" unicode="&#xbe;" horiz-adv-x="1163" 
d="M18 848v35h164v-39q0 -86 70 -86q36 0 51.5 20.5t15.5 65.5v22q0 42 -16.5 59t-58.5 17h-84v148h84q40 0 55.5 15.5t15.5 53.5v35q0 39 -14 56.5t-49 17.5q-36 0 -51 -19.5t-15 -66.5v-33h-153v22q0 121 53 178.5t164 57.5h12q103 0 157 -55t54 -160q0 -136 -102 -170v-2
q112 -27 112 -180q0 -109 -57 -166.5t-166 -57.5h-16q-226 0 -226 232zM293 0l256 721l219 672h145l-258 -721l-219 -672h-143zM1145 293v-148h-72v-145h-164v145h-250v127l215 488h199v-467h72zM913 569l-120 -276h120v276z" />
    <glyph glyph-name="questiondown" unicode="&#xbf;" horiz-adv-x="794" 
d="M276 741v289h259v-289h-259zM41 63v56q0 163 67.5 255.5t176.5 98.5v170h241v-344h-129q-63 0 -90.5 -36t-27.5 -118v-75q0 -100 29 -144.5t95 -44.5q68 0 97.5 40.5t29.5 133.5v68h224v-31q0 -416 -346 -416h-17q-350 0 -350 387z" />
    <glyph glyph-name="Agrave" unicode="&#xc0;" horiz-adv-x="821" 
d="M584 0l-47 305h-267l-47 -305h-223l242 1397h340l239 -1397h-237zM408 1223h-11l-98 -707h211zM518 1495h-235l-252 266h276z" />
    <glyph glyph-name="Aacute" unicode="&#xc1;" horiz-adv-x="821" 
d="M584 0l-47 305h-267l-47 -305h-223l242 1397h340l239 -1397h-237zM408 1223h-11l-98 -707h211zM289 1495l211 266h276l-252 -266h-235z" />
    <glyph glyph-name="Acircumflex" unicode="&#xc2;" horiz-adv-x="821" 
d="M584 0l-47 305h-267l-47 -305h-223l242 1397h340l239 -1397h-237zM408 1223h-11l-98 -707h211zM651 1495h-178l-67 143l-70 -143h-180l137 266h221z" />
    <glyph glyph-name="Atilde" unicode="&#xc3;" horiz-adv-x="821" 
d="M584 0l-47 305h-267l-47 -305h-223l242 1397h340l239 -1397h-237zM408 1223h-11l-98 -707h211zM369 1538q-23 33 -56 33q-25 0 -36.5 -17.5t-12.5 -58.5h-131q2 119 46 177.5t134 58.5q49 0 75.5 -13.5t55.5 -44.5q23 -33 54 -33q24 0 35 17t16 59h131q-3 -235 -178 -235
q-51 0 -78 12.5t-55 44.5z" />
    <glyph glyph-name="Adieresis" unicode="&#xc4;" horiz-adv-x="821" 
d="M584 0l-47 305h-267l-47 -305h-223l242 1397h340l239 -1397h-237zM408 1223h-11l-98 -707h211zM139 1495v223h217v-223h-217zM451 1495v223h217v-223h-217z" />
    <glyph glyph-name="Aring" unicode="&#xc5;" horiz-adv-x="821" 
d="M584 0l-47 305h-267l-47 -305h-223l242 1397h340l239 -1397h-237zM408 1223h-11l-98 -707h211zM207 1524v24q0 81 53.5 131t138.5 50h13q85 0 138.5 -50t53.5 -131v-24q0 -79 -53.5 -128.5t-138.5 -49.5h-13q-85 0 -138.5 49.5t-53.5 128.5zM481 1528v16q0 74 -75 74
q-35 0 -54.5 -19.5t-19.5 -54.5v-16q0 -35 19.5 -54.5t54.5 -19.5q75 0 75 74z" />
    <glyph glyph-name="AE" unicode="&#xc6;" horiz-adv-x="1116" 
d="M1069 1171h-326v-352h283v-221h-283v-375h326v-223h-553v307h-219l-74 -307h-223l352 1393h717v-222zM344 512h172v668h-20z" />
    <glyph glyph-name="Ccedilla" unicode="&#xc7;" horiz-adv-x="847" 
d="M76 399v594q0 428 362 428h17q344 0 344 -428v-104h-224v133q0 104 -30.5 149.5t-98.5 45.5q-69 0 -100 -45.5t-31 -149.5v-643q0 -104 31 -151.5t100 -47.5q68 0 98.5 47.5t30.5 151.5v119h224v-99q0 -216 -83.5 -322t-256.5 -106h-25q-183 0 -270.5 105.5t-87.5 322.5z
M637 -242q0 -87 -59 -129.5t-187 -42.5q-61 0 -141 13v143q66 -14 131 -14q56 0 75 8.5t19 34.5q0 27 -26 37t-111 16l57 209h137l-36 -125q74 -11 107.5 -46t33.5 -104z" />
    <glyph glyph-name="Egrave" unicode="&#xc8;" horiz-adv-x="798" 
d="M94 0v1393h651v-222h-421v-352h366v-221h-366v-375h421v-223h-651zM535 1495h-236l-252 266h277z" />
    <glyph glyph-name="Eacute" unicode="&#xc9;" horiz-adv-x="798" 
d="M94 0v1393h651v-222h-421v-352h366v-221h-366v-375h421v-223h-651zM305 1495l211 266h277l-252 -266h-236z" />
    <glyph glyph-name="Ecircumflex" unicode="&#xca;" horiz-adv-x="798" 
d="M94 0v1393h651v-222h-421v-352h366v-221h-366v-375h421v-223h-651zM668 1495h-179l-67 143l-70 -143h-180l137 266h221z" />
    <glyph glyph-name="Edieresis" unicode="&#xcb;" horiz-adv-x="798" 
d="M94 0v1393h651v-222h-421v-352h366v-221h-366v-375h421v-223h-651zM156 1495v223h217v-223h-217zM467 1495v223h217v-223h-217z" />
    <glyph glyph-name="Igrave" unicode="&#xcc;" horiz-adv-x="423" 
d="M332 1393v-1393h-238v1393h238zM328 1495h-236l-252 266h277z" />
    <glyph glyph-name="Iacute" unicode="&#xcd;" horiz-adv-x="423" 
d="M332 1393v-1393h-238v1393h238zM98 1495l211 266h277l-252 -266h-236z" />
    <glyph glyph-name="Icircumflex" unicode="&#xce;" horiz-adv-x="423" 
d="M209 1647l-78 -131h-147l125 278h210l123 -278h-153zM94 0v1393h238v-1393h-238z" />
    <glyph glyph-name="Idieresis" unicode="&#xcf;" horiz-adv-x="423" 
d="M-33 1536v217h207v-217h-207zM254 1536v217h207v-217h-207zM332 1393v-1393h-238v1393h238z" />
    <glyph glyph-name="Eth" unicode="&#xd0;" horiz-adv-x="915" 
d="M848 926v-461q0 -247 -96.5 -356t-315.5 -109h-342v590h-84v221h84v582h332q227 0 324.5 -108t97.5 -359zM610 442v504q0 129 -41 178.5t-147 49.5h-90v-363h145v-219h-145v-369h90q106 0 147 47.5t41 171.5z" />
    <glyph glyph-name="Ntilde" unicode="&#xd1;" horiz-adv-x="940" 
d="M94 0v1393h240l297 -861h6v861h211v-1393h-240l-297 862h-6v-862h-211zM436 1538q-23 33 -55 33q-25 0 -36.5 -17.5t-12.5 -58.5h-131q2 119 46 177.5t134 58.5q49 0 75.5 -13.5t55.5 -44.5q23 -33 53 -33q24 0 35 17t16 59h132q-3 -235 -179 -235q-51 0 -78 12.5
t-55 44.5z" />
    <glyph glyph-name="Ograve" unicode="&#xd2;" horiz-adv-x="905" 
d="M76 399v594q0 428 368 428h17q368 0 368 -428v-594q0 -217 -88 -322.5t-276 -105.5h-25q-185 0 -274.5 106t-89.5 322zM592 379v643q0 104 -32.5 149.5t-106.5 45.5t-107 -45.5t-33 -149.5v-643q0 -104 33.5 -151.5t106.5 -47.5t106 47t33 152zM567 1495h-235l-252 266
h276z" />
    <glyph glyph-name="Oacute" unicode="&#xd3;" horiz-adv-x="905" 
d="M76 399v594q0 428 368 428h17q368 0 368 -428v-594q0 -217 -88 -322.5t-276 -105.5h-25q-185 0 -274.5 106t-89.5 322zM592 379v643q0 104 -32.5 149.5t-106.5 45.5t-107 -45.5t-33 -149.5v-643q0 -104 33.5 -151.5t106.5 -47.5t106 47t33 152zM338 1495l211 266h276
l-252 -266h-235z" />
    <glyph glyph-name="Ocircumflex" unicode="&#xd4;" horiz-adv-x="905" 
d="M76 399v594q0 428 368 428h17q368 0 368 -428v-594q0 -217 -88 -322.5t-276 -105.5h-25q-185 0 -274.5 106t-89.5 322zM592 379v643q0 104 -32.5 149.5t-106.5 45.5t-107 -45.5t-33 -149.5v-643q0 -104 33.5 -151.5t106.5 -47.5t106 47t33 152zM700 1495h-178l-67 143
l-70 -143h-180l137 266h221z" />
    <glyph glyph-name="Otilde" unicode="&#xd5;" horiz-adv-x="905" 
d="M76 399v594q0 428 368 428h17q368 0 368 -428v-594q0 -217 -88 -322.5t-276 -105.5h-25q-185 0 -274.5 106t-89.5 322zM592 379v643q0 104 -32.5 149.5t-106.5 45.5t-107 -45.5t-33 -149.5v-643q0 -104 33.5 -151.5t106.5 -47.5t106 47t33 152zM418 1538q-23 33 -56 33
q-25 0 -36.5 -17.5t-12.5 -58.5h-131q2 119 46 177.5t134 58.5q49 0 76 -13.5t56 -44.5q23 -33 53 -33q24 0 35 17t16 59h131q-3 -235 -178 -235q-51 0 -78 12.5t-55 44.5z" />
    <glyph glyph-name="Odieresis" unicode="&#xd6;" horiz-adv-x="905" 
d="M76 399v594q0 428 368 428h17q368 0 368 -428v-594q0 -217 -88 -322.5t-276 -105.5h-25q-185 0 -274.5 106t-89.5 322zM592 379v643q0 104 -32.5 149.5t-106.5 45.5t-107 -45.5t-33 -149.5v-643q0 -104 33.5 -151.5t106.5 -47.5t106 47t33 152zM188 1495v223h218v-223
h-218zM500 1495v223h217v-223h-217z" />
    <glyph glyph-name="multiply" unicode="&#xd7;" horiz-adv-x="761" 
d="M711 858l-187 -158l187 -157l-115 -135l-211 178l-211 -178l-115 135l189 159l-189 158l115 135l211 -178l211 178z" />
    <glyph glyph-name="Oslash" unicode="&#xd8;" horiz-adv-x="905" 
d="M829 993v-594q0 -217 -88 -322.5t-276 -105.5h-25q-36 0 -104 11l-47 -164l-144 37l56 188q-125 101 -125 356v594q0 428 368 428h17q42 0 104 -10l43 154l144 -37l-50 -178q127 -103 127 -357zM311 1022v-600l193 788q-28 7 -51 7q-74 0 -108 -46t-34 -149zM594 379v610
l-195 -801q19 -8 54 -8q75 0 108 47t33 152z" />
    <glyph glyph-name="Ugrave" unicode="&#xd9;" horiz-adv-x="903" 
d="M82 399v994h237v-1016q0 -104 34 -151.5t108 -47.5q73 0 105 47t32 152v1016h223v-996q0 -217 -85 -321.5t-267 -104.5h-25q-185 0 -273.5 106t-88.5 322zM573 1495h-235l-252 266h276z" />
    <glyph glyph-name="Uacute" unicode="&#xda;" horiz-adv-x="903" 
d="M82 399v994h237v-1016q0 -104 34 -151.5t108 -47.5q73 0 105 47t32 152v1016h223v-996q0 -217 -85 -321.5t-267 -104.5h-25q-185 0 -273.5 106t-88.5 322zM344 1495l211 266h276l-251 -266h-236z" />
    <glyph glyph-name="Ucircumflex" unicode="&#xdb;" horiz-adv-x="903" 
d="M82 399v994h237v-1016q0 -104 34 -151.5t108 -47.5q73 0 105 47t32 152v1016h223v-996q0 -217 -85 -321.5t-267 -104.5h-25q-185 0 -273.5 106t-88.5 322zM707 1495h-179l-67 143l-70 -143h-180l137 266h221z" />
    <glyph glyph-name="Udieresis" unicode="&#xdc;" horiz-adv-x="903" 
d="M82 399v994h237v-1016q0 -104 34 -151.5t108 -47.5q73 0 105 47t32 152v1016h223v-996q0 -217 -85 -321.5t-267 -104.5h-25q-185 0 -273.5 106t-88.5 322zM195 1495v223h217v-223h-217zM506 1495v223h217v-223h-217z" />
    <glyph glyph-name="Yacute" unicode="&#xdd;" horiz-adv-x="823" 
d="M823 1393l-291 -875v-518h-239v510l-293 883h250l164 -584h8l168 584h233zM303 1495l211 266h277l-252 -266h-236z" />
    <glyph glyph-name="Thorn" unicode="&#xde;" horiz-adv-x="854" 
d="M94 0v1393h238v-244h94q215 0 311.5 -104.5t96.5 -333.5q0 -232 -100.5 -336.5t-321.5 -104.5h-80v-270h-238zM332 481h78q102 0 143 51.5t41 176.5q0 123 -40.5 172t-143.5 49h-78v-449z" />
    <glyph glyph-name="germandbls" unicode="&#xdf;" horiz-adv-x="821" 
d="M78 0v1075q0 171 79.5 254.5t243.5 83.5h9q288 0 288 -301v-55q0 -172 -125 -209v-8q99 -7 147 -74t48 -197v-237q0 -168 -73.5 -250t-225.5 -82h-80v188h45q109 0 109 125v277q0 65 -27.5 95t-85.5 30h-41v186h29q39 0 57.5 23t18.5 73v105q0 60 -22 87.5t-69 27.5
q-51 0 -75.5 -29t-24.5 -90v-1098h-225z" />
    <glyph glyph-name="agrave" unicode="&#xe0;" 
d="M41 262q0 185 89 267.5t296 82.5h90v113q0 79 -24 112t-84 33q-62 0 -88.5 -32.5t-26.5 -110.5v-16h-221q0 178 79.5 263t251.5 85h11q173 0 250 -84t77 -273v-702h-225v35q0 59 6 203h-4q-13 -134 -71.5 -196t-165.5 -62q-117 0 -178.5 70.5t-61.5 211.5zM520 360v99
h-74q-91 0 -133.5 -36t-42.5 -110v-18q0 -117 115 -117q70 0 102.5 43t32.5 139zM494 1157h-181l-176 283h246z" />
    <glyph glyph-name="aacute" unicode="&#xe1;" 
d="M41 262q0 185 89 267.5t296 82.5h90v113q0 79 -24 112t-84 33q-62 0 -88.5 -32.5t-26.5 -110.5v-16h-221q0 178 79.5 263t251.5 85h11q173 0 250 -84t77 -273v-702h-225v35q0 59 6 203h-4q-13 -134 -71.5 -196t-165.5 -62q-117 0 -178.5 70.5t-61.5 211.5zM520 360v99
h-74q-91 0 -133.5 -36t-42.5 -110v-18q0 -117 115 -117q70 0 102.5 43t32.5 139zM317 1157l111 283h246l-176 -283h-181z" />
    <glyph glyph-name="acircumflex" unicode="&#xe2;" 
d="M41 262q0 185 89 267.5t296 82.5h90v113q0 79 -24 112t-84 33q-62 0 -88.5 -32.5t-26.5 -110.5v-16h-221q0 178 79.5 263t251.5 85h11q173 0 250 -84t77 -273v-702h-225v35q0 59 6 203h-4q-13 -134 -71.5 -196t-165.5 -62q-117 0 -178.5 70.5t-61.5 211.5zM520 360v99
h-74q-91 0 -133.5 -36t-42.5 -110v-18q0 -117 115 -117q70 0 102.5 43t32.5 139zM659 1157h-178l-75 158l-76 -158h-176l143 283h219z" />
    <glyph glyph-name="atilde" unicode="&#xe3;" 
d="M41 262q0 185 89 267.5t296 82.5h90v113q0 79 -24 112t-84 33q-62 0 -88.5 -32.5t-26.5 -110.5v-16h-221q0 178 79.5 263t251.5 85h11q173 0 250 -84t77 -273v-702h-225v35q0 59 6 203h-4q-13 -134 -71.5 -196t-165.5 -62q-117 0 -178.5 70.5t-61.5 211.5zM520 360v99
h-74q-91 0 -133.5 -36t-42.5 -110v-18q0 -117 115 -117q70 0 102.5 43t32.5 139zM365 1214q-14 20 -24 26.5t-28 6.5q-26 0 -37.5 -18t-11.5 -62h-131q3 240 184 240q53 0 82 -15t50 -44q14 -20 23.5 -26.5t27.5 -6.5q26 0 36.5 17.5t10.5 60.5h131q-2 -122 -45.5 -180
t-134.5 -58q-53 0 -80 13.5t-53 45.5z" />
    <glyph glyph-name="adieresis" unicode="&#xe4;" 
d="M41 262q0 185 89 267.5t296 82.5h90v113q0 79 -24 112t-84 33q-62 0 -88.5 -32.5t-26.5 -110.5v-16h-221q0 178 79.5 263t251.5 85h11q173 0 250 -84t77 -273v-702h-225v35q0 59 6 203h-4q-13 -134 -71.5 -196t-165.5 -62q-117 0 -178.5 70.5t-61.5 211.5zM520 360v99
h-74q-91 0 -133.5 -36t-42.5 -110v-18q0 -117 115 -117q70 0 102.5 43t32.5 139zM154 1157v217h208v-217h-208zM449 1157v217h208v-217h-208z" />
    <glyph glyph-name="aring" unicode="&#xe5;" 
d="M41 262q0 185 89 267.5t296 82.5h90v113q0 79 -24 112t-84 33q-62 0 -88.5 -32.5t-26.5 -110.5v-16h-221q0 178 79.5 263t251.5 85h11q173 0 250 -84t77 -273v-702h-225v35q0 59 6 203h-4q-13 -134 -71.5 -196t-165.5 -62q-117 0 -178.5 70.5t-61.5 211.5zM520 360v99
h-74q-91 0 -133.5 -36t-42.5 -110v-18q0 -117 115 -117q70 0 102.5 43t32.5 139zM213 1284v25q0 79 52 128.5t134 49.5h13q85 0 135.5 -48t50.5 -130v-25q0 -80 -50.5 -128t-135.5 -48h-13q-82 0 -134 48.5t-52 127.5zM475 1288v17q0 73 -69 73q-70 0 -70 -73v-17
q0 -71 70 -71q69 0 69 71z" />
    <glyph glyph-name="ae" unicode="&#xe6;" horiz-adv-x="1261" 
d="M733 459v-152q0 -77 30 -111t93 -34q62 0 90.5 33.5t28.5 111.5v27h223v-4q0 -359 -332 -359h-22q-232 0 -285 222q-25 -112 -88 -162.5t-176 -50.5q-123 0 -188.5 71.5t-65.5 212.5q0 185 89 267.5t294 82.5h90v111q0 79 -23.5 112t-82.5 33q-62 0 -88.5 -32.5
t-26.5 -110.5v-16h-221q0 175 79.5 261.5t247.5 86.5h11q147 0 217 -101q76 101 231 101h8q332 0 332 -381v-219h-465zM733 723v-109h242v109q0 78 -28.5 113.5t-90.5 35.5q-63 0 -93 -35.5t-30 -113.5zM518 360v99h-74q-90 0 -132 -34.5t-42 -107.5v-22q0 -117 113 -117
q70 0 102.5 43t32.5 139z" />
    <glyph glyph-name="ccedilla" unicode="&#xe7;" horiz-adv-x="757" 
d="M63 344v338q0 379 330 379h10q316 0 316 -379v-47h-211v86q0 77 -26.5 113t-82.5 36q-57 0 -83.5 -35t-26.5 -114v-414q0 -77 27 -111t83 -34t82.5 34t26.5 111v80h211v-43q0 -187 -74.5 -281t-232.5 -94h-25q-168 0 -246 93.5t-78 281.5zM588 -242q0 -86 -58 -126
t-186 -40q-61 0 -141 13v133q66 -14 131 -14q56 0 76 10t20 39t-25.5 38.5t-111.5 14.5l57 207h135l-34 -127q70 -11 103.5 -46t33.5 -102z" />
    <glyph glyph-name="egrave" unicode="&#xe8;" horiz-adv-x="817" 
d="M287 444v-139q0 -77 30 -111t93 -34t91.5 33.5t28.5 111.5v29h224v-4q0 -361 -332 -361h-23q-170 0 -253 93t-83 282v334q0 379 343 379h8q340 0 340 -379v-234h-467zM287 721v-109h243v109q0 79 -29 114t-91 35q-63 0 -93 -35.5t-30 -113.5zM498 1157h-181l-176 283h246
z" />
    <glyph glyph-name="eacute" unicode="&#xe9;" horiz-adv-x="817" 
d="M287 444v-139q0 -77 30 -111t93 -34t91.5 33.5t28.5 111.5v29h224v-4q0 -361 -332 -361h-23q-170 0 -253 93t-83 282v334q0 379 343 379h8q340 0 340 -379v-234h-467zM287 721v-109h243v109q0 79 -29 114t-91 35q-63 0 -93 -35.5t-30 -113.5zM322 1157l110 283h246
l-176 -283h-180z" />
    <glyph glyph-name="ecircumflex" unicode="&#xea;" horiz-adv-x="817" 
d="M287 444v-139q0 -77 30 -111t93 -34t91.5 33.5t28.5 111.5v29h224v-4q0 -361 -332 -361h-23q-170 0 -253 93t-83 282v334q0 379 343 379h8q340 0 340 -379v-234h-467zM287 721v-109h243v109q0 79 -29 114t-91 35q-63 0 -93 -35.5t-30 -113.5zM664 1157h-179l-75 158
l-76 -158h-176l143 283h219z" />
    <glyph glyph-name="edieresis" unicode="&#xeb;" horiz-adv-x="817" 
d="M287 444v-139q0 -77 30 -111t93 -34t91.5 33.5t28.5 111.5v29h224v-4q0 -361 -332 -361h-23q-170 0 -253 93t-83 282v334q0 379 343 379h8q340 0 340 -379v-234h-467zM287 721v-109h243v109q0 79 -29 114t-91 35q-63 0 -93 -35.5t-30 -113.5zM158 1157v217h209v-217h-209
zM453 1157v217h209v-217h-209z" />
    <glyph glyph-name="igrave" unicode="&#xec;" horiz-adv-x="380" 
d="M78 1030h225v-1030h-225v1030zM279 1157h-181l-176 283h246z" />
    <glyph glyph-name="iacute" unicode="&#xed;" horiz-adv-x="380" 
d="M78 1030h225v-1030h-225v1030zM102 1157l111 283h246l-176 -283h-181z" />
    <glyph glyph-name="icircumflex" unicode="&#xee;" horiz-adv-x="380" 
d="M188 1294l-84 -137h-145l129 283h207l129 -283h-154zM78 0v1030h225v-1030h-225z" />
    <glyph glyph-name="idieresis" unicode="&#xef;" horiz-adv-x="380" 
d="M-47 1157v211h201v-211h-201zM227 1157v211h201v-211h-201zM78 1030h225v-1030h-225v1030z" />
    <glyph glyph-name="eth" unicode="&#xf0;" horiz-adv-x="851" 
d="M840 1147l-101 -17q29 -227 29 -501v-211q0 -236 -79.5 -341.5t-252.5 -105.5h-22q-336 0 -336 375v283q0 350 262 350q97 0 150.5 -51.5t72.5 -163.5h4q-9 211 -30 334l-121 -19l-21 131l117 19l-43 164h219q18 -72 31 -131l100 16zM545 307v305q0 181 -127 181
q-115 0 -115 -146v-340q0 -77 30 -111t93 -34q62 0 90.5 33.5t28.5 111.5z" />
    <glyph glyph-name="ntilde" unicode="&#xf1;" horiz-adv-x="845" 
d="M78 0v1030h225v-51l-2 -148q-2 -10 -2 -49h4q13 139 74 206t174 67q110 0 163.5 -68.5t53.5 -210.5v-776h-225v698q0 78 -25.5 114t-79.5 36q-135 0 -135 -178v-670h-225zM383 1214q-14 20 -23.5 26.5t-27.5 6.5q-26 0 -37.5 -18t-11.5 -62h-131q3 240 184 240
q53 0 81.5 -14.5t49.5 -44.5q14 -20 23.5 -26.5t27.5 -6.5q26 0 36.5 17.5t10.5 60.5h131q-2 -122 -45.5 -180t-134.5 -58q-53 0 -80 13.5t-53 45.5z" />
    <glyph glyph-name="ograve" unicode="&#xf2;" 
d="M63 346v334q0 379 345 379h8q340 0 340 -379v-334q0 -375 -334 -375h-23q-336 0 -336 375zM530 307v414q0 78 -28 113.5t-90 35.5q-63 0 -93 -35.5t-30 -113.5v-414q0 -77 30 -111t93 -34q62 0 90 33.5t28 111.5zM498 1157h-181l-176 283h246z" />
    <glyph glyph-name="oacute" unicode="&#xf3;" 
d="M63 346v334q0 379 345 379h8q340 0 340 -379v-334q0 -375 -334 -375h-23q-336 0 -336 375zM530 307v414q0 78 -28 113.5t-90 35.5q-63 0 -93 -35.5t-30 -113.5v-414q0 -77 30 -111t93 -34q62 0 90 33.5t28 111.5zM322 1157l110 283h246l-176 -283h-180z" />
    <glyph glyph-name="ocircumflex" unicode="&#xf4;" 
d="M63 346v334q0 379 345 379h8q340 0 340 -379v-334q0 -375 -334 -375h-23q-336 0 -336 375zM530 307v414q0 78 -28 113.5t-90 35.5q-63 0 -93 -35.5t-30 -113.5v-414q0 -77 30 -111t93 -34q62 0 90 33.5t28 111.5zM664 1157h-179l-75 158l-76 -158h-176l143 283h219z" />
    <glyph glyph-name="otilde" unicode="&#xf5;" 
d="M63 346v334q0 379 345 379h8q340 0 340 -379v-334q0 -375 -334 -375h-23q-336 0 -336 375zM530 307v414q0 78 -28 113.5t-90 35.5q-63 0 -93 -35.5t-30 -113.5v-414q0 -77 30 -111t93 -34q62 0 90 33.5t28 111.5zM369 1214q-14 20 -24 26.5t-28 6.5q-26 0 -37.5 -18
t-11.5 -62h-131q3 240 185 240q53 0 81.5 -14.5t49.5 -44.5q14 -20 23.5 -26.5t27.5 -6.5q26 0 36.5 17.5t10.5 60.5h131q-2 -122 -45.5 -180t-134.5 -58q-53 0 -80 13.5t-53 45.5z" />
    <glyph glyph-name="odieresis" unicode="&#xf6;" 
d="M63 346v334q0 379 345 379h8q340 0 340 -379v-334q0 -375 -334 -375h-23q-336 0 -336 375zM530 307v414q0 78 -28 113.5t-90 35.5q-63 0 -93 -35.5t-30 -113.5v-414q0 -77 30 -111t93 -34q62 0 90 33.5t28 111.5zM158 1157v217h209v-217h-209zM453 1157v217h209v-217
h-209z" />
    <glyph glyph-name="divide" unicode="&#xf7;" horiz-adv-x="761" 
d="M272 930v215h220v-215h-220zM66 602v199h630v-199h-630zM272 256v217h217v-217h-217z" />
    <glyph glyph-name="oslash" unicode="&#xf8;" 
d="M756 680v-334q0 -375 -334 -375h-23q-57 0 -92 9l-28 -82l-127 34l32 99q-121 89 -121 315v334q0 379 345 379h8q46 0 98 -10l29 84l127 -35l-35 -101q121 -89 121 -317zM287 721v-395l166 542q-32 4 -41 4q-64 0 -94.5 -36t-30.5 -115zM532 307v393l-165 -536
q36 -4 45 -4q62 0 91 34.5t29 112.5z" />
    <glyph glyph-name="ugrave" unicode="&#xf9;" horiz-adv-x="839" 
d="M78 256v774h225v-700q0 -146 103 -146q63 0 97 45t34 131v670h225v-1030h-225v51l2 146q2 10 2 53h-4q-12 -140 -72.5 -206.5t-171.5 -66.5q-215 0 -215 279zM508 1157h-180l-176 283h245z" />
    <glyph glyph-name="uacute" unicode="&#xfa;" horiz-adv-x="839" 
d="M78 256v774h225v-700q0 -146 103 -146q63 0 97 45t34 131v670h225v-1030h-225v51l2 146q2 10 2 53h-4q-12 -140 -72.5 -206.5t-171.5 -66.5q-215 0 -215 279zM332 1157l110 283h246l-176 -283h-180z" />
    <glyph glyph-name="ucircumflex" unicode="&#xfb;" horiz-adv-x="839" 
d="M78 256v774h225v-700q0 -146 103 -146q63 0 97 45t34 131v670h225v-1030h-225v51l2 146q2 10 2 53h-4q-12 -140 -72.5 -206.5t-171.5 -66.5q-215 0 -215 279zM674 1157h-178l-76 158l-76 -158h-176l143 283h219z" />
    <glyph glyph-name="udieresis" unicode="&#xfc;" horiz-adv-x="839" 
d="M78 256v774h225v-700q0 -146 103 -146q63 0 97 45t34 131v670h225v-1030h-225v51l2 146q2 10 2 53h-4q-12 -140 -72.5 -206.5t-171.5 -66.5q-215 0 -215 279zM168 1157v217h209v-217h-209zM463 1157v217h209v-217h-209z" />
    <glyph glyph-name="yacute" unicode="&#xfd;" horiz-adv-x="716" 
d="M498 1030h219l-318 -1337h-217l74 291l-256 1046h231l129 -663h7zM270 1157l111 283h246l-176 -283h-181z" />
    <glyph glyph-name="thorn" unicode="&#xfe;" horiz-adv-x="833" 
d="M303 -307h-225v1700h225v-402q0 -92 -2 -123l-2 -67h4q12 133 67.5 194.5t161.5 61.5q234 0 234 -283v-526q0 -271 -225 -271q-106 0 -164.5 62.5t-75.5 198.5h-4q6 -144 6 -201v-344zM541 326v383q0 145 -115 145q-125 0 -125 -180v-314q0 -93 30 -136.5t93 -43.5
q117 0 117 146z" />
    <glyph glyph-name="ydieresis" unicode="&#xff;" horiz-adv-x="716" 
d="M498 1030h219l-318 -1337h-217l74 291l-256 1046h231l129 -663h7zM106 1157v217h209v-217h-209zM401 1157v217h209v-217h-209z" />
    <glyph glyph-name="Amacron" unicode="&#x100;" horiz-adv-x="821" 
d="M584 0l-47 305h-267l-47 -305h-223l242 1397h340l239 -1397h-237zM408 1223h-11l-98 -707h211zM190 1544v170h428v-170h-428z" />
    <glyph glyph-name="amacron" unicode="&#x101;" 
d="M41 262q0 185 89 267.5t296 82.5h90v113q0 79 -24 112t-84 33q-62 0 -88.5 -32.5t-26.5 -110.5v-16h-221q0 178 79.5 263t251.5 85h11q173 0 250 -84t77 -273v-702h-225v35q0 59 6 203h-4q-13 -134 -71.5 -196t-165.5 -62q-117 0 -178.5 70.5t-61.5 211.5zM520 360v99
h-74q-91 0 -133.5 -36t-42.5 -110v-18q0 -117 115 -117q70 0 102.5 43t32.5 139zM205 1217v163h403v-163h-403z" />
    <glyph glyph-name="Abreve" unicode="&#x102;" horiz-adv-x="821" 
d="M584 0l-47 305h-267l-47 -305h-223l242 1397h340l239 -1397h-237zM408 1223h-11l-98 -707h211zM166 1745h153q1 -59 21 -84t63 -25t63 25t21 84h154q-6 -258 -231 -258h-13q-225 0 -231 258z" />
    <glyph glyph-name="abreve" unicode="&#x103;" 
d="M41 262q0 185 89 267.5t296 82.5h90v113q0 79 -24 112t-84 33q-62 0 -88.5 -32.5t-26.5 -110.5v-16h-221q0 178 79.5 263t251.5 85h11q173 0 250 -84t77 -273v-702h-225v35q0 59 6 203h-4q-13 -134 -71.5 -196t-165.5 -62q-117 0 -178.5 70.5t-61.5 211.5zM520 360v99
h-74q-91 0 -133.5 -36t-42.5 -110v-18q0 -117 115 -117q70 0 102.5 43t32.5 139zM172 1417h145q3 -117 89 -117q44 0 65.5 28t22.5 89h147q-3 -260 -229 -260h-13q-224 0 -227 260z" />
    <glyph glyph-name="Aogonek" unicode="&#x104;" horiz-adv-x="821" 
d="M584 0l-47 305h-267l-47 -305h-223l242 1397h340l239 -1397h-237zM408 1223h-11l-98 -707h211zM549 -190q0 129 113 190h159q-104 -52 -104 -135q0 -42 24.5 -61t79.5 -19v-188q-132 0 -202 56t-70 157z" />
    <glyph glyph-name="aogonek" unicode="&#x105;" 
d="M41 262q0 185 89 267.5t296 82.5h90v113q0 79 -24 112t-84 33q-62 0 -88.5 -32.5t-26.5 -110.5v-16h-221q0 178 79.5 263t251.5 85h11q173 0 250 -84t77 -273v-702h-225v35q0 59 6 203h-4q-13 -134 -71.5 -196t-165.5 -62q-117 0 -178.5 70.5t-61.5 211.5zM520 360v99
h-74q-91 0 -133.5 -36t-42.5 -110v-18q0 -117 115 -117q70 0 102.5 43t32.5 139zM469 -190q0 129 113 190h159q-56 -30 -82 -61.5t-26 -73.5q0 -43 26 -62.5t82 -19.5v-186q-132 0 -202 56t-70 157z" />
    <glyph glyph-name="Cacute" unicode="&#x106;" horiz-adv-x="847" 
d="M76 399v594q0 428 362 428h17q344 0 344 -428v-104h-224v133q0 104 -30.5 149.5t-98.5 45.5q-69 0 -100 -45.5t-31 -149.5v-643q0 -104 31 -151.5t100 -47.5q68 0 98.5 47.5t30.5 151.5v119h224v-99q0 -216 -83.5 -322t-256.5 -106h-25q-183 0 -270.5 105.5t-87.5 322.5z
M324 1495l211 266h276l-252 -266h-235z" />
    <glyph glyph-name="cacute" unicode="&#x107;" horiz-adv-x="757" 
d="M63 344v338q0 379 330 379h10q316 0 316 -379v-47h-211v86q0 77 -26.5 113t-82.5 36q-57 0 -83.5 -35t-26.5 -114v-414q0 -77 27 -111t83 -34t82.5 34t26.5 111v80h211v-43q0 -187 -74.5 -281t-232.5 -94h-25q-168 0 -246 93.5t-78 281.5zM303 1157l111 283h245
l-176 -283h-180z" />
    <glyph glyph-name="Ccircumflex" unicode="&#x108;" horiz-adv-x="847" 
d="M76 399v594q0 428 362 428h17q344 0 344 -428v-104h-224v133q0 104 -30.5 149.5t-98.5 45.5q-69 0 -100 -45.5t-31 -149.5v-643q0 -104 31 -151.5t100 -47.5q68 0 98.5 47.5t30.5 151.5v119h224v-99q0 -216 -83.5 -322t-256.5 -106h-25q-183 0 -270.5 105.5t-87.5 322.5z
M686 1495h-178l-68 143l-69 -143h-181l138 266h221z" />
    <glyph glyph-name="ccircumflex" unicode="&#x109;" horiz-adv-x="757" 
d="M63 344v338q0 379 330 379h10q316 0 316 -379v-47h-211v86q0 77 -26.5 113t-82.5 36q-57 0 -83.5 -35t-26.5 -114v-414q0 -77 27 -111t83 -34t82.5 34t26.5 111v80h211v-43q0 -187 -74.5 -281t-232.5 -94h-25q-168 0 -246 93.5t-78 281.5zM645 1157h-178l-76 158
l-76 -158h-176l144 283h219z" />
    <glyph glyph-name="Cdotaccent" unicode="&#x10a;" horiz-adv-x="847" 
d="M76 399v594q0 428 362 428h17q344 0 344 -428v-104h-224v133q0 104 -30.5 149.5t-98.5 45.5q-69 0 -100 -45.5t-31 -149.5v-643q0 -104 31 -151.5t100 -47.5q68 0 98.5 47.5t30.5 151.5v119h224v-99q0 -216 -83.5 -322t-256.5 -106h-25q-183 0 -270.5 105.5t-87.5 322.5z
M328 1495v217h221v-217h-221z" />
    <glyph glyph-name="cdotaccent" unicode="&#x10b;" horiz-adv-x="757" 
d="M63 344v338q0 379 330 379h10q316 0 316 -379v-47h-211v86q0 77 -26.5 113t-82.5 36q-57 0 -83.5 -35t-26.5 -114v-414q0 -77 27 -111t83 -34t82.5 34t26.5 111v80h211v-43q0 -187 -74.5 -281t-232.5 -94h-25q-168 0 -246 93.5t-78 281.5zM279 1370h227v-248h-227v248z
" />
    <glyph glyph-name="Ccaron" unicode="&#x10c;" horiz-adv-x="847" 
d="M76 399v594q0 428 362 428h17q344 0 344 -428v-104h-224v133q0 104 -30.5 149.5t-98.5 45.5q-69 0 -100 -45.5t-31 -149.5v-643q0 -104 31 -151.5t100 -47.5q68 0 98.5 47.5t30.5 151.5v119h224v-99q0 -216 -83.5 -322t-256.5 -106h-25q-183 0 -270.5 105.5t-87.5 322.5z
M506 1761h180l-137 -266h-221l-138 266h179l69 -143z" />
    <glyph glyph-name="ccaron" unicode="&#x10d;" horiz-adv-x="757" 
d="M63 344v338q0 379 330 379h10q316 0 316 -379v-47h-211v86q0 77 -26.5 113t-82.5 36q-57 0 -83.5 -35t-26.5 -114v-414q0 -77 27 -111t83 -34t82.5 34t26.5 111v80h211v-43q0 -187 -74.5 -281t-232.5 -94h-25q-168 0 -246 93.5t-78 281.5zM467 1440h178l-143 -283h-219
l-144 283h176l76 -158z" />
    <glyph glyph-name="Dcaron" unicode="&#x10e;" horiz-adv-x="915" 
d="M94 0v1393h332q227 0 324.5 -108t97.5 -359v-461q0 -247 -96.5 -356t-315.5 -109h-342zM332 223h90q106 0 147 47.5t41 171.5v504q0 129 -41 178.5t-147 49.5h-90v-951zM532 1761h181l-138 -266h-221l-137 266h178l70 -143z" />
    <glyph glyph-name="dcaron" unicode="&#x10f;" horiz-adv-x="835" 
d="M68 246v528q0 283 235 283q106 0 161.5 -61.5t67.5 -194.5h5l-2 67q-3 46 -3 123v402h226v-1393h-226v35q0 35 7 203h-4q-17 -136 -75.5 -198.5t-164.5 -62.5q-227 0 -227 269zM852 1393h190l-36 -332h-154v332zM535 360v314q0 180 -125 180q-117 0 -117 -145v-383
q0 -146 117 -146q64 0 94.5 43.5t30.5 136.5z" />
    <glyph glyph-name="Dcroat" unicode="&#x110;" horiz-adv-x="915" 
d="M848 926v-461q0 -247 -96.5 -356t-315.5 -109h-342v590h-84v221h84v582h332q227 0 324.5 -108t97.5 -359zM610 442v504q0 129 -41 178.5t-147 49.5h-90v-363h145v-219h-145v-369h90q106 0 147 47.5t41 171.5z" />
    <glyph glyph-name="dslash" unicode="&#x111;" horiz-adv-x="835" 
d="M836 1255v-151h-78v-1104h-226v35q0 35 7 203h-4q-17 -136 -75.5 -198.5t-164.5 -62.5q-227 0 -227 269v528q0 283 235 283q106 0 161.5 -61.5t67.5 -194.5h5l-2 67q-3 46 -3 123v113h-223v151h223v138h226v-138h78zM535 360v314q0 180 -125 180q-117 0 -117 -145v-383
q0 -146 117 -146q64 0 94.5 43.5t30.5 136.5z" />
    <glyph glyph-name="Emacron" unicode="&#x112;" horiz-adv-x="798" 
d="M94 0v1393h651v-222h-421v-352h366v-221h-366v-375h421v-223h-651zM207 1544v170h428v-170h-428z" />
    <glyph glyph-name="emacron" unicode="&#x113;" horiz-adv-x="817" 
d="M287 444v-139q0 -77 30 -111t93 -34t91.5 33.5t28.5 111.5v29h224v-4q0 -361 -332 -361h-23q-170 0 -253 93t-83 282v334q0 379 343 379h8q340 0 340 -379v-234h-467zM287 721v-109h243v109q0 79 -29 114t-91 35q-63 0 -93 -35.5t-30 -113.5zM209 1217v163h403v-163h-403
z" />
    <glyph glyph-name="Ebreve" unicode="&#x114;" horiz-adv-x="798" 
d="M94 0v1393h651v-222h-421v-352h366v-221h-366v-375h421v-223h-651zM182 1745h154q1 -59 21 -84t63 -25t63 25t21 84h153q-6 -258 -231 -258h-12q-226 0 -232 258z" />
    <glyph glyph-name="ebreve" unicode="&#x115;" horiz-adv-x="817" 
d="M287 444v-139q0 -77 30 -111t93 -34t91.5 33.5t28.5 111.5v29h224v-4q0 -361 -332 -361h-23q-170 0 -253 93t-83 282v334q0 379 343 379h8q340 0 340 -379v-234h-467zM287 721v-109h243v109q0 79 -29 114t-91 35q-63 0 -93 -35.5t-30 -113.5zM176 1417h146
q3 -117 88 -117q44 0 65.5 28t22.5 89h147q-3 -260 -229 -260h-13q-224 0 -227 260z" />
    <glyph glyph-name="Edotaccent" unicode="&#x116;" horiz-adv-x="798" 
d="M94 0v1393h651v-222h-421v-352h366v-221h-366v-375h421v-223h-651zM309 1495v217h221v-217h-221z" />
    <glyph glyph-name="edotaccent" unicode="&#x117;" horiz-adv-x="817" 
d="M287 444v-139q0 -77 30 -111t93 -34t91.5 33.5t28.5 111.5v29h224v-4q0 -361 -332 -361h-23q-170 0 -253 93t-83 282v334q0 379 343 379h8q340 0 340 -379v-234h-467zM287 721v-109h243v109q0 79 -29 114t-91 35q-63 0 -93 -35.5t-30 -113.5zM297 1370h227v-248h-227v248
z" />
    <glyph glyph-name="Eogonek" unicode="&#x118;" horiz-adv-x="798" 
d="M94 0v1393h651v-222h-421v-352h366v-221h-366v-375h421v-223h-651zM473 -190q0 129 113 190h159q-104 -52 -104 -135q0 -42 24.5 -61t79.5 -19v-188q-132 0 -202 56t-70 157z" />
    <glyph glyph-name="eogonek" unicode="&#x119;" horiz-adv-x="817" 
d="M287 444v-139q0 -77 30 -111t93 -34t91.5 33.5t28.5 111.5v29h224v-4q0 -183 -84 -273q-39 -39 -39 -86q0 -41 25.5 -59t82.5 -18v-187q-134 0 -203 51t-69 150q0 30 10 63q-12 -2 -55 -2h-23q-170 0 -253 93t-83 282v334q0 379 343 379h8q340 0 340 -379v-234h-467z
M287 721v-109h243v109q0 79 -29 114t-91 35q-63 0 -93 -35.5t-30 -113.5z" />
    <glyph glyph-name="Ecaron" unicode="&#x11a;" horiz-adv-x="798" 
d="M94 0v1393h651v-222h-421v-352h366v-221h-366v-375h421v-223h-651zM487 1761h181l-138 -266h-221l-137 266h178l70 -143z" />
    <glyph glyph-name="ecaron" unicode="&#x11b;" horiz-adv-x="817" 
d="M287 444v-139q0 -77 30 -111t93 -34t91.5 33.5t28.5 111.5v29h224v-4q0 -361 -332 -361h-23q-170 0 -253 93t-83 282v334q0 379 343 379h8q340 0 340 -379v-234h-467zM287 721v-109h243v109q0 79 -29 114t-91 35q-63 0 -93 -35.5t-30 -113.5zM485 1440h179l-144 -283
h-219l-143 283h176l76 -158z" />
    <glyph glyph-name="Gcircumflex" unicode="&#x11c;" horiz-adv-x="856" 
d="M76 399v594q0 428 362 428h17q344 0 344 -428v-104h-224v133q0 104 -30.5 149.5t-98.5 45.5q-69 0 -100 -45.5t-31 -149.5v-643q0 -104 31 -151.5t100 -47.5q68 0 98.5 47.5t30.5 151.5v129h-139v203h363v-312q0 -216 -83.5 -322t-256.5 -106h-25q-183 0 -270.5 105.5
t-87.5 322.5zM694 1495h-178l-67 143l-70 -143h-180l137 266h221z" />
    <glyph glyph-name="gcircumflex" unicode="&#x11d;" horiz-adv-x="835" 
d="M70 -37h223v-12q0 -59 27 -82t94 -23q65 0 91.5 31.5t26.5 104.5v114q0 35 7 203h-4q-17 -136 -75 -198t-167 -62q-225 0 -225 268v467q0 283 235 283q106 0 161.5 -61.5t67.5 -194.5h5l-2 67q-3 46 -3 123v39h226v-1007q0 -182 -82 -266.5t-256 -84.5h-17
q-175 0 -254 71.5t-79 219.5zM535 422v252q0 180 -125 180q-117 0 -117 -145v-322q0 -145 117 -145q64 0 94.5 43.5t30.5 136.5zM668 1157h-179l-75 158l-76 -158h-176l143 283h219z" />
    <glyph glyph-name="Gbreve" unicode="&#x11e;" horiz-adv-x="856" 
d="M76 399v594q0 428 362 428h17q344 0 344 -428v-104h-224v133q0 104 -30.5 149.5t-98.5 45.5q-69 0 -100 -45.5t-31 -149.5v-643q0 -104 31 -151.5t100 -47.5q68 0 98.5 47.5t30.5 151.5v129h-139v203h363v-312q0 -216 -83.5 -322t-256.5 -106h-25q-183 0 -270.5 105.5
t-87.5 322.5zM209 1745h153q1 -59 21 -84t63 -25t63 25t21 84h154q-6 -258 -231 -258h-13q-225 0 -231 258z" />
    <glyph glyph-name="gbreve" unicode="&#x11f;" horiz-adv-x="835" 
d="M70 -37h223v-12q0 -59 27 -82t94 -23q65 0 91.5 31.5t26.5 104.5v114q0 35 7 203h-4q-17 -136 -75 -198t-167 -62q-225 0 -225 268v467q0 283 235 283q106 0 161.5 -61.5t67.5 -194.5h5l-2 67q-3 46 -3 123v39h226v-1007q0 -182 -82 -266.5t-256 -84.5h-17
q-175 0 -254 71.5t-79 219.5zM535 422v252q0 180 -125 180q-117 0 -117 -145v-322q0 -145 117 -145q64 0 94.5 43.5t30.5 136.5zM180 1417h146q3 -117 88 -117q44 0 65.5 28t22.5 89h147q-3 -260 -229 -260h-12q-225 0 -228 260z" />
    <glyph glyph-name="Gdotaccent" unicode="&#x120;" horiz-adv-x="856" 
d="M76 399v594q0 428 362 428h17q344 0 344 -428v-104h-224v133q0 104 -30.5 149.5t-98.5 45.5q-69 0 -100 -45.5t-31 -149.5v-643q0 -104 31 -151.5t100 -47.5q68 0 98.5 47.5t30.5 151.5v129h-139v203h363v-312q0 -216 -83.5 -322t-256.5 -106h-25q-183 0 -270.5 105.5
t-87.5 322.5zM336 1495v217h221v-217h-221z" />
    <glyph glyph-name="gdotaccent" unicode="&#x121;" horiz-adv-x="835" 
d="M70 -37h223v-12q0 -59 27 -82t94 -23q65 0 91.5 31.5t26.5 104.5v114q0 35 7 203h-4q-17 -136 -75 -198t-167 -62q-225 0 -225 268v467q0 283 235 283q106 0 161.5 -61.5t67.5 -194.5h5l-2 67q-3 46 -3 123v39h226v-1007q0 -182 -82 -266.5t-256 -84.5h-17
q-175 0 -254 71.5t-79 219.5zM535 422v252q0 180 -125 180q-117 0 -117 -145v-322q0 -145 117 -145q64 0 94.5 43.5t30.5 136.5zM301 1370h227v-248h-227v248z" />
    <glyph glyph-name="Gcommaaccent" unicode="&#x122;" horiz-adv-x="856" 
d="M76 399v594q0 428 362 428h17q344 0 344 -428v-104h-224v133q0 104 -30.5 149.5t-98.5 45.5q-69 0 -100 -45.5t-31 -149.5v-643q0 -104 31 -151.5t100 -47.5q68 0 98.5 47.5t30.5 151.5v129h-139v203h363v-312q0 -216 -83.5 -322t-256.5 -106h-25q-183 0 -270.5 105.5
t-87.5 322.5zM258 -457l72 297h254l-138 -297h-188z" />
    <glyph glyph-name="gcommaaccent" unicode="&#x123;" horiz-adv-x="835" 
d="M291 1157l135 289h180l-71 -289h-244zM70 -37h223v-12q0 -59 27 -82t94 -23q65 0 91.5 31.5t26.5 104.5v114q0 35 7 203h-4q-17 -136 -75 -198t-167 -62q-225 0 -225 268v467q0 283 235 283q106 0 161.5 -61.5t67.5 -194.5h5l-2 67q-3 46 -3 123v39h226v-1007
q0 -182 -82 -266.5t-256 -84.5h-17q-175 0 -254 71.5t-79 219.5zM535 422v252q0 180 -125 180q-117 0 -117 -145v-322q0 -145 117 -145q64 0 94.5 43.5t30.5 136.5z" />
    <glyph glyph-name="Hcircumflex" unicode="&#x124;" horiz-adv-x="940" 
d="M610 1393h238v-1393h-238v590h-278v-590h-238v1393h238v-580h278v580zM719 1495h-178l-68 143l-70 -143h-180l137 266h222z" />
    <glyph glyph-name="hcircumflex" unicode="&#x125;" horiz-adv-x="845" 
d="M78 0v1393h225v-414l-2 -148q-2 -10 -2 -49h4q13 141 74 208t174 67q110 0 163.5 -69t53.5 -212v-776h-225v698q0 78 -25.5 115t-79.5 37q-135 0 -135 -180v-670h-225zM672 1495h-178l-68 143l-70 -143h-180l137 266h222z" />
    <glyph glyph-name="Hbar" unicode="&#x126;" horiz-adv-x="940" 
d="M940 1198v-178h-92v-1020h-238v590h-278v-590h-238v1020h-94v178h94v195h238v-195h278v195h238v-195h92zM610 813v207h-278v-207h278z" />
    <glyph glyph-name="hbar" unicode="&#x127;" horiz-adv-x="845" 
d="M768 776v-776h-225v698q0 78 -25.5 115t-79.5 37q-135 0 -135 -180v-670h-225v1104h-78v151h78v138h225v-138h248v-151h-248v-125l-2 -148q-2 -10 -2 -49h4q13 141 74 208t174 67q110 0 163.5 -69t53.5 -212z" />
    <glyph glyph-name="Itilde" unicode="&#x128;" horiz-adv-x="423" 
d="M184 1556q-14 20 -25.5 27.5t-29.5 7.5q-24 0 -33.5 -17.5t-11.5 -57.5h-109q3 221 158 221q41 0 63 -12t48 -42q24 -34 55 -34q23 0 33 17t12 58h107q-3 -221 -156 -221q-41 0 -63 12t-48 41zM332 1393v-1393h-238v1393h238z" />
    <glyph glyph-name="itilde" unicode="&#x129;" horiz-adv-x="380" 
d="M162 1202q-15 20 -25 27.5t-28 7.5q-25 0 -37 -18.5t-13 -61.5h-102q1 113 40.5 166t115.5 53q41 0 62 -12t48 -43q14 -20 24 -27.5t27 -7.5q25 0 36.5 18t11.5 60h102q-1 -113 -39 -165t-113 -52q-41 0 -64.5 13t-45.5 42zM78 1030h225v-1030h-225v1030z" />
    <glyph glyph-name="Imacron" unicode="&#x12a;" horiz-adv-x="423" 
d="M12 1536v172h404v-172h-404zM332 1393v-1393h-238v1393h238z" />
    <glyph glyph-name="imacron" unicode="&#x12b;" horiz-adv-x="380" 
d="M10 1178v163h361v-163h-361zM78 1030h225v-1030h-225v1030z" />
    <glyph glyph-name="Ibreve" unicode="&#x12c;" horiz-adv-x="423" 
d="M332 1393v-1393h-238v1393h238zM-25 1745h154q1 -59 21 -84t63 -25t63 25t21 84h154q-6 -258 -232 -258h-12q-226 0 -232 258z" />
    <glyph glyph-name="ibreve" unicode="&#x12d;" horiz-adv-x="380" 
d="M78 1030h225v-1030h-225v1030zM-43 1417h145q3 -117 88 -117q45 0 66.5 28t22.5 89h147q-3 -260 -229 -260h-13q-224 0 -227 260z" />
    <glyph glyph-name="Iogonek" unicode="&#x12e;" horiz-adv-x="423" 
d="M332 1393v-1393h-238v1393h238zM53 -190q0 129 113 190h160q-105 -52 -105 -135q0 -42 25 -61t80 -19v-188q-132 0 -202.5 56t-70.5 157z" />
    <glyph glyph-name="iogonek" unicode="&#x12f;" horiz-adv-x="380" 
d="M27 -190q0 130 112 190h160q-57 -30 -83 -61.5t-26 -73.5q0 -82 109 -82v-186q-132 0 -202 56t-70 157zM78 1370h227v-248h-227v248zM78 1030h225v-1030h-225v1030z" />
    <glyph glyph-name="Idot" unicode="&#x130;" horiz-adv-x="423" 
d="M332 1393v-1393h-238v1393h238zM102 1495v217h222v-217h-222z" />
    <glyph glyph-name="dotlessi" unicode="&#x131;" horiz-adv-x="380" 
d="M78 1030h225v-1030h-225v1030z" />
    <glyph glyph-name="Jcircumflex" unicode="&#x134;" horiz-adv-x="526" 
d="M311 1647l-78 -131h-147l125 278h211l123 -278h-154zM195 330v1063h237v-1080q0 -169 -73.5 -244t-235.5 -75q-65 0 -109 8v223q49 -6 76 -6q57 0 81 24.5t24 86.5z" />
    <glyph glyph-name="jcircumflex" unicode="&#x135;" horiz-adv-x="380" 
d="M188 1294l-84 -137h-145l129 283h207l129 -283h-154zM78 -66v1096h225v-1093q0 -147 -65.5 -206t-229.5 -59v191q42 0 56 14.5t14 56.5z" />
    <glyph glyph-name="Kcommaaccent" unicode="&#x136;" horiz-adv-x="874" 
d="M549 739l325 -739h-260l-280 639v-639h-240v1393h240v-592h2l278 592h248zM287 -457l71 297h254l-137 -297h-188z" />
    <glyph glyph-name="kcommaaccent" unicode="&#x137;" horiz-adv-x="780" 
d="M780 1030l-274 -455l274 -575h-248l-225 494h-4v-494h-225v1393h225v-766h4l232 403h241zM244 -449l71 289h244l-135 -289h-180z" />
    <glyph glyph-name="Lacute" unicode="&#x139;" horiz-adv-x="749" 
d="M332 1393v-1168h409v-225h-647v1393h238zM98 1495l211 266h277l-252 -266h-236z" />
    <glyph glyph-name="lacute" unicode="&#x13a;" horiz-adv-x="380" 
d="M78 1393h225v-1393h-225v1393zM76 1495l211 266h276l-252 -266h-235z" />
    <glyph glyph-name="Lcommaaccent" unicode="&#x13b;" horiz-adv-x="749" 
d="M332 1393v-1168h409v-225h-647v1393h238zM229 -457l72 297h254l-137 -297h-189z" />
    <glyph glyph-name="lcommaaccent" unicode="&#x13c;" horiz-adv-x="380" 
d="M78 1393h225v-1393h-225v1393zM4 -449l72 289h243l-135 -289h-180z" />
    <glyph glyph-name="Lcaron" unicode="&#x13d;" horiz-adv-x="749" 
d="M332 1393v-1168h409v-225h-647v1393h238zM487 1040v353h224l-33 -353h-191z" />
    <glyph glyph-name="lcaron" unicode="&#x13e;" horiz-adv-x="380" 
d="M78 1393h225v-1393h-225v1393zM401 1393h191l-37 -332h-154v332z" />
    <glyph glyph-name="Ldot" unicode="&#x13f;" horiz-adv-x="749" 
d="M332 1393v-1168h409v-225h-647v1393h238zM446 954h281v-286h-281v286z" />
    <glyph glyph-name="ldot" unicode="&#x140;" horiz-adv-x="794" 
d="M78 1393h225v-1393h-225v1393zM434 864h305v-325h-305v325z" />
    <glyph glyph-name="Lslash" unicode="&#x141;" horiz-adv-x="749" 
d="M332 225h409v-225h-647v670l-84 -37v194l84 37v529h238v-445l205 88v-194l-205 -88v-529z" />
    <glyph glyph-name="lslash" unicode="&#x142;" horiz-adv-x="466" 
d="M457 922v-207l-111 -47v-668h-225v590l-111 -47v209l111 47v594h225v-519z" />
    <glyph glyph-name="Nacute" unicode="&#x143;" horiz-adv-x="940" 
d="M94 0v1393h240l297 -861h6v861h211v-1393h-240l-297 862h-6v-862h-211zM356 1495l211 266h277l-252 -266h-236z" />
    <glyph glyph-name="nacute" unicode="&#x144;" horiz-adv-x="845" 
d="M78 0v1030h225v-51l-2 -148q-2 -10 -2 -49h4q13 139 74 206t174 67q110 0 163.5 -68.5t53.5 -210.5v-776h-225v698q0 78 -25.5 114t-79.5 36q-135 0 -135 -178v-670h-225zM336 1157l110 283h246l-176 -283h-180z" />
    <glyph glyph-name="Ncommaaccent" unicode="&#x145;" horiz-adv-x="940" 
d="M94 0v1393h240l297 -861h6v861h211v-1393h-240l-297 862h-6v-862h-211zM283 -457l71 297h254l-137 -297h-188z" />
    <glyph glyph-name="ncommaaccent" unicode="&#x146;" horiz-adv-x="845" 
d="M78 0v1030h225v-51l-2 -148q-2 -10 -2 -49h4q13 139 74 206t174 67q110 0 163.5 -68.5t53.5 -210.5v-776h-225v698q0 78 -25.5 114t-79.5 36q-135 0 -135 -178v-670h-225zM238 -449l71 289h244l-135 -289h-180z" />
    <glyph glyph-name="Ncaron" unicode="&#x147;" horiz-adv-x="940" 
d="M94 0v1393h240l297 -861h6v861h211v-1393h-240l-297 862h-6v-862h-211zM539 1761h180l-137 -266h-222l-137 266h178l70 -143z" />
    <glyph glyph-name="ncaron" unicode="&#x148;" horiz-adv-x="845" 
d="M78 0v1030h225v-51l-2 -148q-2 -10 -2 -49h4q13 139 74 206t174 67q110 0 163.5 -68.5t53.5 -210.5v-776h-225v698q0 78 -25.5 114t-79.5 36q-135 0 -135 -178v-670h-225zM500 1440h178l-143 -283h-220l-143 283h176l76 -158z" />
    <glyph glyph-name="napostrophe" unicode="&#x149;" horiz-adv-x="991" 
d="M-45 918v112h12q64 0 83.5 18.5t19.5 73.5h-111v242h223v-223q0 -116 -54.5 -169.5t-172.5 -53.5zM223 0v1030h226v-51l-3 -148q-2 -10 -2 -49h5q13 139 73.5 206t173.5 67q110 0 163.5 -68.5t53.5 -210.5v-776h-225v698q0 78 -25 114t-79 36q-135 0 -135 -178v-670h-226
z" />
    <glyph glyph-name="Eng" unicode="&#x14a;" horiz-adv-x="940" 
d="M496 -313v202l28 -2l21 -1.5t10 -0.5q78 0 78 66v16l-318 1211h-10v-1178h-211v1393h344l193 -729h6v729h211v-1440q0 -146 -63.5 -209t-204.5 -63q-40 0 -84 6z" />
    <glyph glyph-name="eng" unicode="&#x14b;" horiz-adv-x="845" 
d="M473 -322v191q41 0 55.5 15.5t14.5 58.5v755q0 78 -25.5 114t-79.5 36q-135 0 -135 -178v-670h-225v1030h225v-51l-2 -148q-2 -10 -2 -49h4q13 139 74 206t174 67q110 0 163.5 -68.5t53.5 -210.5v-821q0 -152 -67 -214.5t-228 -62.5z" />
    <glyph glyph-name="Omacron" unicode="&#x14c;" horiz-adv-x="905" 
d="M76 399v594q0 428 368 428h17q368 0 368 -428v-594q0 -217 -88 -322.5t-276 -105.5h-25q-185 0 -274.5 106t-89.5 322zM592 379v643q0 104 -32.5 149.5t-106.5 45.5t-107 -45.5t-33 -149.5v-643q0 -104 33.5 -151.5t106.5 -47.5t106 47t33 152zM240 1544v170h428v-170
h-428z" />
    <glyph glyph-name="omacron" unicode="&#x14d;" 
d="M63 346v334q0 379 345 379h8q340 0 340 -379v-334q0 -375 -334 -375h-23q-336 0 -336 375zM530 307v414q0 78 -28 113.5t-90 35.5q-63 0 -93 -35.5t-30 -113.5v-414q0 -77 30 -111t93 -34q62 0 90 33.5t28 111.5zM209 1217v163h403v-163h-403z" />
    <glyph glyph-name="Obreve" unicode="&#x14e;" horiz-adv-x="905" 
d="M76 399v594q0 428 368 428h17q368 0 368 -428v-594q0 -217 -88 -322.5t-276 -105.5h-25q-185 0 -274.5 106t-89.5 322zM592 379v643q0 104 -32.5 149.5t-106.5 45.5t-107 -45.5t-33 -149.5v-643q0 -104 33.5 -151.5t106.5 -47.5t106 47t33 152zM215 1745h154
q1 -59 21 -84t63 -25t63 25t21 84h153q-6 -258 -231 -258h-13q-225 0 -231 258z" />
    <glyph glyph-name="obreve" unicode="&#x14f;" 
d="M63 346v334q0 379 345 379h8q340 0 340 -379v-334q0 -375 -334 -375h-23q-336 0 -336 375zM530 307v414q0 78 -28 113.5t-90 35.5q-63 0 -93 -35.5t-30 -113.5v-414q0 -77 30 -111t93 -34q62 0 90 33.5t28 111.5zM176 1417h146q3 -117 88 -117q44 0 65.5 28t22.5 89h147
q-3 -260 -229 -260h-13q-224 0 -227 260z" />
    <glyph glyph-name="Ohungarumlaut" unicode="&#x150;" horiz-adv-x="905" 
d="M76 399v594q0 428 368 428h17q368 0 368 -428v-594q0 -217 -88 -322.5t-276 -105.5h-25q-185 0 -274.5 106t-89.5 322zM592 379v643q0 104 -32.5 149.5t-106.5 45.5t-107 -45.5t-33 -149.5v-643q0 -104 33.5 -151.5t106.5 -47.5t106 47t33 152zM211 1495l98 266h236
l-158 -266h-176zM514 1495l98 266h236l-158 -266h-176z" />
    <glyph glyph-name="ohungarumlaut" unicode="&#x151;" 
d="M63 346v334q0 379 345 379h8q340 0 340 -379v-334q0 -375 -334 -375h-23q-336 0 -336 375zM530 307v414q0 78 -28 113.5t-90 35.5q-63 0 -93 -35.5t-30 -113.5v-414q0 -77 30 -111t93 -34q62 0 90 33.5t28 111.5zM184 1157l99 283h219l-152 -283h-166zM465 1157l98 283
h219l-151 -283h-166z" />
    <glyph glyph-name="OE" unicode="&#x152;" horiz-adv-x="1150" 
d="M61 451v479q0 247 93.5 355t312.5 108h637v-222h-328v-352h285v-221h-285v-375h328v-223h-651q-206 0 -299 107.5t-93 343.5zM473 223h76v948h-76q-98 0 -136 -50t-38 -179v-483q0 -137 36.5 -186.5t137.5 -49.5z" />
    <glyph glyph-name="oe" unicode="&#x153;" horiz-adv-x="1273" 
d="M748 444v-139q0 -77 29 -111t91 -34t90.5 33.5t28.5 111.5v29h223v-4q0 -361 -325 -361h-23q-150 0 -223 101q-73 -99 -225 -99h-23q-328 0 -328 375v334q0 379 340 379h9q150 0 227 -103q76 101 229 101h9q333 0 333 -379v-234h-462zM526 307v414q0 78 -28 113.5
t-88 35.5q-62 0 -91.5 -36t-29.5 -113v-414q0 -77 29.5 -111t91.5 -34q61 0 88.5 34t27.5 111zM748 721v-109h239v109q0 78 -28.5 113.5t-90.5 35.5t-91 -35.5t-29 -113.5z" />
    <glyph glyph-name="Racute" unicode="&#x154;" horiz-adv-x="882" 
d="M840 0h-244l-147 553h-119v-553h-236v1393h330q212 0 309.5 -101t97.5 -313q3 -272 -157 -377zM330 768h84q98 0 137 45t39 158q0 115 -39 160t-137 45h-84v-408zM338 1495l211 266h276l-252 -266h-235z" />
    <glyph glyph-name="racute" unicode="&#x155;" horiz-adv-x="772" 
d="M78 0v1030h225v-45q0 -83 -4 -219h4q18 289 227 289q104 0 153.5 -68t49.5 -211v-192h-225v118q0 77 -21 110.5t-69 33.5q-115 0 -115 -205v-641h-225zM305 1157l111 283h246l-177 -283h-180z" />
    <glyph glyph-name="Rcommaaccent" unicode="&#x156;" horiz-adv-x="882" 
d="M840 0h-244l-147 553h-119v-553h-236v1393h330q212 0 309.5 -101t97.5 -313q3 -272 -157 -377zM330 768h84q98 0 137 45t39 158q0 115 -39 160t-137 45h-84v-408zM279 -457l71 297h254l-137 -297h-188z" />
    <glyph glyph-name="rcommaaccent" unicode="&#x157;" horiz-adv-x="772" 
d="M78 0v1030h225v-45q0 -83 -4 -219h4q18 289 227 289q104 0 153.5 -68t49.5 -211v-192h-225v118q0 77 -21 110.5t-69 33.5q-115 0 -115 -205v-641h-225zM4 -449l72 289h243l-135 -289h-180z" />
    <glyph glyph-name="Rcaron" unicode="&#x158;" horiz-adv-x="882" 
d="M840 0h-244l-147 553h-119v-553h-236v1393h330q212 0 309.5 -101t97.5 -313q3 -272 -157 -377zM330 768h84q98 0 137 45t39 158q0 115 -39 160t-137 45h-84v-408zM520 1761h180l-137 -266h-221l-137 266h178l70 -143z" />
    <glyph glyph-name="rcaron" unicode="&#x159;" horiz-adv-x="772" 
d="M78 0v1030h225v-45q0 -83 -4 -219h4q18 289 227 289q104 0 153.5 -68t49.5 -211v-192h-225v118q0 77 -21 110.5t-69 33.5q-115 0 -115 -205v-641h-225zM469 1440h178l-143 -283h-219l-144 283h176l76 -158z" />
    <glyph glyph-name="Sacute" unicode="&#x15a;" horiz-adv-x="806" 
d="M43 385v64h238v-84q0 -107 29.5 -149t99.5 -42q72 0 96 35.5t24 136.5q-6 94 -18 121q-16 35 -75 78q-21 15 -105 71q-71 45 -109.5 73t-76.5 65.5t-56 76.5t-29.5 92.5t-13.5 127.5q0 370 350 370h17q348 0 348 -413v-52h-238v68q0 111 -28.5 155t-98.5 44
q-64 0 -92.5 -35.5t-28.5 -116.5q3 -36 6 -58t13.5 -45.5t20 -36.5t36.5 -35t50 -38t73 -49q112 -67 172 -121q59 -49 88 -124.5t29 -196.5q0 -206 -82.5 -301t-265.5 -95h-25q-182 0 -265 100.5t-83 313.5zM285 1495l211 266h276l-252 -266h-235z" />
    <glyph glyph-name="sacute" unicode="&#x15b;" horiz-adv-x="751" 
d="M43 305v27h223v-47q0 -73 25 -102t88 -29q61 0 84.5 25t23.5 87q-5 63 -16 81q-14 23 -78 53q-15 7 -69 32q-80 35 -126.5 61.5t-83 64t-51 85.5t-14.5 117q0 299 320 299h6q170 0 250 -80.5t80 -251.5v-22h-224v36q0 76 -24.5 107t-85.5 31q-57 0 -81 -23.5t-24 -77.5
q0 -65 26.5 -91t133.5 -71q112 -48 162 -81q119 -69 119 -254q0 -156 -78.5 -233t-243.5 -77h-20q-322 0 -322 334zM289 1157l110 283h246l-176 -283h-180z" />
    <glyph glyph-name="Scircumflex" unicode="&#x15c;" horiz-adv-x="806" 
d="M43 385v64h238v-84q0 -107 29.5 -149t99.5 -42q72 0 96 35.5t24 136.5q-6 94 -18 121q-16 35 -75 78q-21 15 -105 71q-71 45 -109.5 73t-76.5 65.5t-56 76.5t-29.5 92.5t-13.5 127.5q0 370 350 370h17q348 0 348 -413v-52h-238v68q0 111 -28.5 155t-98.5 44
q-64 0 -92.5 -35.5t-28.5 -116.5q3 -36 6 -58t13.5 -45.5t20 -36.5t36.5 -35t50 -38t73 -49q112 -67 172 -121q59 -49 88 -124.5t29 -196.5q0 -206 -82.5 -301t-265.5 -95h-25q-182 0 -265 100.5t-83 313.5zM647 1495h-178l-68 143l-69 -143h-180l137 266h221z" />
    <glyph glyph-name="scircumflex" unicode="&#x15d;" horiz-adv-x="751" 
d="M43 305v27h223v-47q0 -73 25 -102t88 -29q61 0 84.5 25t23.5 87q-5 63 -16 81q-14 23 -78 53q-15 7 -69 32q-80 35 -126.5 61.5t-83 64t-51 85.5t-14.5 117q0 299 320 299h6q170 0 250 -80.5t80 -251.5v-22h-224v36q0 76 -24.5 107t-85.5 31q-57 0 -81 -23.5t-24 -77.5
q0 -65 26.5 -91t133.5 -71q112 -48 162 -81q119 -69 119 -254q0 -156 -78.5 -233t-243.5 -77h-20q-322 0 -322 334zM631 1157h-178l-76 158l-76 -158h-176l143 283h219z" />
    <glyph glyph-name="Scedilla" unicode="&#x15e;" horiz-adv-x="806" 
d="M43 385v64h238v-84q0 -107 29.5 -149t99.5 -42q72 0 96 35.5t24 136.5q-6 94 -18 121q-16 35 -75 78q-21 15 -105 71q-71 45 -109.5 73t-76.5 65.5t-56 76.5t-29.5 92.5t-13.5 127.5q0 370 350 370h17q348 0 348 -413v-52h-238v68q0 111 -28.5 155t-98.5 44
q-64 0 -92.5 -35.5t-28.5 -116.5q3 -36 6 -58t13.5 -45.5t20 -36.5t36.5 -35t50 -38t73 -49q112 -67 172 -121q59 -49 88 -124.5t29 -196.5q0 -206 -82.5 -301t-265.5 -95h-25q-182 0 -265 100.5t-83 313.5zM604 -242q0 -87 -59 -129.5t-187 -42.5q-61 0 -141 13v143
q66 -14 131 -14q56 0 75 8.5t19 34.5q0 27 -26 37t-111 16l57 209h138l-37 -125q74 -11 107.5 -46t33.5 -104z" />
    <glyph glyph-name="scedilla" unicode="&#x15f;" horiz-adv-x="751" 
d="M43 305v27h223v-47q0 -73 25 -102t88 -29q61 0 84.5 25t23.5 87q-5 63 -16 81q-14 23 -78 53q-15 7 -69 32q-80 35 -126.5 61.5t-83 64t-51 85.5t-14.5 117q0 299 320 299h6q170 0 250 -80.5t80 -251.5v-22h-224v36q0 76 -24.5 107t-85.5 31q-57 0 -81 -23.5t-24 -77.5
q0 -65 26.5 -91t133.5 -71q112 -48 162 -81q119 -69 119 -254q0 -156 -78.5 -233t-243.5 -77h-20q-322 0 -322 334zM571 -242q0 -86 -57.5 -126t-185.5 -40q-62 0 -142 13v133q66 -14 131 -14q56 0 76.5 10t20.5 39t-26 38.5t-112 14.5l58 207h135l-35 -127
q70 -11 103.5 -46t33.5 -102z" />
    <glyph glyph-name="Scaron" unicode="&#x160;" horiz-adv-x="806" 
d="M43 385v64h238v-84q0 -107 29.5 -149t99.5 -42q72 0 96 35.5t24 136.5q-6 94 -18 121q-16 35 -75 78q-21 15 -105 71q-71 45 -109.5 73t-76.5 65.5t-56 76.5t-29.5 92.5t-13.5 127.5q0 370 350 370h17q348 0 348 -413v-52h-238v68q0 111 -28.5 155t-98.5 44
q-64 0 -92.5 -35.5t-28.5 -116.5q3 -36 6 -58t13.5 -45.5t20 -36.5t36.5 -35t50 -38t73 -49q112 -67 172 -121q59 -49 88 -124.5t29 -196.5q0 -206 -82.5 -301t-265.5 -95h-25q-182 0 -265 100.5t-83 313.5zM467 1761h180l-137 -266h-221l-137 266h178l69 -143z" />
    <glyph glyph-name="scaron" unicode="&#x161;" horiz-adv-x="751" 
d="M43 305v27h223v-47q0 -73 25 -102t88 -29q61 0 84.5 25t23.5 87q-5 63 -16 81q-14 23 -78 53q-15 7 -69 32q-80 35 -126.5 61.5t-83 64t-51 85.5t-14.5 117q0 299 320 299h6q170 0 250 -80.5t80 -251.5v-22h-224v36q0 76 -24.5 107t-85.5 31q-57 0 -81 -23.5t-24 -77.5
q0 -65 26.5 -91t133.5 -71q112 -48 162 -81q119 -69 119 -254q0 -156 -78.5 -233t-243.5 -77h-20q-322 0 -322 334zM453 1440h178l-144 -283h-219l-143 283h176l76 -158z" />
    <glyph glyph-name="uni0162" unicode="&#x162;" horiz-adv-x="759" 
d="M262 0v1169h-246v224h727v-224h-243v-1169h-238zM580 -242q0 -87 -59 -129.5t-187 -42.5q-61 0 -141 13v143q66 -14 131 -14q56 0 75 8.5t19 34.5q0 27 -26 37t-111 16l57 209h137l-37 -125q74 -11 108 -46t34 -104z" />
    <glyph glyph-name="uni0163" unicode="&#x163;" horiz-adv-x="655" 
d="M608 836h-202v-523q0 -61 29.5 -85.5t99.5 -24.5q55 0 73 2v-209q-23 -2 -88 -2q-186 0 -263 70.5t-77 228.5v543h-153v194h153v262h226v-262h202v-194zM592 -242q0 -86 -58 -126t-186 -40q-61 0 -141 13v133q66 -14 131 -14q56 0 76 10t20 39t-25.5 38.5t-111.5 14.5
l57 207h135l-34 -127q70 -11 103.5 -46t33.5 -102z" />
    <glyph glyph-name="Tcaron" unicode="&#x164;" horiz-adv-x="759" 
d="M262 0v1169h-246v224h727v-224h-243v-1169h-238zM449 1761h180l-137 -266h-222l-137 266h178l70 -143z" />
    <glyph glyph-name="tcaron" unicode="&#x165;" horiz-adv-x="655" 
d="M530 1393h191l-37 -332h-154v332zM406 1292v-262h202v-194h-202v-523q0 -61 29.5 -85.5t99.5 -24.5q55 0 73 2v-209q-23 -2 -88 -2q-186 0 -263 70.5t-77 228.5v543h-153v194h153v262h226z" />
    <glyph glyph-name="Tbar" unicode="&#x166;" horiz-adv-x="759" 
d="M743 1169h-243v-452h192v-176h-192v-541h-238v541h-192v176h192v452h-246v224h727v-224z" />
    <glyph glyph-name="tbar" unicode="&#x167;" horiz-adv-x="655" 
d="M608 836h-202v-222h182v-182h-182v-119q0 -63 25 -86.5t93 -23.5q38 0 84 4v-207q-58 -4 -106 -4q-181 0 -251.5 66t-70.5 231v139h-153v182h153v222h-153v194h153v262h226v-262h202v-194z" />
    <glyph glyph-name="Utilde" unicode="&#x168;" horiz-adv-x="903" 
d="M82 399v994h237v-1016q0 -104 34 -151.5t108 -47.5q73 0 105 47t32 152v1016h223v-996q0 -217 -85 -321.5t-267 -104.5h-25q-185 0 -273.5 106t-88.5 322zM424 1538q-23 33 -55 33q-25 0 -37 -17.5t-13 -58.5h-131q3 236 181 236q49 0 75.5 -13.5t55.5 -44.5
q23 -33 53 -33q24 0 35 17t16 59h131q-3 -235 -178 -235q-51 0 -78 12.5t-55 44.5z" />
    <glyph glyph-name="utilde" unicode="&#x169;" horiz-adv-x="839" 
d="M78 256v774h225v-700q0 -146 103 -146q63 0 97 45t34 131v670h225v-1030h-225v51l2 146q2 10 2 53h-4q-12 -140 -72.5 -206.5t-171.5 -66.5q-215 0 -215 279zM379 1214q-14 20 -23.5 26.5t-27.5 6.5q-26 0 -37.5 -18t-11.5 -62h-132q3 240 185 240q53 0 81.5 -14.5
t49.5 -44.5q14 -20 23.5 -26.5t27.5 -6.5q26 0 36.5 17.5t10.5 60.5h131q-2 -122 -45.5 -180t-134.5 -58q-53 0 -80 13.5t-53 45.5z" />
    <glyph glyph-name="Umacron" unicode="&#x16a;" horiz-adv-x="903" 
d="M82 399v994h237v-1016q0 -104 34 -151.5t108 -47.5q73 0 105 47t32 152v1016h223v-996q0 -217 -85 -321.5t-267 -104.5h-25q-185 0 -273.5 106t-88.5 322zM246 1544v170h428v-170h-428z" />
    <glyph glyph-name="umacron" unicode="&#x16b;" horiz-adv-x="839" 
d="M78 256v774h225v-700q0 -146 103 -146q63 0 97 45t34 131v670h225v-1030h-225v51l2 146q2 10 2 53h-4q-12 -140 -72.5 -206.5t-171.5 -66.5q-215 0 -215 279zM219 1217v163h404v-163h-404z" />
    <glyph glyph-name="Ubreve" unicode="&#x16c;" horiz-adv-x="903" 
d="M82 399v994h237v-1016q0 -104 34 -151.5t108 -47.5q73 0 105 47t32 152v1016h223v-996q0 -217 -85 -321.5t-267 -104.5h-25q-185 0 -273.5 106t-88.5 322zM221 1745h154q1 -59 21 -84t63 -25t63 25t21 84h153q-6 -258 -231 -258h-12q-226 0 -232 258z" />
    <glyph glyph-name="ubreve" unicode="&#x16d;" horiz-adv-x="839" 
d="M78 256v774h225v-700q0 -146 103 -146q63 0 97 45t34 131v670h225v-1030h-225v51l2 146q2 10 2 53h-4q-12 -140 -72.5 -206.5t-171.5 -66.5q-215 0 -215 279zM186 1417h146q3 -117 88 -117q44 0 65.5 28t22.5 89h147q-3 -260 -229 -260h-12q-225 0 -228 260z" />
    <glyph glyph-name="Uring" unicode="&#x16e;" horiz-adv-x="903" 
d="M82 399v994h237v-1016q0 -104 34 -151.5t108 -47.5q73 0 105 47t32 152v1016h223v-996q0 -217 -85 -321.5t-267 -104.5h-25q-185 0 -273.5 106t-88.5 322zM260 1642v25q0 81 54 130.5t139 49.5h12q85 0 138.5 -49.5t53.5 -130.5v-25q0 -79 -53.5 -128.5t-138.5 -49.5h-12
q-85 0 -139 49.5t-54 128.5zM535 1647v16q0 35 -19.5 54.5t-56.5 19.5q-35 0 -54.5 -19.5t-19.5 -54.5v-16q0 -35 19.5 -54.5t54.5 -19.5q37 0 56.5 19.5t19.5 54.5z" />
    <glyph glyph-name="uring" unicode="&#x16f;" horiz-adv-x="839" 
d="M78 256v774h225v-700q0 -146 103 -146q63 0 97 45t34 131v670h225v-1030h-225v51l2 146q2 10 2 53h-4q-12 -140 -72.5 -206.5t-171.5 -66.5q-215 0 -215 279zM227 1284v25q0 79 52.5 128.5t134.5 49.5h12q85 0 135.5 -48t50.5 -130v-25q0 -80 -50.5 -128t-135.5 -48h-12
q-82 0 -134.5 48.5t-52.5 127.5zM489 1288v17q0 73 -69 73q-70 0 -70 -73v-17q0 -71 70 -71q69 0 69 71z" />
    <glyph glyph-name="Uhungarumlaut" unicode="&#x170;" horiz-adv-x="903" 
d="M82 399v994h237v-1016q0 -104 34 -151.5t108 -47.5q73 0 105 47t32 152v1016h223v-996q0 -217 -85 -321.5t-267 -104.5h-25q-185 0 -273.5 106t-88.5 322zM217 1495l98 266h236l-158 -266h-176zM520 1495l98 266h236l-158 -266h-176z" />
    <glyph glyph-name="uhungarumlaut" unicode="&#x171;" horiz-adv-x="839" 
d="M78 256v774h225v-700q0 -146 103 -146q63 0 97 45t34 131v670h225v-1030h-225v51l2 146q2 10 2 53h-4q-12 -140 -72.5 -206.5t-171.5 -66.5q-215 0 -215 279zM195 1157l98 283h219l-152 -283h-165zM475 1157l98 283h220l-152 -283h-166z" />
    <glyph glyph-name="Uogonek" unicode="&#x172;" horiz-adv-x="903" 
d="M305 -199q0 116 105 170v4q-328 15 -328 426v992h237v-1014q0 -104 34 -151.5t108 -47.5q73 0 105 47t32 152v1014h223v-994q0 -174 -54.5 -275.5t-170.5 -133.5q-65 -20 -94 -49.5t-29 -71.5q0 -74 107 -74v-188q-275 0 -275 194z" />
    <glyph glyph-name="uogonek" unicode="&#x173;" horiz-adv-x="839" 
d="M78 256v774h225v-700q0 -146 103 -146q63 0 97 45t34 131v670h225v-1030h-225v51l2 146q2 10 2 53h-4q-12 -140 -72.5 -206.5t-171.5 -66.5q-215 0 -215 279zM489 -190q0 129 113 190h160q-57 -30 -83 -61.5t-26 -73.5q0 -82 109 -82v-186q-132 0 -202.5 56t-70.5 157z
" />
    <glyph glyph-name="Wcircumflex" unicode="&#x174;" horiz-adv-x="1218" 
d="M186 0l-178 1393h240l117 -1082h2l131 1082h239l129 -1082h4l123 1082h219l-178 -1393h-315l-111 981h-4l-112 -981h-306zM856 1495h-178l-68 143l-69 -143h-181l138 266h221z" />
    <glyph glyph-name="wcircumflex" unicode="&#x175;" horiz-adv-x="1120" 
d="M909 1030h211l-159 -1030h-304l-100 705l-102 -705h-293l-162 1030h225l113 -803l117 803h225l117 -803zM815 1157h-178l-76 158l-76 -158h-176l144 283h219z" />
    <glyph glyph-name="Ycircumflex" unicode="&#x176;" horiz-adv-x="823" 
d="M823 1393l-291 -875v-518h-239v510l-293 883h250l164 -584h8l168 584h233zM666 1495h-179l-67 143l-70 -143h-180l137 266h221z" />
    <glyph glyph-name="ycircumflex" unicode="&#x177;" horiz-adv-x="716" 
d="M498 1030h219l-318 -1337h-217l74 291l-256 1046h231l129 -663h7zM612 1157h-178l-76 158l-75 -158h-177l144 283h219z" />
    <glyph glyph-name="Ydieresis" unicode="&#x178;" horiz-adv-x="823" 
d="M823 1393l-291 -875v-518h-239v510l-293 883h250l164 -584h8l168 584h233zM154 1495v223h217v-223h-217zM465 1495v223h217v-223h-217z" />
    <glyph glyph-name="Zacute" unicode="&#x179;" horiz-adv-x="825" 
d="M51 0v193l447 978v7h-443v215h715v-189l-446 -977v-6h450v-221h-723zM299 1495l211 266h276l-251 -266h-236z" />
    <glyph glyph-name="zacute" unicode="&#x17a;" horiz-adv-x="718" 
d="M297 193h383v-193h-641v166l379 672h-369v192h629v-162zM279 1157l110 283h246l-176 -283h-180z" />
    <glyph glyph-name="Zdotaccent" unicode="&#x17b;" horiz-adv-x="825" 
d="M51 0v193l447 978v7h-443v215h715v-189l-446 -977v-6h450v-221h-723zM303 1495v217h221v-217h-221z" />
    <glyph glyph-name="zdotaccent" unicode="&#x17c;" horiz-adv-x="718" 
d="M297 193h383v-193h-641v166l379 672h-369v192h629v-162zM254 1370h227v-248h-227v248z" />
    <glyph glyph-name="Zcaron" unicode="&#x17d;" horiz-adv-x="825" 
d="M51 0v193l447 978v7h-443v215h715v-189l-446 -977v-6h450v-221h-723zM481 1761h181l-138 -266h-221l-137 266h178l70 -143z" />
    <glyph glyph-name="zcaron" unicode="&#x17e;" horiz-adv-x="718" 
d="M297 193h383v-193h-641v166l379 672h-369v192h629v-162zM442 1440h179l-144 -283h-219l-143 283h176l76 -158z" />
    <glyph glyph-name="uni018F" unicode="&#x18f;" horiz-adv-x="905" 
d="M829 993v-594q0 -217 -88 -322.5t-276 -105.5h-25q-185 0 -274.5 106t-89.5 322v392h516v231q0 104 -32.5 149.5t-106.5 45.5t-107 -45.5t-33 -149.5v-86h-237v57q0 428 368 428h17q368 0 368 -428zM592 379v190h-279v-190q0 -104 33.5 -151.5t106.5 -47.5t106 47t33 152
z" />
    <glyph glyph-name="florin" unicode="&#x192;" horiz-adv-x="813" 
d="M571 1098l-12 -68h180l-39 -194h-180l-164 -854q-32 -164 -118.5 -232.5t-257.5 -68.5q-50 0 -68 2l39 196q12 -2 51 -2q60 0 88.5 24t40.5 85l166 850h-141l37 194h141l14 72q32 167 124.5 239t272.5 72q50 0 68 -2l-39 -197q-18 3 -49 3q-72 0 -106 -26.5t-48 -92.5z
" />
    <glyph glyph-name="uni019D" unicode="&#x19d;" horiz-adv-x="940" 
d="M-49 -276v198q36 -4 69 -4q39 0 56.5 17.5t17.5 60.5v1397h240l297 -861h6v861h211v-1393h-240l-297 862h-6v-880q0 -140 -61 -202.5t-197 -62.5q-38 0 -96 7z" />
    <glyph glyph-name="Ohorn" unicode="&#x1a0;" horiz-adv-x="905" 
d="M76 399v594q0 428 368 428h17q368 0 368 -428v-594q0 -217 -88 -322.5t-276 -105.5h-25q-185 0 -274.5 106t-89.5 322zM592 379v643q0 104 -32.5 149.5t-106.5 45.5t-107 -45.5t-33 -149.5v-643q0 -104 33.5 -151.5t106.5 -47.5t106 47t33 152zM678 1249l-137 144
q89 0 128.5 32t39.5 101q0 40 -17 106h205q12 -59 12 -106q0 -124 -61 -197.5t-170 -79.5z" />
    <glyph glyph-name="ohorn" unicode="&#x1a1;" 
d="M63 346v334q0 379 345 379h8q340 0 340 -379v-334q0 -375 -334 -375h-23q-336 0 -336 375zM530 307v414q0 78 -28 113.5t-90 35.5q-63 0 -93 -35.5t-30 -113.5v-414q0 -77 30 -111t93 -34q62 0 90 33.5t28 111.5zM614 887l-137 143q89 0 128.5 32t39.5 101q0 45 -16 107
h205q12 -58 12 -107q0 -124 -61.5 -197t-170.5 -79z" />
    <glyph glyph-name="Uhorn" unicode="&#x1af;" horiz-adv-x="903" 
d="M82 399v994h237v-1016q0 -104 34 -151.5t108 -47.5q73 0 105 47t32 152v1016h223v-996q0 -217 -85 -321.5t-267 -104.5h-25q-185 0 -273.5 106t-88.5 322zM735 1249l-137 144q89 0 128.5 32t39.5 101q0 44 -16 106h204q13 -63 13 -106q0 -124 -61.5 -197.5t-170.5 -79.5z
" />
    <glyph glyph-name="uhorn" unicode="&#x1b0;" horiz-adv-x="839" 
d="M78 256v774h225v-700q0 -146 103 -146q63 0 97 45t34 131v670h225v-1030h-225v51l2 146q2 10 2 53h-4q-12 -140 -72.5 -206.5t-171.5 -66.5q-215 0 -215 279zM676 887l-137 143q89 0 128.5 32t39.5 101q0 41 -17 107h205q12 -58 12 -107q0 -124 -61 -197t-170 -79z" />
    <glyph glyph-name="uni01CD" unicode="&#x1cd;" horiz-adv-x="821" 
d="M584 0l-47 305h-267l-47 -305h-223l242 1397h340l239 -1397h-237zM408 1223h-11l-98 -707h211zM471 1761h180l-137 -266h-221l-137 266h178l69 -143z" />
    <glyph glyph-name="uni01CE" unicode="&#x1ce;" 
d="M41 262q0 185 89 267.5t296 82.5h90v113q0 79 -24 112t-84 33q-62 0 -88.5 -32.5t-26.5 -110.5v-16h-221q0 178 79.5 263t251.5 85h11q173 0 250 -84t77 -273v-702h-225v35q0 59 6 203h-4q-13 -134 -71.5 -196t-165.5 -62q-117 0 -178.5 70.5t-61.5 211.5zM520 360v99
h-74q-91 0 -133.5 -36t-42.5 -110v-18q0 -117 115 -117q70 0 102.5 43t32.5 139zM481 1440h178l-143 -283h-219l-143 283h176l76 -158z" />
    <glyph glyph-name="uni01CF" unicode="&#x1cf;" horiz-adv-x="423" 
d="M319 1516h-210l-125 278h147l78 -131l80 131h153zM94 0v1393h238v-1393h-238z" />
    <glyph glyph-name="uni01D0" unicode="&#x1d0;" horiz-adv-x="380" 
d="M301 1157h-219l-143 283h176l75 -158l76 158h178zM78 0v1030h225v-1030h-225z" />
    <glyph glyph-name="uni01D1" unicode="&#x1d1;" horiz-adv-x="905" 
d="M76 399v594q0 428 368 428h17q368 0 368 -428v-594q0 -217 -88 -322.5t-276 -105.5h-25q-185 0 -274.5 106t-89.5 322zM592 379v643q0 104 -32.5 149.5t-106.5 45.5t-107 -45.5t-33 -149.5v-643q0 -104 33.5 -151.5t106.5 -47.5t106 47t33 152zM520 1761h180l-137 -266
h-221l-137 266h178l70 -143z" />
    <glyph glyph-name="uni01D2" unicode="&#x1d2;" 
d="M63 346v334q0 379 345 379h8q340 0 340 -379v-334q0 -375 -334 -375h-23q-336 0 -336 375zM530 307v414q0 78 -28 113.5t-90 35.5q-63 0 -93 -35.5t-30 -113.5v-414q0 -77 30 -111t93 -34q62 0 90 33.5t28 111.5zM485 1440h179l-144 -283h-219l-143 283h176l76 -158z" />
    <glyph glyph-name="uni01D3" unicode="&#x1d3;" horiz-adv-x="903" 
d="M82 399v994h237v-1016q0 -104 34 -151.5t108 -47.5q73 0 105 47t32 152v1016h223v-996q0 -217 -85 -321.5t-267 -104.5h-25q-185 0 -273.5 106t-88.5 322zM526 1761h181l-138 -266h-221l-137 266h178l70 -143z" />
    <glyph glyph-name="uni01D4" unicode="&#x1d4;" horiz-adv-x="839" 
d="M78 256v774h225v-700q0 -146 103 -146q63 0 97 45t34 131v670h225v-1030h-225v51l2 146q2 10 2 53h-4q-12 -140 -72.5 -206.5t-171.5 -66.5q-215 0 -215 279zM496 1440h178l-144 -283h-219l-143 283h176l76 -158z" />
    <glyph glyph-name="uni01D5" unicode="&#x1d5;" horiz-adv-x="903" 
d="M82 399v994h237v-1016q0 -104 34 -151.5t108 -47.5q73 0 105 47t32 152v1016h223v-996q0 -217 -85 -321.5t-267 -104.5h-25q-185 0 -273.5 106t-88.5 322zM195 1495v223h217v-223h-217zM506 1495v223h217v-223h-217zM246 1890v170h428v-170h-428z" />
    <glyph glyph-name="uni01D6" unicode="&#x1d6;" horiz-adv-x="839" 
d="M78 256v774h225v-700q0 -146 103 -146q63 0 97 45t34 131v670h225v-1030h-225v51l2 146q2 10 2 53h-4q-12 -140 -72.5 -206.5t-171.5 -66.5q-215 0 -215 279zM168 1157v217h209v-217h-209zM463 1157v217h209v-217h-209zM219 1518v163h404v-163h-404z" />
    <glyph glyph-name="uni01D7" unicode="&#x1d7;" horiz-adv-x="903" 
d="M82 399v994h237v-1016q0 -104 34 -151.5t108 -47.5q73 0 105 47t32 152v1016h223v-996q0 -217 -85 -321.5t-267 -104.5h-25q-185 0 -273.5 106t-88.5 322zM195 1495v223h217v-223h-217zM506 1495v223h217v-223h-217zM344 1841l211 266h276l-251 -266h-236z" />
    <glyph glyph-name="uni01D8" unicode="&#x1d8;" horiz-adv-x="839" 
d="M78 256v774h225v-700q0 -146 103 -146q63 0 97 45t34 131v670h225v-1030h-225v51l2 146q2 10 2 53h-4q-12 -140 -72.5 -206.5t-171.5 -66.5q-215 0 -215 279zM168 1157v217h209v-217h-209zM463 1157v217h209v-217h-209zM332 1458l110 283h246l-176 -283h-180z" />
    <glyph glyph-name="uni01D9" unicode="&#x1d9;" horiz-adv-x="903" 
d="M82 399v994h237v-1016q0 -104 34 -151.5t108 -47.5q73 0 105 47t32 152v1016h223v-996q0 -217 -85 -321.5t-267 -104.5h-25q-185 0 -273.5 106t-88.5 322zM195 1495v223h217v-223h-217zM506 1495v223h217v-223h-217zM526 2107h181l-138 -266h-221l-137 266h178l70 -143z
" />
    <glyph glyph-name="uni01DA" unicode="&#x1da;" horiz-adv-x="839" 
d="M78 256v774h225v-700q0 -146 103 -146q63 0 97 45t34 131v670h225v-1030h-225v51l2 146q2 10 2 53h-4q-12 -140 -72.5 -206.5t-171.5 -66.5q-215 0 -215 279zM168 1157v217h209v-217h-209zM463 1157v217h209v-217h-209zM496 1741h178l-144 -283h-219l-143 283h176
l76 -158z" />
    <glyph glyph-name="uni01DB" unicode="&#x1db;" horiz-adv-x="903" 
d="M82 399v994h237v-1016q0 -104 34 -151.5t108 -47.5q73 0 105 47t32 152v1016h223v-996q0 -217 -85 -321.5t-267 -104.5h-25q-185 0 -273.5 106t-88.5 322zM195 1495v223h217v-223h-217zM506 1495v223h217v-223h-217zM573 1841h-235l-252 266h276z" />
    <glyph glyph-name="uni01DC" unicode="&#x1dc;" horiz-adv-x="839" 
d="M78 256v774h225v-700q0 -146 103 -146q63 0 97 45t34 131v670h225v-1030h-225v51l2 146q2 10 2 53h-4q-12 -140 -72.5 -206.5t-171.5 -66.5q-215 0 -215 279zM168 1157v217h209v-217h-209zM463 1157v217h209v-217h-209zM508 1458h-180l-176 283h245z" />
    <glyph glyph-name="Gcaron" unicode="&#x1e6;" horiz-adv-x="856" 
d="M76 399v594q0 428 362 428h17q344 0 344 -428v-104h-224v133q0 104 -30.5 149.5t-98.5 45.5q-69 0 -100 -45.5t-31 -149.5v-643q0 -104 31 -151.5t100 -47.5q68 0 98.5 47.5t30.5 151.5v129h-139v203h363v-312q0 -216 -83.5 -322t-256.5 -106h-25q-183 0 -270.5 105.5
t-87.5 322.5zM514 1761h180l-137 -266h-221l-137 266h178l69 -143z" />
    <glyph glyph-name="gcaron" unicode="&#x1e7;" horiz-adv-x="835" 
d="M70 -37h223v-12q0 -59 27 -82t94 -23q65 0 91.5 31.5t26.5 104.5v114q0 35 7 203h-4q-17 -136 -75 -198t-167 -62q-225 0 -225 268v467q0 283 235 283q106 0 161.5 -61.5t67.5 -194.5h5l-2 67q-3 46 -3 123v39h226v-1007q0 -182 -82 -266.5t-256 -84.5h-17
q-175 0 -254 71.5t-79 219.5zM535 422v252q0 180 -125 180q-117 0 -117 -145v-322q0 -145 117 -145q64 0 94.5 43.5t30.5 136.5zM489 1440h179l-144 -283h-219l-143 283h176l76 -158z" />
    <glyph glyph-name="uni01EA" unicode="&#x1ea;" horiz-adv-x="905" 
d="M829 993v-594q0 -174 -58.5 -276t-180.5 -137q-65 -20 -94 -48.5t-29 -70.5q0 -74 106 -74v-188q-274 0 -274 194q0 116 104 174q-166 7 -246.5 113.5t-80.5 312.5v594q0 428 368 428h17q368 0 368 -428zM592 379v643q0 104 -32.5 149.5t-106.5 45.5t-107 -45.5
t-33 -149.5v-643q0 -104 33.5 -151.5t106.5 -47.5t106 47t33 152z" />
    <glyph glyph-name="uni01EB" unicode="&#x1eb;" 
d="M258 -190q0 108 76 163v4q-134 13 -202.5 107t-68.5 262v334q0 379 345 379h8q340 0 340 -379v-334q0 -277 -185 -350q-94 -37 -122 -59q-27 -24 -27 -76q0 -41 25.5 -59.5t82.5 -18.5v-186q-134 0 -203 55t-69 158zM530 307v414q0 78 -28 113.5t-90 35.5
q-63 0 -93 -35.5t-30 -113.5v-414q0 -77 30 -111t93 -34q62 0 90 33.5t28 111.5z" />
    <glyph glyph-name="Aringacute" unicode="&#x1fa;" horiz-adv-x="821" 
d="M584 0l-47 305h-267l-47 -305h-223l242 1397h340l239 -1397h-237zM408 1223h-11l-98 -707h211zM207 1524v24q0 81 53.5 131t138.5 50h13q85 0 138.5 -50t53.5 -131v-24q0 -79 -53.5 -128.5t-138.5 -49.5h-13q-85 0 -138.5 49.5t-53.5 128.5zM481 1528v16q0 74 -75 74
q-35 0 -54.5 -19.5t-19.5 -54.5v-16q0 -35 19.5 -54.5t54.5 -19.5q75 0 75 74zM299 1651l211 266h276l-251 -266h-236z" />
    <glyph glyph-name="aringacute" unicode="&#x1fb;" 
d="M41 262q0 185 89 267.5t296 82.5h90v113q0 79 -24 112t-84 33q-62 0 -88.5 -32.5t-26.5 -110.5v-16h-221q0 178 79.5 263t251.5 85h11q173 0 250 -84t77 -273v-702h-225v35q0 59 6 203h-4q-13 -134 -71.5 -196t-165.5 -62q-117 0 -178.5 70.5t-61.5 211.5zM520 360v99
h-74q-91 0 -133.5 -36t-42.5 -110v-18q0 -117 115 -117q70 0 102.5 43t32.5 139zM213 1284v25q0 79 52 128.5t134 49.5h13q85 0 135.5 -48t50.5 -130v-25q0 -80 -50.5 -128t-135.5 -48h-13q-82 0 -134 48.5t-52 127.5zM475 1288v17q0 73 -69 73q-70 0 -70 -73v-17
q0 -71 70 -71q69 0 69 71zM315 1399l111 282h246l-176 -282h-181z" />
    <glyph glyph-name="AEacute" unicode="&#x1fc;" horiz-adv-x="1116" 
d="M1069 1171h-326v-352h283v-221h-283v-375h326v-223h-553v307h-219l-74 -307h-223l352 1393h717v-222zM344 512h172v668h-20zM514 1495l211 266h276l-251 -266h-236z" />
    <glyph glyph-name="aeacute" unicode="&#x1fd;" horiz-adv-x="1261" 
d="M733 459v-152q0 -77 30 -111t93 -34q62 0 90.5 33.5t28.5 111.5v27h223v-4q0 -359 -332 -359h-22q-232 0 -285 222q-25 -112 -88 -162.5t-176 -50.5q-123 0 -188.5 71.5t-65.5 212.5q0 185 89 267.5t294 82.5h90v111q0 79 -23.5 112t-82.5 33q-62 0 -88.5 -32.5
t-26.5 -110.5v-16h-221q0 175 79.5 261.5t247.5 86.5h11q147 0 217 -101q76 101 231 101h8q332 0 332 -381v-219h-465zM733 723v-109h242v109q0 78 -28.5 113.5t-90.5 35.5q-63 0 -93 -35.5t-30 -113.5zM518 360v99h-74q-90 0 -132 -34.5t-42 -107.5v-22q0 -117 113 -117
q70 0 102.5 43t32.5 139zM537 1157l110 283h246l-176 -283h-180z" />
    <glyph glyph-name="Oslashacute" unicode="&#x1fe;" horiz-adv-x="905" 
d="M829 993v-594q0 -217 -88 -322.5t-276 -105.5h-25q-36 0 -104 11l-47 -164l-144 37l56 188q-125 101 -125 356v594q0 428 368 428h17q42 0 104 -10l43 154l144 -37l-50 -178q127 -103 127 -357zM311 1022v-600l193 788q-28 7 -51 7q-74 0 -108 -46t-34 -149zM594 379v610
l-195 -801q19 -8 54 -8q75 0 108 47t33 152zM336 1495l211 266h276l-252 -266h-235z" />
    <glyph glyph-name="oslashacute" unicode="&#x1ff;" 
d="M756 680v-334q0 -375 -334 -375h-23q-57 0 -92 9l-28 -82l-127 34l32 99q-121 89 -121 315v334q0 379 345 379h8q46 0 98 -10l29 84l127 -35l-35 -101q121 -89 121 -317zM287 721v-395l166 542q-32 4 -41 4q-64 0 -94.5 -36t-30.5 -115zM532 307v393l-165 -536
q36 -4 45 -4q62 0 91 34.5t29 112.5zM322 1157l110 283h246l-176 -283h-180z" />
    <glyph glyph-name="Scommaaccent" unicode="&#x218;" horiz-adv-x="806" 
d="M43 385v64h238v-84q0 -107 29.5 -149t99.5 -42q72 0 96 35.5t24 136.5q-6 94 -18 121q-16 35 -75 78q-21 15 -105 71q-71 45 -109.5 73t-76.5 65.5t-56 76.5t-29.5 92.5t-13.5 127.5q0 370 350 370h17q348 0 348 -413v-52h-238v68q0 111 -28.5 155t-98.5 44
q-64 0 -92.5 -35.5t-28.5 -116.5q3 -36 6 -58t13.5 -45.5t20 -36.5t36.5 -35t50 -38t73 -49q112 -67 172 -121q59 -49 88 -124.5t29 -196.5q0 -206 -82.5 -301t-265.5 -95h-25q-182 0 -265 100.5t-83 313.5zM217 -457l72 297h254l-137 -297h-189z" />
    <glyph glyph-name="scommaaccent" unicode="&#x219;" horiz-adv-x="751" 
d="M43 305v27h223v-47q0 -73 25 -102t88 -29q61 0 84.5 25t23.5 87q-5 63 -16 81q-14 23 -78 53q-15 7 -69 32q-80 35 -126.5 61.5t-83 64t-51 85.5t-14.5 117q0 299 320 299h6q170 0 250 -80.5t80 -251.5v-22h-224v36q0 76 -24.5 107t-85.5 31q-57 0 -81 -23.5t-24 -77.5
q0 -65 26.5 -91t133.5 -71q112 -48 162 -81q119 -69 119 -254q0 -156 -78.5 -233t-243.5 -77h-20q-322 0 -322 334zM188 -449l72 289h244l-135 -289h-181z" />
    <glyph glyph-name="uni021A" unicode="&#x21a;" horiz-adv-x="759" 
d="M262 0v1169h-246v224h727v-224h-243v-1169h-238zM193 -457l71 297h254l-137 -297h-188z" />
    <glyph glyph-name="uni021B" unicode="&#x21b;" horiz-adv-x="655" 
d="M608 836h-202v-523q0 -61 29.5 -85.5t99.5 -24.5q55 0 73 2v-209q-23 -2 -88 -2q-186 0 -263 70.5t-77 228.5v543h-153v194h153v262h226v-262h202v-194zM209 -449l72 289h243l-135 -289h-180z" />
    <glyph glyph-name="uni0232" unicode="&#x232;" horiz-adv-x="823" 
d="M823 1393l-291 -875v-518h-239v510l-293 883h250l164 -584h8l168 584h233zM205 1544v170h428v-170h-428z" />
    <glyph glyph-name="uni0233" unicode="&#x233;" horiz-adv-x="716" 
d="M498 1030h219l-318 -1337h-217l74 291l-256 1046h231l129 -663h7zM158 1217v163h403v-163h-403z" />
    <glyph glyph-name="uni0237" unicode="&#x237;" horiz-adv-x="380" 
d="M8 -328v191q42 0 56 14.5t14 56.5v1096h225v-1093q0 -147 -65.5 -206t-229.5 -59z" />
    <glyph glyph-name="uni0259" unicode="&#x259;" 
d="M756 680v-334q0 -375 -334 -375h-23q-336 0 -336 375v240h467v135q0 78 -28 113.5t-90 35.5q-63 0 -93 -35.5t-30 -113.5v-27h-226q6 365 345 365h8q340 0 340 -379zM530 307v111h-241v-111q0 -77 30 -111t93 -34q62 0 90 33.5t28 111.5z" />
    <glyph glyph-name="uni0272" unicode="&#x272;" horiz-adv-x="845" 
d="M8 -272v190q41 0 55.5 14.5t14.5 57.5v1040h225v-51l-2 -148q-2 -10 -2 -49h4q13 139 74 206t174 67q110 0 163.5 -68.5t53.5 -210.5v-776h-225v698q0 78 -25.5 114t-79.5 36q-135 0 -135 -178v-678q0 -146 -65.5 -205t-229.5 -59z" />
    <glyph glyph-name="circumflex" unicode="&#x2c6;" horiz-adv-x="1024" 
d="M766 1157h-178l-76 158l-76 -158h-176l143 283h220z" />
    <glyph glyph-name="caron" unicode="&#x2c7;" horiz-adv-x="1024" 
d="M588 1440h178l-143 -283h-220l-143 283h176l76 -158z" />
    <glyph glyph-name="breve" unicode="&#x2d8;" horiz-adv-x="1024" 
d="M279 1413h145q3 -117 88 -117q44 0 65.5 28t22.5 89h148q-2 -126 -59 -193t-171 -67h-12q-224 0 -227 260z" />
    <glyph glyph-name="dotaccent" unicode="&#x2d9;" horiz-adv-x="1024" 
d="M399 1370h228v-248h-228v248z" />
    <glyph glyph-name="ring" unicode="&#x2da;" horiz-adv-x="1024" 
d="M319 1284v25q0 79 52.5 128.5t134.5 49.5h12q85 0 136 -48.5t51 -129.5v-25q0 -80 -51 -128t-136 -48h-12q-82 0 -134.5 48.5t-52.5 127.5zM582 1288v17q0 73 -70 73t-70 -73v-17q0 -71 70 -71t70 71z" />
    <glyph glyph-name="tilde" unicode="&#x2dc;" horiz-adv-x="1024" 
d="M471 1214q-14 20 -23.5 26.5t-27.5 6.5q-26 0 -37.5 -18t-11.5 -62h-131q3 240 184 240q53 0 81.5 -14.5t49.5 -44.5q14 -20 23.5 -26.5t27.5 -6.5q26 0 36.5 17.5t10.5 60.5h131q-2 -122 -45.5 -180t-134.5 -58q-53 0 -80 13.5t-53 45.5z" />
    <glyph glyph-name="hungarumlaut" unicode="&#x2dd;" horiz-adv-x="1024" 
d="M287 1157l98 283h219l-151 -283h-166zM567 1157l99 283h219l-152 -283h-166z" />
    <glyph glyph-name="gravecomb" unicode="&#x300;" horiz-adv-x="0" 
d="M-422 1157h-180l-176 283h246z" />
    <glyph glyph-name="acutecomb" unicode="&#x301;" horiz-adv-x="0" 
d="M-600 1157l111 283h245l-176 -283h-180z" />
    <glyph glyph-name="uni0302" unicode="&#x302;" horiz-adv-x="0" 
d="M-258 1157h-178l-76 158l-76 -158h-176l143 283h220z" />
    <glyph glyph-name="tildecomb" unicode="&#x303;" horiz-adv-x="0" 
d="M-553 1214q-14 20 -23.5 26.5t-27.5 6.5q-26 0 -37.5 -18t-11.5 -62h-131q3 240 184 240q53 0 81.5 -14.5t49.5 -44.5q14 -20 23.5 -26.5t27.5 -6.5q26 0 36.5 17.5t10.5 60.5h131q-2 -122 -45.5 -180t-134.5 -58q-53 0 -80 13.5t-53 45.5z" />
    <glyph glyph-name="uni0304" unicode="&#x304;" horiz-adv-x="0" 
d="M-713 1217v163h404v-163h-404z" />
    <glyph glyph-name="uni0306" unicode="&#x306;" horiz-adv-x="0" 
d="M-745 1413h145q3 -117 88 -117q44 0 65.5 28t22.5 89h148q-2 -126 -59 -193t-171 -67h-12q-224 0 -227 260z" />
    <glyph glyph-name="uni0307" unicode="&#x307;" horiz-adv-x="0" 
d="M-625 1370h228v-248h-228v248z" />
    <glyph glyph-name="uni0308" unicode="&#x308;" horiz-adv-x="0" 
d="M-764 1157v217h209v-217h-209zM-469 1157v217h209v-217h-209z" />
    <glyph glyph-name="hookabovecomb" unicode="&#x309;" horiz-adv-x="0" 
d="M-498 1296q0 37 -16 53.5t-53 16.5q-52 0 -99 -20l-47 145q101 37 185 37q105 0 153.5 -48t48.5 -147t-53 -176h-172q53 71 53 139z" />
    <glyph glyph-name="uni030A" unicode="&#x30a;" horiz-adv-x="0" 
d="M-705 1284v25q0 79 52.5 128.5t134.5 49.5h12q85 0 136 -48.5t51 -129.5v-25q0 -80 -51 -128t-136 -48h-12q-82 0 -134.5 48.5t-52.5 127.5zM-442 1288v17q0 73 -70 73t-70 -73v-17q0 -71 70 -71t70 71z" />
    <glyph glyph-name="uni030B" unicode="&#x30b;" horiz-adv-x="0" 
d="M-737 1157l98 283h219l-151 -283h-166zM-457 1157l99 283h219l-152 -283h-166z" />
    <glyph glyph-name="uni030C" unicode="&#x30c;" horiz-adv-x="0" 
d="M-436 1440h178l-143 -283h-220l-143 283h176l76 -158z" />
    <glyph glyph-name="uni031B" unicode="&#x31b;" horiz-adv-x="0" 
d="M-598 887l-137 143q89 0 128.5 32t39.5 101q0 41 -17 107h205q12 -58 12 -107q0 -124 -61 -197t-170 -79z" />
    <glyph glyph-name="dotbelowcomb" unicode="&#x323;" horiz-adv-x="0" 
d="M-625 -381v221h228v-221h-228z" />
    <glyph glyph-name="uni0326" unicode="&#x326;" horiz-adv-x="0" 
d="M-698 -449l71 289h244l-135 -289h-180z" />
    <glyph glyph-name="uni0327" unicode="&#x327;" horiz-adv-x="0" 
d="M-315 -242q0 -86 -58 -126t-186 -40q-61 0 -141 13v133q66 -14 131 -14q56 0 76 10t20 39t-25.5 38.5t-111.5 14.5l57 207h135l-35 -127q70 -11 104 -46.5t34 -101.5z" />
    <glyph glyph-name="uni0328" unicode="&#x328;" horiz-adv-x="0" 
d="M-784 -190q0 130 112 190h160q-57 -30 -83 -61.5t-26 -73.5q0 -82 109 -82v-186q-132 0 -202 56t-70 157z" />
    <glyph glyph-name="Wgrave" unicode="&#x1e80;" horiz-adv-x="1218" 
d="M186 0l-178 1393h240l117 -1082h2l131 1082h239l129 -1082h4l123 1082h219l-178 -1393h-315l-111 981h-4l-112 -981h-306zM723 1495h-236l-251 266h276z" />
    <glyph glyph-name="wgrave" unicode="&#x1e81;" horiz-adv-x="1120" 
d="M909 1030h211l-159 -1030h-304l-100 705l-102 -705h-293l-162 1030h225l113 -803l117 803h225l117 -803zM651 1157h-180l-176 283h246z" />
    <glyph glyph-name="Wacute" unicode="&#x1e82;" horiz-adv-x="1218" 
d="M186 0l-178 1393h240l117 -1082h2l131 1082h239l129 -1082h4l123 1082h219l-178 -1393h-315l-111 981h-4l-112 -981h-306zM494 1495l211 266h276l-252 -266h-235z" />
    <glyph glyph-name="wacute" unicode="&#x1e83;" horiz-adv-x="1120" 
d="M909 1030h211l-159 -1030h-304l-100 705l-102 -705h-293l-162 1030h225l113 -803l117 803h225l117 -803zM473 1157l111 283h245l-176 -283h-180z" />
    <glyph glyph-name="Wdieresis" unicode="&#x1e84;" horiz-adv-x="1218" 
d="M186 0l-178 1393h240l117 -1082h2l131 1082h239l129 -1082h4l123 1082h219l-178 -1393h-315l-111 981h-4l-112 -981h-306zM344 1495v223h217v-223h-217zM655 1495v223h217v-223h-217z" />
    <glyph glyph-name="wdieresis" unicode="&#x1e85;" horiz-adv-x="1120" 
d="M909 1030h211l-159 -1030h-304l-100 705l-102 -705h-293l-162 1030h225l113 -803l117 803h225l117 -803zM309 1157v217h209v-217h-209zM604 1157v217h209v-217h-209z" />
    <glyph glyph-name="uni1E9E" unicode="&#x1e9e;" horiz-adv-x="921" 
d="M881 612v-286q0 -169 -87.5 -249.5t-267.5 -80.5q-28 0 -98 4v225q54 -4 90 -4q70 0 96.5 29t26.5 106v228q0 45 -18 63.5t-62 18.5h-112v196l129 314h-246v-1176h-238v1393h725v-179l-141 -342q98 -13 150.5 -81t52.5 -179z" />
    <glyph glyph-name="uni1EA0" unicode="&#x1ea0;" horiz-adv-x="821" 
d="M584 0l-47 305h-267l-47 -305h-223l242 1397h340l239 -1397h-237zM408 1223h-11l-98 -707h211zM299 -377v217h209v-217h-209z" />
    <glyph glyph-name="uni1EA1" unicode="&#x1ea1;" 
d="M41 262q0 185 89 267.5t296 82.5h90v113q0 79 -24 112t-84 33q-62 0 -88.5 -32.5t-26.5 -110.5v-16h-221q0 178 79.5 263t251.5 85h11q173 0 250 -84t77 -273v-702h-225v35q0 59 6 203h-4q-13 -134 -71.5 -196t-165.5 -62q-117 0 -178.5 70.5t-61.5 211.5zM520 360v99
h-74q-91 0 -133.5 -36t-42.5 -110v-18q0 -117 115 -117q70 0 102.5 43t32.5 139zM279 -381v221h227v-221h-227z" />
    <glyph glyph-name="uni1EA2" unicode="&#x1ea2;" horiz-adv-x="821" 
d="M584 0l-47 305h-267l-47 -305h-223l242 1397h340l239 -1397h-237zM408 1223h-11l-98 -707h211zM418 1659q0 37 -16.5 53.5t-53.5 16.5q-48 0 -98 -21l-47 145q101 37 184 37q105 0 154 -47.5t49 -146.5t-53 -176h-172q53 71 53 139z" />
    <glyph glyph-name="uni1EA3" unicode="&#x1ea3;" 
d="M41 262q0 185 89 267.5t296 82.5h90v113q0 79 -24 112t-84 33q-62 0 -88.5 -32.5t-26.5 -110.5v-16h-221q0 178 79.5 263t251.5 85h11q173 0 250 -84t77 -273v-702h-225v35q0 59 6 203h-4q-13 -134 -71.5 -196t-165.5 -62q-117 0 -178.5 70.5t-61.5 211.5zM520 360v99
h-74q-91 0 -133.5 -36t-42.5 -110v-18q0 -117 115 -117q70 0 102.5 43t32.5 139zM420 1296q0 37 -16.5 53.5t-53.5 16.5q-51 0 -98 -20l-47 145q101 37 184 37q105 0 154 -48t49 -147t-53 -176h-172q53 71 53 139z" />
    <glyph glyph-name="uni1EA4" unicode="&#x1ea4;" horiz-adv-x="821" 
d="M584 0l-47 305h-267l-47 -305h-223l242 1397h340l239 -1397h-237zM408 1223h-11l-98 -707h211zM651 1495h-178l-67 143l-70 -143h-180l137 266h221zM557 1706l188 240h250l-227 -240h-211z" />
    <glyph glyph-name="uni1EA5" unicode="&#x1ea5;" 
d="M41 262q0 185 89 267.5t296 82.5h90v113q0 79 -24 112t-84 33q-62 0 -88.5 -32.5t-26.5 -110.5v-16h-221q0 178 79.5 263t251.5 85h11q173 0 250 -84t77 -273v-702h-225v35q0 59 6 203h-4q-13 -134 -71.5 -196t-165.5 -62q-117 0 -178.5 70.5t-61.5 211.5zM520 360v99
h-74q-91 0 -133.5 -36t-42.5 -110v-18q0 -117 115 -117q70 0 102.5 43t32.5 139zM659 1157h-178l-75 158l-76 -158h-176l143 283h219zM588 1380l98 250h215l-153 -250h-160z" />
    <glyph glyph-name="uni1EA6" unicode="&#x1ea6;" horiz-adv-x="821" 
d="M584 0l-47 305h-267l-47 -305h-223l242 1397h340l239 -1397h-237zM408 1223h-11l-98 -707h211zM651 1495h-178l-67 143l-70 -143h-180l137 266h221zM846 1743h-211l-227 239h249z" />
    <glyph glyph-name="uni1EA7" unicode="&#x1ea7;" 
d="M41 262q0 185 89 267.5t296 82.5h90v113q0 79 -24 112t-84 33q-62 0 -88.5 -32.5t-26.5 -110.5v-16h-221q0 178 79.5 263t251.5 85h11q173 0 250 -84t77 -273v-702h-225v35q0 59 6 203h-4q-13 -134 -71.5 -196t-165.5 -62q-117 0 -178.5 70.5t-61.5 211.5zM520 360v99
h-74q-91 0 -133.5 -36t-42.5 -110v-18q0 -117 115 -117q70 0 102.5 43t32.5 139zM659 1157h-178l-75 158l-76 -158h-176l143 283h219zM772 1380h-160l-153 250h215z" />
    <glyph glyph-name="uni1EA8" unicode="&#x1ea8;" horiz-adv-x="821" 
d="M584 0l-47 305h-267l-47 -305h-223l242 1397h340l239 -1397h-237zM408 1223h-11l-98 -707h211zM651 1495h-178l-67 143l-70 -143h-180l137 266h221zM625 1855q0 35 -14.5 49.5t-45.5 14.5q-42 0 -90 -23l-43 136q85 32 168 32q93 0 139.5 -45t46.5 -131q0 -91 -47 -159
h-159q45 57 45 126z" />
    <glyph glyph-name="uni1EA9" unicode="&#x1ea9;" 
d="M41 262q0 185 89 267.5t296 82.5h90v113q0 79 -24 112t-84 33q-62 0 -88.5 -32.5t-26.5 -110.5v-16h-221q0 178 79.5 263t251.5 85h11q173 0 250 -84t77 -273v-702h-225v35q0 59 6 203h-4q-13 -134 -71.5 -196t-165.5 -62q-117 0 -178.5 70.5t-61.5 211.5zM520 360v99
h-74q-91 0 -133.5 -36t-42.5 -110v-18q0 -117 115 -117q70 0 102.5 43t32.5 139zM659 1157h-178l-75 158l-76 -158h-176l143 283h219zM633 1507q0 36 -14.5 51t-49.5 15q-43 0 -90 -21l-43 136q85 32 170 32q96 0 141.5 -43.5t45.5 -134.5t-50 -162h-157q47 65 47 127z" />
    <glyph glyph-name="uni1EAA" unicode="&#x1eaa;" horiz-adv-x="821" 
d="M584 0l-47 305h-267l-47 -305h-223l242 1397h340l239 -1397h-237zM408 1223h-11l-98 -707h211zM285 1843h-119q1 115 40.5 170t117.5 55q38 0 59.5 -12.5t48.5 -42.5q23 -33 49 -33q23 0 32 17t9 59h119q0 -225 -156 -225q-40 0 -63 13t-45 42q-25 27 -34 31q-7 2 -17 2
q-23 0 -31 -16t-10 -60zM651 1495h-178l-67 143l-70 -143h-180l137 266h221z" />
    <glyph glyph-name="uni1EAB" unicode="&#x1eab;" 
d="M41 262q0 185 89 267.5t296 82.5h90v113q0 79 -24 112t-84 33q-62 0 -88.5 -32.5t-26.5 -110.5v-16h-221q0 178 79.5 263t251.5 85h11q173 0 250 -84t77 -273v-702h-225v35q0 59 6 203h-4q-13 -134 -71.5 -196t-165.5 -62q-117 0 -178.5 70.5t-61.5 211.5zM520 360v99
h-74q-91 0 -133.5 -36t-42.5 -110v-18q0 -117 115 -117q70 0 102.5 43t32.5 139zM268 1522h-98q1 103 40 151.5t118 48.5q41 0 63 -12t43 -39q13 -20 24.5 -27.5t33.5 -7.5q26 0 37 17t16 59h96q-1 -105 -39.5 -154t-116.5 -49q-41 0 -62 12t-44 40q-11 20 -23 28t-34 8
q-27 0 -40 -17t-14 -58zM659 1157h-178l-75 158l-76 -158h-176l143 283h219z" />
    <glyph glyph-name="uni1EAC" unicode="&#x1eac;" horiz-adv-x="821" 
d="M584 0l-47 305h-267l-47 -305h-223l242 1397h340l239 -1397h-237zM408 1223h-11l-98 -707h211zM299 -377v217h209v-217h-209zM651 1495h-178l-67 143l-70 -143h-180l137 266h221z" />
    <glyph glyph-name="uni1EAD" unicode="&#x1ead;" 
d="M41 262q0 185 89 267.5t296 82.5h90v113q0 79 -24 112t-84 33q-62 0 -88.5 -32.5t-26.5 -110.5v-16h-221q0 178 79.5 263t251.5 85h11q173 0 250 -84t77 -273v-702h-225v35q0 59 6 203h-4q-13 -134 -71.5 -196t-165.5 -62q-117 0 -178.5 70.5t-61.5 211.5zM520 360v99
h-74q-91 0 -133.5 -36t-42.5 -110v-18q0 -117 115 -117q70 0 102.5 43t32.5 139zM279 -381v221h227v-221h-227zM659 1157h-178l-75 158l-76 -158h-176l143 283h219z" />
    <glyph glyph-name="uni1EAE" unicode="&#x1eae;" horiz-adv-x="821" 
d="M584 0l-47 305h-267l-47 -305h-223l242 1397h340l239 -1397h-237zM408 1223h-11l-98 -707h211zM166 1745h153q1 -59 21 -84t63 -25t63 25t21 84h154q-6 -258 -231 -258h-13q-225 0 -231 258zM289 1812l188 240h250l-227 -240h-211z" />
    <glyph glyph-name="uni1EAF" unicode="&#x1eaf;" 
d="M41 262q0 185 89 267.5t296 82.5h90v113q0 79 -24 112t-84 33q-62 0 -88.5 -32.5t-26.5 -110.5v-16h-221q0 178 79.5 263t251.5 85h11q173 0 250 -84t77 -273v-702h-225v35q0 59 6 203h-4q-13 -134 -71.5 -196t-165.5 -62q-117 0 -178.5 70.5t-61.5 211.5zM520 360v99
h-74q-91 0 -133.5 -36t-42.5 -110v-18q0 -117 115 -117q70 0 102.5 43t32.5 139zM172 1417h145q3 -117 89 -117q44 0 65.5 28t22.5 89h147q-3 -260 -229 -260h-13q-224 0 -227 260zM317 1450l99 250h215l-154 -250h-160z" />
    <glyph glyph-name="uni1EB0" unicode="&#x1eb0;" horiz-adv-x="821" 
d="M584 0l-47 305h-267l-47 -305h-223l242 1397h340l239 -1397h-237zM408 1223h-11l-98 -707h211zM512 1849h-211l-227 240h250zM166 1745h153q1 -59 21 -84t63 -25t63 25t21 84h154q-6 -258 -231 -258h-13q-225 0 -231 258z" />
    <glyph glyph-name="uni1EB1" unicode="&#x1eb1;" 
d="M41 262q0 185 89 267.5t296 82.5h90v113q0 79 -24 112t-84 33q-62 0 -88.5 -32.5t-26.5 -110.5v-16h-221q0 178 79.5 263t251.5 85h11q173 0 250 -84t77 -273v-702h-225v35q0 59 6 203h-4q-13 -134 -71.5 -196t-165.5 -62q-117 0 -178.5 70.5t-61.5 211.5zM520 360v99
h-74q-91 0 -133.5 -36t-42.5 -110v-18q0 -117 115 -117q70 0 102.5 43t32.5 139zM496 1450h-160l-154 250h215zM172 1417h145q3 -117 89 -117q44 0 65.5 28t22.5 89h147q-3 -260 -229 -260h-13q-224 0 -227 260z" />
    <glyph glyph-name="uni1EB2" unicode="&#x1eb2;" horiz-adv-x="821" 
d="M584 0l-47 305h-267l-47 -305h-223l242 1397h340l239 -1397h-237zM408 1223h-11l-98 -707h211zM166 1745h153q1 -59 21 -84t63 -25t63 25t21 84h154q-6 -258 -231 -258h-13q-225 0 -231 258zM414 1944q0 32 -13 45.5t-43 13.5q-46 0 -86 -18l-41 126q85 33 162 33
q87 0 131.5 -43.5t44.5 -126.5q0 -91 -45 -153h-151q41 59 41 123z" />
    <glyph glyph-name="uni1EB3" unicode="&#x1eb3;" 
d="M41 262q0 185 89 267.5t296 82.5h90v113q0 79 -24 112t-84 33q-62 0 -88.5 -32.5t-26.5 -110.5v-16h-221q0 178 79.5 263t251.5 85h11q173 0 250 -84t77 -273v-702h-225v35q0 59 6 203h-4q-13 -134 -71.5 -196t-165.5 -62q-117 0 -178.5 70.5t-61.5 211.5zM520 360v99
h-74q-91 0 -133.5 -36t-42.5 -110v-18q0 -117 115 -117q70 0 102.5 43t32.5 139zM172 1417h145q3 -117 89 -117q44 0 65.5 28t22.5 89h147q-3 -260 -229 -260h-13q-224 0 -227 260zM377 1616q0 63 -64 63q-43 0 -90 -18l-43 131q93 35 168 35q97 0 140.5 -43t43.5 -135
q0 -89 -47 -160h-157q49 64 49 127z" />
    <glyph glyph-name="uni1EB4" unicode="&#x1eb4;" horiz-adv-x="821" 
d="M584 0l-47 305h-267l-47 -305h-223l242 1397h340l239 -1397h-237zM408 1223h-11l-98 -707h211zM377 1866q-25 27 -34 30q-7 2 -17 2q-23 0 -31 -15.5t-10 -59.5h-119q1 115 40.5 170t117.5 55q38 0 59.5 -12.5t48.5 -42.5q23 -33 49 -33q23 0 32 17t9 59h119
q0 -226 -156 -226q-40 0 -62.5 13.5t-45.5 42.5zM166 1745h153q1 -59 21 -84t63 -25t63 25t21 84h154q-6 -258 -231 -258h-13q-225 0 -231 258z" />
    <glyph glyph-name="uni1EB5" unicode="&#x1eb5;" 
d="M41 262q0 185 89 267.5t296 82.5h90v113q0 79 -24 112t-84 33q-62 0 -88.5 -32.5t-26.5 -110.5v-16h-221q0 178 79.5 263t251.5 85h11q173 0 250 -84t77 -273v-702h-225v35q0 59 6 203h-4q-13 -134 -71.5 -196t-165.5 -62q-117 0 -178.5 70.5t-61.5 211.5zM520 360v99
h-74q-91 0 -133.5 -36t-42.5 -110v-18q0 -117 115 -117q70 0 102.5 43t32.5 139zM379 1522q-11 20 -23 28.5t-34 8.5q-27 0 -40 -17.5t-14 -58.5h-98q1 103 40 151.5t118 48.5q41 0 63 -12t43 -39q13 -20 24.5 -27.5t33.5 -7.5q26 0 37 17t16 59h96q-1 -105 -39.5 -154
t-116.5 -49q-41 0 -62 12t-44 40zM172 1417h145q3 -117 89 -117q44 0 65.5 28t22.5 89h147q-3 -260 -229 -260h-13q-224 0 -227 260z" />
    <glyph glyph-name="uni1EB6" unicode="&#x1eb6;" horiz-adv-x="821" 
d="M584 0l-47 305h-267l-47 -305h-223l242 1397h340l239 -1397h-237zM408 1223h-11l-98 -707h211zM299 -377v217h209v-217h-209zM166 1745h153q1 -59 21 -84t63 -25t63 25t21 84h154q-6 -258 -231 -258h-13q-225 0 -231 258z" />
    <glyph glyph-name="uni1EB7" unicode="&#x1eb7;" 
d="M41 262q0 185 89 267.5t296 82.5h90v113q0 79 -24 112t-84 33q-62 0 -88.5 -32.5t-26.5 -110.5v-16h-221q0 178 79.5 263t251.5 85h11q173 0 250 -84t77 -273v-702h-225v35q0 59 6 203h-4q-13 -134 -71.5 -196t-165.5 -62q-117 0 -178.5 70.5t-61.5 211.5zM520 360v99
h-74q-91 0 -133.5 -36t-42.5 -110v-18q0 -117 115 -117q70 0 102.5 43t32.5 139zM279 -381v221h227v-221h-227zM172 1417h145q3 -117 89 -117q44 0 65.5 28t22.5 89h147q-3 -260 -229 -260h-13q-224 0 -227 260z" />
    <glyph glyph-name="uni1EB8" unicode="&#x1eb8;" horiz-adv-x="798" 
d="M94 0v1393h651v-222h-421v-352h366v-221h-366v-375h421v-223h-651zM315 -377v217h209v-217h-209z" />
    <glyph glyph-name="uni1EB9" unicode="&#x1eb9;" horiz-adv-x="817" 
d="M287 444v-139q0 -77 30 -111t93 -34t91.5 33.5t28.5 111.5v29h224v-4q0 -361 -332 -361h-23q-170 0 -253 93t-83 282v334q0 379 343 379h8q340 0 340 -379v-234h-467zM287 721v-109h243v109q0 79 -29 114t-91 35q-63 0 -93 -35.5t-30 -113.5zM297 -381v221h227v-221h-227
z" />
    <glyph glyph-name="uni1EBA" unicode="&#x1eba;" horiz-adv-x="798" 
d="M94 0v1393h651v-222h-421v-352h366v-221h-366v-375h421v-223h-651zM432 1634q0 36 -15 52t-48 16q-48 0 -99 -23l-47 146q101 37 185 37q99 0 149.5 -50t50.5 -143q0 -103 -51 -174h-172q47 65 47 139z" />
    <glyph glyph-name="uni1EBB" unicode="&#x1ebb;" horiz-adv-x="817" 
d="M287 444v-139q0 -77 30 -111t93 -34t91.5 33.5t28.5 111.5v29h224v-4q0 -361 -332 -361h-23q-170 0 -253 93t-83 282v334q0 379 343 379h8q340 0 340 -379v-234h-467zM287 721v-109h243v109q0 79 -29 114t-91 35q-63 0 -93 -35.5t-30 -113.5zM424 1296q0 37 -16.5 53.5
t-53.5 16.5q-51 0 -98 -20l-47 145q101 37 184 37q105 0 154 -48t49 -147t-53 -176h-172q53 71 53 139z" />
    <glyph glyph-name="uni1EBC" unicode="&#x1ebc;" horiz-adv-x="798" 
d="M94 0v1393h651v-222h-421v-352h366v-221h-366v-375h421v-223h-651zM385 1538q-23 33 -55 33q-25 0 -36.5 -17.5t-12.5 -58.5h-131q2 119 46 177.5t134 58.5q49 0 75.5 -13.5t55.5 -44.5q23 -33 53 -33q24 0 35 17t16 59h131q-3 -235 -178 -235q-51 0 -78 12.5t-55 44.5z
" />
    <glyph glyph-name="uni1EBD" unicode="&#x1ebd;" horiz-adv-x="817" 
d="M287 444v-139q0 -77 30 -111t93 -34t91.5 33.5t28.5 111.5v29h224v-4q0 -361 -332 -361h-23q-170 0 -253 93t-83 282v334q0 379 343 379h8q340 0 340 -379v-234h-467zM287 721v-109h243v109q0 79 -29 114t-91 35q-63 0 -93 -35.5t-30 -113.5zM369 1214q-14 20 -24 26.5
t-28 6.5q-26 0 -37.5 -18t-11.5 -62h-131q3 240 185 240q53 0 81.5 -14.5t49.5 -44.5q14 -20 23.5 -26.5t27.5 -6.5q26 0 36.5 17.5t10.5 60.5h131q-2 -122 -45.5 -180t-134.5 -58q-53 0 -80 13.5t-53 45.5z" />
    <glyph glyph-name="uni1EBE" unicode="&#x1ebe;" horiz-adv-x="798" 
d="M94 0v1393h651v-222h-421v-352h366v-221h-366v-375h421v-223h-651zM668 1495h-179l-67 143l-70 -143h-180l137 266h221zM573 1706l189 240h250l-228 -240h-211z" />
    <glyph glyph-name="uni1EBF" unicode="&#x1ebf;" horiz-adv-x="817" 
d="M287 444v-139q0 -77 30 -111t93 -34t91.5 33.5t28.5 111.5v29h224v-4q0 -361 -332 -361h-23q-170 0 -253 93t-83 282v334q0 379 343 379h8q340 0 340 -379v-234h-467zM287 721v-109h243v109q0 79 -29 114t-91 35q-63 0 -93 -35.5t-30 -113.5zM664 1157h-179l-75 158
l-76 -158h-176l143 283h219zM592 1380l98 250h215l-153 -250h-160z" />
    <glyph glyph-name="uni1EC0" unicode="&#x1ec0;" horiz-adv-x="798" 
d="M94 0v1393h651v-222h-421v-352h366v-221h-366v-375h421v-223h-651zM668 1495h-179l-67 143l-70 -143h-180l137 266h221zM862 1743h-211l-227 239h250z" />
    <glyph glyph-name="uni1EC1" unicode="&#x1ec1;" horiz-adv-x="817" 
d="M287 444v-139q0 -77 30 -111t93 -34t91.5 33.5t28.5 111.5v29h224v-4q0 -361 -332 -361h-23q-170 0 -253 93t-83 282v334q0 379 343 379h8q340 0 340 -379v-234h-467zM287 721v-109h243v109q0 79 -29 114t-91 35q-63 0 -93 -35.5t-30 -113.5zM664 1157h-179l-75 158
l-76 -158h-176l143 283h219zM776 1380h-160l-153 250h215z" />
    <glyph glyph-name="uni1EC2" unicode="&#x1ec2;" horiz-adv-x="798" 
d="M94 0v1393h651v-222h-421v-352h366v-221h-366v-375h421v-223h-651zM668 1495h-179l-67 143l-70 -143h-180l137 266h221zM641 1855q0 35 -14 49.5t-45 14.5q-42 0 -90 -23l-43 136q85 32 167 32q93 0 140 -45t47 -131q0 -91 -47 -159h-160q45 57 45 126z" />
    <glyph glyph-name="uni1EC3" unicode="&#x1ec3;" horiz-adv-x="817" 
d="M287 444v-139q0 -77 30 -111t93 -34t91.5 33.5t28.5 111.5v29h224v-4q0 -361 -332 -361h-23q-170 0 -253 93t-83 282v334q0 379 343 379h8q340 0 340 -379v-234h-467zM287 721v-109h243v109q0 79 -29 114t-91 35q-63 0 -93 -35.5t-30 -113.5zM664 1157h-179l-75 158
l-76 -158h-176l143 283h219zM637 1507q0 36 -14.5 51t-49.5 15q-43 0 -90 -21l-43 136q85 32 170 32q96 0 141.5 -43.5t45.5 -134.5q0 -92 -49 -162h-158q47 65 47 127z" />
    <glyph glyph-name="uni1EC4" unicode="&#x1ec4;" horiz-adv-x="798" 
d="M94 0v1393h651v-222h-421v-352h366v-221h-366v-375h421v-223h-651zM301 1843h-119q1 115 40.5 170t117.5 55q38 0 60.5 -12.5t48.5 -42.5q23 -33 49 -33q23 0 32 17t9 59h118q0 -225 -155 -225q-40 0 -63.5 13t-45.5 42q-25 27 -34 31q-7 2 -17 2q-23 0 -31 -16t-10 -60z
M668 1495h-179l-67 143l-70 -143h-180l137 266h221z" />
    <glyph glyph-name="uni1EC5" unicode="&#x1ec5;" horiz-adv-x="817" 
d="M287 444v-139q0 -77 30 -111t93 -34t91.5 33.5t28.5 111.5v29h224v-4q0 -361 -332 -361h-23q-170 0 -253 93t-83 282v334q0 379 343 379h8q340 0 340 -379v-234h-467zM287 721v-109h243v109q0 79 -29 114t-91 35q-63 0 -93 -35.5t-30 -113.5zM272 1522h-98
q1 103 40 151.5t118 48.5q41 0 63 -12t43 -39q13 -20 24.5 -27.5t33.5 -7.5q26 0 37 17t16 59h96q-1 -105 -39.5 -154t-116.5 -49q-41 0 -62 12t-44 40q-11 20 -23 28t-34 8q-27 0 -40 -17t-14 -58zM664 1157h-179l-75 158l-76 -158h-176l143 283h219z" />
    <glyph glyph-name="uni1EC6" unicode="&#x1ec6;" horiz-adv-x="798" 
d="M94 0v1393h651v-222h-421v-352h366v-221h-366v-375h421v-223h-651zM315 -377v217h209v-217h-209zM668 1495h-179l-67 143l-70 -143h-180l137 266h221z" />
    <glyph glyph-name="uni1EC7" unicode="&#x1ec7;" horiz-adv-x="817" 
d="M287 444v-139q0 -77 30 -111t93 -34t91.5 33.5t28.5 111.5v29h224v-4q0 -361 -332 -361h-23q-170 0 -253 93t-83 282v334q0 379 343 379h8q340 0 340 -379v-234h-467zM287 721v-109h243v109q0 79 -29 114t-91 35q-63 0 -93 -35.5t-30 -113.5zM297 -381v221h227v-221h-227
zM664 1157h-179l-75 158l-76 -158h-176l143 283h219z" />
    <glyph glyph-name="uni1EC8" unicode="&#x1ec8;" horiz-adv-x="423" 
d="M332 1393v-1393h-238v1393h238zM225 1634q0 36 -15 52t-48 16q-48 0 -99 -23l-47 146q101 37 185 37q99 0 149.5 -50t50.5 -143q0 -103 -51 -174h-172q47 65 47 139z" />
    <glyph glyph-name="uni1EC9" unicode="&#x1ec9;" horiz-adv-x="380" 
d="M78 1030h225v-1030h-225v1030zM205 1296q0 37 -16.5 53.5t-53.5 16.5q-51 0 -98 -20l-47 145q101 37 184 37q105 0 154 -48t49 -147t-53 -176h-172q53 71 53 139z" />
    <glyph glyph-name="uni1ECA" unicode="&#x1eca;" horiz-adv-x="423" 
d="M332 1393v-1393h-238v1393h238zM109 -377v217h208v-217h-208z" />
    <glyph glyph-name="uni1ECB" unicode="&#x1ecb;" horiz-adv-x="380" 
d="M78 1370h227v-248h-227v248zM78 1030h225v-1030h-225v1030zM78 -381v221h227v-221h-227z" />
    <glyph glyph-name="uni1ECC" unicode="&#x1ecc;" horiz-adv-x="905" 
d="M76 399v594q0 428 368 428h17q368 0 368 -428v-594q0 -217 -88 -322.5t-276 -105.5h-25q-185 0 -274.5 106t-89.5 322zM592 379v643q0 104 -32.5 149.5t-106.5 45.5t-107 -45.5t-33 -149.5v-643q0 -104 33.5 -151.5t106.5 -47.5t106 47t33 152zM348 -377v217h209v-217
h-209z" />
    <glyph glyph-name="uni1ECD" unicode="&#x1ecd;" 
d="M63 346v334q0 379 345 379h8q340 0 340 -379v-334q0 -375 -334 -375h-23q-336 0 -336 375zM530 307v414q0 78 -28 113.5t-90 35.5q-63 0 -93 -35.5t-30 -113.5v-414q0 -77 30 -111t93 -34q62 0 90 33.5t28 111.5zM297 -381v221h227v-221h-227z" />
    <glyph glyph-name="uni1ECE" unicode="&#x1ece;" horiz-adv-x="905" 
d="M76 399v594q0 428 368 428h17q368 0 368 -428v-594q0 -217 -88 -322.5t-276 -105.5h-25q-185 0 -274.5 106t-89.5 322zM592 379v643q0 104 -32.5 149.5t-106.5 45.5t-107 -45.5t-33 -149.5v-643q0 -104 33.5 -151.5t106.5 -47.5t106 47t33 152zM465 1634q0 36 -15.5 52
t-48.5 16q-47 0 -98 -23l-47 146q101 37 184 37q99 0 150 -50t51 -143q0 -103 -51 -174h-172q47 65 47 139z" />
    <glyph glyph-name="uni1ECF" unicode="&#x1ecf;" 
d="M63 346v334q0 379 345 379h8q340 0 340 -379v-334q0 -375 -334 -375h-23q-336 0 -336 375zM530 307v414q0 78 -28 113.5t-90 35.5q-63 0 -93 -35.5t-30 -113.5v-414q0 -77 30 -111t93 -34q62 0 90 33.5t28 111.5zM424 1296q0 37 -16.5 53.5t-53.5 16.5q-51 0 -98 -20
l-47 145q101 37 184 37q105 0 154 -48t49 -147t-53 -176h-172q53 71 53 139z" />
    <glyph glyph-name="uni1ED0" unicode="&#x1ed0;" horiz-adv-x="905" 
d="M76 399v594q0 428 368 428h17q368 0 368 -428v-594q0 -217 -88 -322.5t-276 -105.5h-25q-185 0 -274.5 106t-89.5 322zM592 379v643q0 104 -32.5 149.5t-106.5 45.5t-107 -45.5t-33 -149.5v-643q0 -104 33.5 -151.5t106.5 -47.5t106 47t33 152zM700 1495h-178l-67 143
l-70 -143h-180l137 266h221zM606 1706l189 240h249l-227 -240h-211z" />
    <glyph glyph-name="uni1ED1" unicode="&#x1ed1;" 
d="M63 346v334q0 379 345 379h8q340 0 340 -379v-334q0 -375 -334 -375h-23q-336 0 -336 375zM530 307v414q0 78 -28 113.5t-90 35.5q-63 0 -93 -35.5t-30 -113.5v-414q0 -77 30 -111t93 -34q62 0 90 33.5t28 111.5zM664 1157h-179l-75 158l-76 -158h-176l143 283h219z
M592 1380l98 250h215l-153 -250h-160z" />
    <glyph glyph-name="uni1ED2" unicode="&#x1ed2;" horiz-adv-x="905" 
d="M76 399v594q0 428 368 428h17q368 0 368 -428v-594q0 -217 -88 -322.5t-276 -105.5h-25q-185 0 -274.5 106t-89.5 322zM592 379v643q0 104 -32.5 149.5t-106.5 45.5t-107 -45.5t-33 -149.5v-643q0 -104 33.5 -151.5t106.5 -47.5t106 47t33 152zM700 1495h-178l-67 143
l-70 -143h-180l137 266h221zM895 1743h-211l-227 239h250z" />
    <glyph glyph-name="uni1ED3" unicode="&#x1ed3;" 
d="M63 346v334q0 379 345 379h8q340 0 340 -379v-334q0 -375 -334 -375h-23q-336 0 -336 375zM530 307v414q0 78 -28 113.5t-90 35.5q-63 0 -93 -35.5t-30 -113.5v-414q0 -77 30 -111t93 -34q62 0 90 33.5t28 111.5zM664 1157h-179l-75 158l-76 -158h-176l143 283h219z
M776 1380h-160l-153 250h215z" />
    <glyph glyph-name="uni1ED4" unicode="&#x1ed4;" horiz-adv-x="905" 
d="M76 399v594q0 428 368 428h17q368 0 368 -428v-594q0 -217 -88 -322.5t-276 -105.5h-25q-185 0 -274.5 106t-89.5 322zM592 379v643q0 104 -32.5 149.5t-106.5 45.5t-107 -45.5t-33 -149.5v-643q0 -104 33.5 -151.5t106.5 -47.5t106 47t33 152zM700 1495h-178l-67 143
l-70 -143h-180l137 266h221zM674 1855q0 35 -14.5 49.5t-45.5 14.5q-42 0 -90 -23l-43 136q85 32 168 32q93 0 140 -45t47 -131q0 -89 -48 -159h-159q45 57 45 126z" />
    <glyph glyph-name="uni1ED5" unicode="&#x1ed5;" 
d="M63 346v334q0 379 345 379h8q340 0 340 -379v-334q0 -375 -334 -375h-23q-336 0 -336 375zM530 307v414q0 78 -28 113.5t-90 35.5q-63 0 -93 -35.5t-30 -113.5v-414q0 -77 30 -111t93 -34q62 0 90 33.5t28 111.5zM664 1157h-179l-75 158l-76 -158h-176l143 283h219z
M637 1507q0 36 -14.5 51t-49.5 15q-43 0 -90 -21l-43 136q85 32 170 32q96 0 141.5 -43.5t45.5 -134.5q0 -92 -49 -162h-158q47 65 47 127z" />
    <glyph glyph-name="uni1ED6" unicode="&#x1ed6;" horiz-adv-x="905" 
d="M76 399v594q0 428 368 428h17q368 0 368 -428v-594q0 -217 -88 -322.5t-276 -105.5h-25q-185 0 -274.5 106t-89.5 322zM592 379v643q0 104 -32.5 149.5t-106.5 45.5t-107 -45.5t-33 -149.5v-643q0 -104 33.5 -151.5t106.5 -47.5t106 47t33 152zM334 1843h-119
q1 115 40.5 170t117.5 55q38 0 59.5 -12.5t48.5 -42.5q23 -33 49 -33q23 0 32 17t9 59h119q0 -225 -155 -225q-40 0 -63.5 13t-45.5 42q-25 27 -34 31q-7 2 -17 2q-23 0 -31 -16t-10 -60zM700 1495h-178l-67 143l-70 -143h-180l137 266h221z" />
    <glyph glyph-name="uni1ED7" unicode="&#x1ed7;" 
d="M63 346v334q0 379 345 379h8q340 0 340 -379v-334q0 -375 -334 -375h-23q-336 0 -336 375zM530 307v414q0 78 -28 113.5t-90 35.5q-63 0 -93 -35.5t-30 -113.5v-414q0 -77 30 -111t93 -34q62 0 90 33.5t28 111.5zM272 1522h-98q1 103 40 151.5t118 48.5q41 0 63 -12
t43 -39q13 -20 24.5 -27.5t33.5 -7.5q26 0 37 17t16 59h96q-1 -105 -39.5 -154t-116.5 -49q-41 0 -62 12t-44 40q-11 20 -23 28t-34 8q-27 0 -40 -17t-14 -58zM664 1157h-179l-75 158l-76 -158h-176l143 283h219z" />
    <glyph glyph-name="uni1ED8" unicode="&#x1ed8;" horiz-adv-x="905" 
d="M76 399v594q0 428 368 428h17q368 0 368 -428v-594q0 -217 -88 -322.5t-276 -105.5h-25q-185 0 -274.5 106t-89.5 322zM592 379v643q0 104 -32.5 149.5t-106.5 45.5t-107 -45.5t-33 -149.5v-643q0 -104 33.5 -151.5t106.5 -47.5t106 47t33 152zM348 -377v217h209v-217
h-209zM700 1495h-178l-67 143l-70 -143h-180l137 266h221z" />
    <glyph glyph-name="uni1ED9" unicode="&#x1ed9;" 
d="M63 346v334q0 379 345 379h8q340 0 340 -379v-334q0 -375 -334 -375h-23q-336 0 -336 375zM530 307v414q0 78 -28 113.5t-90 35.5q-63 0 -93 -35.5t-30 -113.5v-414q0 -77 30 -111t93 -34q62 0 90 33.5t28 111.5zM297 -381v221h227v-221h-227zM664 1157h-179l-75 158
l-76 -158h-176l143 283h219z" />
    <glyph glyph-name="uni1EDA" unicode="&#x1eda;" horiz-adv-x="905" 
d="M76 399v594q0 428 368 428h17q368 0 368 -428v-594q0 -217 -88 -322.5t-276 -105.5h-25q-185 0 -274.5 106t-89.5 322zM592 379v643q0 104 -32.5 149.5t-106.5 45.5t-107 -45.5t-33 -149.5v-643q0 -104 33.5 -151.5t106.5 -47.5t106 47t33 152zM678 1249l-137 144
q89 0 128.5 32t39.5 101q0 40 -17 106h205q12 -59 12 -106q0 -124 -61 -197.5t-170 -79.5zM338 1495l211 266h276l-252 -266h-235z" />
    <glyph glyph-name="uni1EDB" unicode="&#x1edb;" 
d="M322 1157l110 283h246l-176 -283h-180zM63 346v334q0 379 345 379h8q340 0 340 -379v-334q0 -375 -334 -375h-23q-336 0 -336 375zM530 307v414q0 78 -28 113.5t-90 35.5q-63 0 -93 -35.5t-30 -113.5v-414q0 -77 30 -111t93 -34q62 0 90 33.5t28 111.5zM614 887l-137 143
q89 0 128.5 32t39.5 101q0 45 -16 107h205q12 -58 12 -107q0 -124 -61.5 -197t-170.5 -79z" />
    <glyph glyph-name="uni1EDC" unicode="&#x1edc;" horiz-adv-x="905" 
d="M76 399v594q0 428 368 428h17q368 0 368 -428v-594q0 -217 -88 -322.5t-276 -105.5h-25q-185 0 -274.5 106t-89.5 322zM592 379v643q0 104 -32.5 149.5t-106.5 45.5t-107 -45.5t-33 -149.5v-643q0 -104 33.5 -151.5t106.5 -47.5t106 47t33 152zM678 1249l-137 144
q89 0 128.5 32t39.5 101q0 40 -17 106h205q12 -59 12 -106q0 -124 -61 -197.5t-170 -79.5zM567 1495h-235l-252 266h276z" />
    <glyph glyph-name="uni1EDD" unicode="&#x1edd;" 
d="M498 1157h-181l-176 283h246zM63 346v334q0 379 345 379h8q340 0 340 -379v-334q0 -375 -334 -375h-23q-336 0 -336 375zM530 307v414q0 78 -28 113.5t-90 35.5q-63 0 -93 -35.5t-30 -113.5v-414q0 -77 30 -111t93 -34q62 0 90 33.5t28 111.5zM614 887l-137 143
q89 0 128.5 32t39.5 101q0 45 -16 107h205q12 -58 12 -107q0 -124 -61.5 -197t-170.5 -79z" />
    <glyph glyph-name="uni1EDE" unicode="&#x1ede;" horiz-adv-x="905" 
d="M76 399v594q0 428 368 428h17q368 0 368 -428v-594q0 -217 -88 -322.5t-276 -105.5h-25q-185 0 -274.5 106t-89.5 322zM592 379v643q0 104 -32.5 149.5t-106.5 45.5t-107 -45.5t-33 -149.5v-643q0 -104 33.5 -151.5t106.5 -47.5t106 47t33 152zM678 1249l-137 144
q89 0 128.5 32t39.5 101q0 40 -17 106h205q12 -59 12 -106q0 -124 -61 -197.5t-170 -79.5zM465 1634q0 36 -15.5 52t-48.5 16q-47 0 -98 -23l-47 146q101 37 184 37q99 0 150 -50t51 -143q0 -103 -51 -174h-172q47 65 47 139z" />
    <glyph glyph-name="uni1EDF" unicode="&#x1edf;" 
d="M412 1296q0 37 -15.5 53.5t-50.5 16.5q-50 0 -94 -20l-45 145q93 37 176 37q99 0 145.5 -48t46.5 -147q0 -102 -51 -176h-164q52 70 52 139zM63 346v334q0 379 345 379h8q340 0 340 -379v-334q0 -375 -334 -375h-23q-336 0 -336 375zM530 307v414q0 78 -28 113.5
t-90 35.5q-63 0 -93 -35.5t-30 -113.5v-414q0 -77 30 -111t93 -34q62 0 90 33.5t28 111.5zM614 887l-137 143q89 0 128.5 32t39.5 101q0 45 -16 107h205q12 -58 12 -107q0 -124 -61.5 -197t-170.5 -79z" />
    <glyph glyph-name="uni1EE0" unicode="&#x1ee0;" horiz-adv-x="905" 
d="M76 399v594q0 428 368 428h17q368 0 368 -428v-594q0 -217 -88 -322.5t-276 -105.5h-25q-185 0 -274.5 106t-89.5 322zM592 379v643q0 104 -32.5 149.5t-106.5 45.5t-107 -45.5t-33 -149.5v-643q0 -104 33.5 -151.5t106.5 -47.5t106 47t33 152zM678 1249l-137 144
q89 0 128.5 32t39.5 101q0 40 -17 106h205q12 -59 12 -106q0 -124 -61 -197.5t-170 -79.5zM379 1538q-23 33 -55 33q-25 0 -37 -17.5t-13 -58.5h-131q3 236 181 236q49 0 75.5 -13.5t55.5 -44.5q23 -33 53 -33q24 0 35 17t16 59h131q-3 -235 -178 -235q-51 0 -78 12.5
t-55 44.5z" />
    <glyph glyph-name="uni1EE1" unicode="&#x1ee1;" 
d="M328 1214q-13 20 -21.5 26.5t-25.5 6.5q-25 0 -35 -18t-10 -62h-121q3 240 170 240q50 0 75.5 -14.5t45.5 -44.5q15 -21 23 -27t24 -6q25 0 35 17.5t10 60.5h120q-2 -122 -42.5 -180t-124.5 -58q-51 0 -76 13.5t-47 45.5zM63 346v334q0 379 345 379h8q340 0 340 -379
v-334q0 -375 -334 -375h-23q-336 0 -336 375zM530 307v414q0 78 -28 113.5t-90 35.5q-63 0 -93 -35.5t-30 -113.5v-414q0 -77 30 -111t93 -34q62 0 90 33.5t28 111.5zM614 887l-137 143q89 0 128.5 32t39.5 101q0 45 -16 107h205q12 -58 12 -107q0 -124 -61.5 -197
t-170.5 -79z" />
    <glyph glyph-name="uni1EE2" unicode="&#x1ee2;" horiz-adv-x="905" 
d="M76 399v594q0 428 368 428h17q368 0 368 -428v-594q0 -217 -88 -322.5t-276 -105.5h-25q-185 0 -274.5 106t-89.5 322zM592 379v643q0 104 -32.5 149.5t-106.5 45.5t-107 -45.5t-33 -149.5v-643q0 -104 33.5 -151.5t106.5 -47.5t106 47t33 152zM678 1249l-137 144
q89 0 128.5 32t39.5 101q0 40 -17 106h205q12 -59 12 -106q0 -124 -61 -197.5t-170 -79.5zM348 -377v217h209v-217h-209z" />
    <glyph glyph-name="uni1EE3" unicode="&#x1ee3;" 
d="M63 346v334q0 379 345 379h8q340 0 340 -379v-334q0 -375 -334 -375h-23q-336 0 -336 375zM530 307v414q0 78 -28 113.5t-90 35.5q-63 0 -93 -35.5t-30 -113.5v-414q0 -77 30 -111t93 -34q62 0 90 33.5t28 111.5zM614 887l-137 143q89 0 128.5 32t39.5 101q0 45 -16 107
h205q12 -58 12 -107q0 -124 -61.5 -197t-170.5 -79zM297 -381v221h227v-221h-227z" />
    <glyph glyph-name="uni1EE4" unicode="&#x1ee4;" horiz-adv-x="903" 
d="M82 399v994h237v-1016q0 -104 34 -151.5t108 -47.5q73 0 105 47t32 152v1016h223v-996q0 -217 -85 -321.5t-267 -104.5h-25q-185 0 -273.5 106t-88.5 322zM348 -377v217h209v-217h-209z" />
    <glyph glyph-name="uni1EE5" unicode="&#x1ee5;" horiz-adv-x="839" 
d="M78 256v774h225v-700q0 -146 103 -146q63 0 97 45t34 131v670h225v-1030h-225v51l2 146q2 10 2 53h-4q-12 -140 -72.5 -206.5t-171.5 -66.5q-215 0 -215 279zM307 -381v221h228v-221h-228z" />
    <glyph glyph-name="uni1EE6" unicode="&#x1ee6;" horiz-adv-x="903" 
d="M82 399v994h237v-1016q0 -104 34 -151.5t108 -47.5q73 0 105 47t32 152v1016h223v-996q0 -217 -85 -321.5t-267 -104.5h-25q-185 0 -273.5 106t-88.5 322zM471 1634q0 36 -15 52t-48 16q-48 0 -99 -23l-47 146q101 37 184 37q99 0 150 -50t51 -143q0 -103 -51 -174h-172
q47 65 47 139z" />
    <glyph glyph-name="uni1EE7" unicode="&#x1ee7;" horiz-adv-x="839" 
d="M78 256v774h225v-700q0 -146 103 -146q63 0 97 45t34 131v670h225v-1030h-225v51l2 146q2 10 2 53h-4q-12 -140 -72.5 -206.5t-171.5 -66.5q-215 0 -215 279zM434 1296q0 37 -16 53.5t-53 16.5q-52 0 -99 -20l-47 145q101 37 184 37q105 0 154 -48t49 -147t-53 -176h-172
q53 71 53 139z" />
    <glyph glyph-name="uni1EE8" unicode="&#x1ee8;" horiz-adv-x="903" 
d="M82 399v994h237v-1016q0 -104 34 -151.5t108 -47.5q73 0 105 47t32 152v1016h223v-996q0 -217 -85 -321.5t-267 -104.5h-25q-185 0 -273.5 106t-88.5 322zM735 1249l-137 144q89 0 128.5 32t39.5 101q0 44 -16 106h204q13 -63 13 -106q0 -124 -61.5 -197.5t-170.5 -79.5z
M344 1495l211 266h276l-251 -266h-236z" />
    <glyph glyph-name="uni1EE9" unicode="&#x1ee9;" horiz-adv-x="839" 
d="M78 256v774h225v-700q0 -146 103 -146q63 0 97 45t34 131v670h225v-1030h-225v51l2 146q2 10 2 53h-4q-12 -140 -72.5 -206.5t-171.5 -66.5q-215 0 -215 279zM676 887l-137 143q89 0 128.5 32t39.5 101q0 41 -17 107h205q12 -58 12 -107q0 -124 -61 -197t-170 -79z
M332 1157l110 283h246l-176 -283h-180z" />
    <glyph glyph-name="uni1EEA" unicode="&#x1eea;" horiz-adv-x="903" 
d="M82 399v994h237v-1016q0 -104 34 -151.5t108 -47.5q73 0 105 47t32 152v1016h223v-996q0 -217 -85 -321.5t-267 -104.5h-25q-185 0 -273.5 106t-88.5 322zM735 1249l-137 144q89 0 128.5 32t39.5 101q0 44 -16 106h204q13 -63 13 -106q0 -124 -61.5 -197.5t-170.5 -79.5z
M573 1495h-235l-252 266h276z" />
    <glyph glyph-name="uni1EEB" unicode="&#x1eeb;" horiz-adv-x="839" 
d="M78 256v774h225v-700q0 -146 103 -146q63 0 97 45t34 131v670h225v-1030h-225v51l2 146q2 10 2 53h-4q-12 -140 -72.5 -206.5t-171.5 -66.5q-215 0 -215 279zM676 887l-137 143q89 0 128.5 32t39.5 101q0 41 -17 107h205q12 -58 12 -107q0 -124 -61 -197t-170 -79z
M508 1157h-180l-176 283h245z" />
    <glyph glyph-name="uni1EEC" unicode="&#x1eec;" horiz-adv-x="903" 
d="M82 399v994h237v-1016q0 -104 34 -151.5t108 -47.5q73 0 105 47t32 152v1016h223v-996q0 -217 -85 -321.5t-267 -104.5h-25q-185 0 -273.5 106t-88.5 322zM735 1249l-137 144q89 0 128.5 32t39.5 101q0 44 -16 106h204q13 -63 13 -106q0 -124 -61.5 -197.5t-170.5 -79.5z
M471 1634q0 36 -15 52t-48 16q-48 0 -99 -23l-47 146q101 37 184 37q99 0 150 -50t51 -143q0 -103 -51 -174h-172q47 65 47 139z" />
    <glyph glyph-name="uni1EED" unicode="&#x1eed;" horiz-adv-x="839" 
d="M78 256v774h225v-700q0 -146 103 -146q63 0 97 45t34 131v670h225v-1030h-225v51l2 146q2 10 2 53h-4q-12 -140 -72.5 -206.5t-171.5 -66.5q-215 0 -215 279zM676 887l-137 143q89 0 128.5 32t39.5 101q0 41 -17 107h205q12 -58 12 -107q0 -124 -61 -197t-170 -79z
M432 1296q0 37 -16 53.5t-51 16.5q-50 0 -97 -20l-45 145q93 37 178 37q103 0 151 -48t48 -147q0 -102 -51 -176h-168q51 68 51 139z" />
    <glyph glyph-name="uni1EEE" unicode="&#x1eee;" horiz-adv-x="903" 
d="M82 399v994h237v-1016q0 -104 34 -151.5t108 -47.5q73 0 105 47t32 152v1016h223v-996q0 -217 -85 -321.5t-267 -104.5h-25q-185 0 -273.5 106t-88.5 322zM735 1249l-137 144q89 0 128.5 32t39.5 101q0 44 -16 106h204q13 -63 13 -106q0 -124 -61.5 -197.5t-170.5 -79.5z
M424 1538q-23 33 -55 33q-25 0 -37 -17.5t-13 -58.5h-131q3 236 181 236q49 0 75.5 -13.5t55.5 -44.5q23 -33 53 -33q24 0 35 17t16 59h131q-3 -235 -178 -235q-51 0 -78 12.5t-55 44.5z" />
    <glyph glyph-name="uni1EEF" unicode="&#x1eef;" horiz-adv-x="839" 
d="M78 256v774h225v-700q0 -146 103 -146q63 0 97 45t34 131v670h225v-1030h-225v51l2 146q2 10 2 53h-4q-12 -140 -72.5 -206.5t-171.5 -66.5q-215 0 -215 279zM676 887l-137 143q89 0 128.5 32t39.5 101q0 41 -17 107h205q12 -58 12 -107q0 -124 -61 -197t-170 -79z
M381 1214q-14 20 -23.5 26.5t-27.5 6.5q-25 0 -36 -18t-11 -62h-127q3 240 178 240q53 0 80.5 -14.5t48.5 -44.5q15 -21 23 -27t26 -6q26 0 36.5 17.5t10.5 60.5h127q-1 -121 -44.5 -179.5t-131.5 -58.5q-53 0 -80 13.5t-49 45.5z" />
    <glyph glyph-name="uni1EF0" unicode="&#x1ef0;" horiz-adv-x="903" 
d="M82 399v994h237v-1016q0 -104 34 -151.5t108 -47.5q73 0 105 47t32 152v1016h223v-996q0 -217 -85 -321.5t-267 -104.5h-25q-185 0 -273.5 106t-88.5 322zM735 1249l-137 144q89 0 128.5 32t39.5 101q0 44 -16 106h204q13 -63 13 -106q0 -124 -61.5 -197.5t-170.5 -79.5z
M348 -377v217h209v-217h-209z" />
    <glyph glyph-name="uni1EF1" unicode="&#x1ef1;" horiz-adv-x="839" 
d="M78 256v774h225v-700q0 -146 103 -146q63 0 97 45t34 131v670h225v-1030h-225v51l2 146q2 10 2 53h-4q-12 -140 -72.5 -206.5t-171.5 -66.5q-215 0 -215 279zM676 887l-137 143q89 0 128.5 32t39.5 101q0 41 -17 107h205q12 -58 12 -107q0 -124 -61 -197t-170 -79z
M307 -381v221h228v-221h-228z" />
    <glyph glyph-name="Ygrave" unicode="&#x1ef2;" horiz-adv-x="823" 
d="M823 1393l-291 -875v-518h-239v510l-293 883h250l164 -584h8l168 584h233zM532 1495h-235l-252 266h277z" />
    <glyph glyph-name="ygrave" unicode="&#x1ef3;" horiz-adv-x="716" 
d="M498 1030h219l-318 -1337h-217l74 291l-256 1046h231l129 -663h7zM446 1157h-180l-176 283h246z" />
    <glyph glyph-name="uni1EF4" unicode="&#x1ef4;" horiz-adv-x="823" 
d="M823 1393l-291 -875v-518h-239v510l-293 883h250l164 -584h8l168 584h233zM307 -377v217h209v-217h-209z" />
    <glyph glyph-name="uni1EF5" unicode="&#x1ef5;" horiz-adv-x="716" 
d="M498 1030h219l-318 -1337h-217l74 291l-256 1046h231l129 -663h7zM483 -381v221h228v-221h-228z" />
    <glyph glyph-name="uni1EF6" unicode="&#x1ef6;" horiz-adv-x="823" 
d="M823 1393l-291 -875v-518h-239v510l-293 883h250l164 -584h8l168 584h233zM430 1634q0 36 -15 52t-48 16q-48 0 -99 -23l-47 146q101 37 185 37q99 0 149.5 -50t50.5 -143q0 -103 -51 -174h-172q47 65 47 139z" />
    <glyph glyph-name="uni1EF7" unicode="&#x1ef7;" horiz-adv-x="716" 
d="M498 1030h219l-318 -1337h-217l74 291l-256 1046h231l129 -663h7zM373 1296q0 37 -16.5 53.5t-53.5 16.5q-51 0 -98 -20l-47 145q101 37 184 37q105 0 154 -48t49 -147t-53 -176h-173q54 73 54 139z" />
    <glyph glyph-name="uni1EF8" unicode="&#x1ef8;" horiz-adv-x="823" 
d="M823 1393l-291 -875v-518h-239v510l-293 883h250l164 -584h8l168 584h233zM383 1538q-23 33 -55 33q-25 0 -36.5 -17.5t-12.5 -58.5h-132q3 236 181 236q49 0 75.5 -13.5t55.5 -44.5q23 -33 53 -33q24 0 35 17t16 59h131q-3 -235 -178 -235q-51 0 -78 12.5t-55 44.5z" />
    <glyph glyph-name="uni1EF9" unicode="&#x1ef9;" horiz-adv-x="716" 
d="M498 1030h219l-318 -1337h-217l74 291l-256 1046h231l129 -663h7zM317 1214q-14 20 -23.5 26.5t-27.5 6.5q-26 0 -37.5 -18t-11.5 -62h-131q3 240 184 240q53 0 81.5 -14.5t49.5 -44.5q14 -20 24 -26.5t28 -6.5q26 0 36.5 17.5t10.5 60.5h131q-2 -122 -45.5 -180
t-134.5 -58q-54 0 -81.5 13.5t-52.5 45.5z" />
    <glyph glyph-name="endash" unicode="&#x2013;" horiz-adv-x="835" 
d="M72 461v223h692v-223h-692z" />
    <glyph glyph-name="emdash" unicode="&#x2014;" horiz-adv-x="1511" 
d="M76 461v223h1360v-223h-1360z" />
    <glyph glyph-name="quoteleft" unicode="&#x2018;" horiz-adv-x="411" 
d="M344 1393v-140h-14q-78 0 -101.5 -25.5t-23.5 -101.5v-34h135v-304h-272v328q0 145 66.5 211t209.5 66z" />
    <glyph glyph-name="quoteright" unicode="&#x2019;" horiz-adv-x="411" 
d="M68 788v140h14q78 0 101.5 25.5t23.5 101.5v35h-135v303h272v-328q0 -145 -66.5 -211t-209.5 -66z" />
    <glyph glyph-name="quotesinglbase" unicode="&#x201a;" horiz-adv-x="415" 
d="M68 -301v139h14q78 0 101.5 25.5t23.5 101.5v35h-135v303h272v-328q0 -145 -66.5 -210.5t-209.5 -65.5z" />
    <glyph glyph-name="quotedblleft" unicode="&#x201c;" horiz-adv-x="768" 
d="M700 1393v-140h-14q-76 0 -99.5 -25.5t-23.5 -101.5v-34h133v-304h-270v328q0 145 66 211t208 66zM342 1393v-140h-14q-76 0 -99.5 -25.5t-23.5 -101.5v-34h133v-304h-270v328q0 145 66 211t208 66z" />
    <glyph glyph-name="quotedblright" unicode="&#x201d;" horiz-adv-x="768" 
d="M68 788v140h14q76 0 99.5 25.5t23.5 101.5v35h-133v303h270v-328q0 -145 -66 -211t-208 -66zM426 788v140h14q76 0 99.5 25.5t23.5 101.5v35h-133v303h270v-328q0 -145 -66 -211t-208 -66z" />
    <glyph glyph-name="quotedblbase" unicode="&#x201e;" horiz-adv-x="772" 
d="M68 -301v139h14q76 0 99.5 25.5t23.5 101.5v35h-133v303h270v-328q0 -145 -66 -210.5t-208 -65.5zM426 -301v139h14q76 0 99.5 25.5t23.5 101.5v35h-133v303h270v-328q0 -145 -66 -210.5t-208 -65.5z" />
    <glyph glyph-name="dagger" unicode="&#x2020;" horiz-adv-x="544" 
d="M514 1186v-139h-166v-433h-151v433h-166v139h166v207h151v-207h166z" />
    <glyph glyph-name="daggerdbl" unicode="&#x2021;" horiz-adv-x="552" 
d="M518 1049h-166v-414h166v-139h-166v-205h-151v205h-166v139h166v414h-166v139h166v205h151v-205h166v-139z" />
    <glyph glyph-name="bullet" unicode="&#x2022;" horiz-adv-x="1024" 
d="M244 977h538v-555h-538v555z" />
    <glyph glyph-name="ellipsis" unicode="&#x2026;" horiz-adv-x="1308" 
d="M518 303h273v-303h-273v303zM82 303h272v-303h-272v303zM954 303h273v-303h-273v303z" />
    <glyph glyph-name="guilsinglleft" unicode="&#x2039;" horiz-adv-x="530" 
d="M270 537l181 -437h-213l-172 437l172 436h213z" />
    <glyph glyph-name="guilsinglright" unicode="&#x203a;" horiz-adv-x="530" 
d="M80 100l180 437l-180 436h213l172 -436l-172 -437h-213z" />
    <glyph glyph-name="fraction" unicode="&#x2044;" horiz-adv-x="1024" 
d="M203 0l256 721l219 672h145l-258 -721l-219 -672h-143z" />
    <glyph glyph-name="uni2070" unicode="&#x2070;" horiz-adv-x="552" 
d="M43 1026v303q0 244 227 244h13q115 0 171 -60.5t56 -183.5v-303q0 -123 -54.5 -183.5t-170.5 -60.5h-17q-116 0 -170.5 60.5t-54.5 183.5zM346 1022v315q0 53 -16.5 75t-53.5 22t-53 -22t-16 -75v-315q0 -51 16 -74.5t53 -23.5t53.5 23.5t16.5 74.5z" />
    <glyph glyph-name="uni2074" unicode="&#x2074;" horiz-adv-x="520" 
d="M502 1092v-148h-72v-145h-164v145h-250v127l215 488h199v-467h72zM270 1368l-120 -276h120v276z" />
    <glyph glyph-name="uni2075" unicode="&#x2075;" horiz-adv-x="540" 
d="M45 1014v35h164v-39q0 -45 16 -65.5t51 -20.5q68 0 68 86v75q0 47 -16.5 68t-51.5 21q-55 0 -67 -50h-164v435h444v-152h-282v-180h4q11 39 46.5 62.5t90.5 23.5q82 0 121 -50t39 -155v-84q0 -122 -54 -182t-169 -60h-17q-223 0 -223 232z" />
    <glyph glyph-name="uni2076" unicode="&#x2076;" horiz-adv-x="546" 
d="M43 1026v303q0 244 225 244h13q110 0 162.5 -56.5t52.5 -173.5v-16h-154v19q0 47 -15.5 67.5t-52.5 20.5t-52 -20.5t-15 -70.5v-196h6q5 72 39 106.5t102 34.5q156 0 156 -198v-84q0 -224 -227 -224h-17q-223 0 -223 244zM346 1012v51q0 44 -15 63t-52 19q-72 0 -72 -86
v-47q0 -88 69 -88q37 0 53.5 20.5t16.5 67.5z" />
    <glyph glyph-name="uni2077" unicode="&#x2077;" horiz-adv-x="464" 
d="M10 1559h436v-136l-165 -624h-172l180 608h-279v152z" />
    <glyph glyph-name="uni2078" unicode="&#x2078;" horiz-adv-x="512" 
d="M23 987v19q0 65 32 113.5t82 62.5v2q-48 19 -75 62.5t-27 105.5v16q0 100 55.5 152.5t161.5 52.5h8q106 0 161.5 -52.5t55.5 -152.5v-16q0 -62 -27 -105.5t-75 -62.5v-2q51 -14 82.5 -62t31.5 -114v-19q0 -97 -58.5 -151t-166.5 -54h-16q-108 0 -166.5 54t-58.5 151z
M319 1321v49q0 70 -63 70t-63 -70v-49q0 -72 63 -72t63 72zM326 995v52q0 73 -70 73t-70 -73v-52q0 -73 70 -73t70 73z" />
    <glyph glyph-name="uni2079" unicode="&#x2079;" horiz-adv-x="546" 
d="M37 1018v12h164v-18q0 -47 16.5 -67.5t54.5 -20.5q37 0 52.5 20.5t15.5 71.5v194h-4q-12 -139 -143 -139q-156 0 -156 199v80q0 109 58.5 166t170.5 57h15q223 0 223 -244v-303q0 -244 -223 -244h-17q-227 0 -227 236zM340 1300v46q0 88 -68 88q-71 0 -71 -88v-52
q0 -43 16 -61.5t51 -18.5q72 0 72 86z" />
    <glyph glyph-name="uni2080" unicode="&#x2080;" horiz-adv-x="552" 
d="M43 -152v304q0 243 227 243h13q115 0 171 -60t56 -183v-304q0 -123 -54.5 -183t-170.5 -60h-17q-116 0 -170.5 60t-54.5 183zM346 -156v316q0 53 -16.5 74.5t-53.5 21.5t-53 -21.5t-16 -74.5v-316q0 -51 16 -74.5t53 -23.5t53.5 23.5t16.5 74.5z" />
    <glyph glyph-name="uni2081" unicode="&#x2081;" horiz-adv-x="413" 
d="M303 -229h103v-152h-369v152h102v442l-102 -31v162l139 35h127v-608z" />
    <glyph glyph-name="uni2082" unicode="&#x2082;" horiz-adv-x="497" 
d="M20 -381v121q141 160 189 219q52 61 73 107.5t21 105.5q0 44 -14.5 63t-46.5 19q-36 0 -52 -20.5t-16 -67.5v-31h-151v21q0 119 53.5 178t165.5 59h10q215 0 215 -213q0 -72 -29 -141q-25 -60 -67.5 -115.5t-132.5 -152.5h231v-152h-449z" />
    <glyph glyph-name="uni2083" unicode="&#x2083;" horiz-adv-x="509" 
d="M18 -164v35h164v-39q0 -86 70 -86q36 0 51.5 20.5t15.5 65.5v23q0 42 -16.5 58.5t-58.5 16.5h-84v148h84q40 0 55.5 15.5t15.5 53.5v35q0 39 -14 56.5t-49 17.5q-36 0 -51 -19.5t-15 -66.5v-33h-153v23q0 121 53 178t164 57h12q103 0 157 -55t54 -160q0 -136 -102 -170
v-2q112 -27 112 -180q0 -109 -57 -166t-166 -57h-16q-226 0 -226 231z" />
    <glyph glyph-name="uni2084" unicode="&#x2084;" horiz-adv-x="520" 
d="M502 -88v-148h-72v-145h-164v145h-250v127l215 488h199v-467h72zM270 188l-120 -276h120v276z" />
    <glyph glyph-name="uni2085" unicode="&#x2085;" horiz-adv-x="540" 
d="M45 -166v35h164v-39q0 -45 16 -65.5t51 -20.5q68 0 68 86v76q0 47 -16 67.5t-52 20.5q-55 0 -67 -49h-164v434h444v-152h-282v-180h4q11 39 46.5 62.5t90.5 23.5q82 0 121 -50t39 -155v-84q0 -122 -54 -181.5t-169 -59.5h-17q-223 0 -223 231z" />
    <glyph glyph-name="uni2086" unicode="&#x2086;" horiz-adv-x="546" 
d="M43 -152v304q0 243 225 243h13q110 0 162.5 -56t52.5 -173v-16h-154v18q0 47 -15.5 67.5t-52.5 20.5t-52 -20.5t-15 -69.5v-197h6q9 142 141 142q156 0 156 -199v-84q0 -223 -227 -223h-17q-223 0 -223 243zM346 -166v51q0 44 -15 63t-52 19q-72 0 -72 -86v-47
q0 -88 69 -88q37 0 53.5 20.5t16.5 67.5z" />
    <glyph glyph-name="uni2087" unicode="&#x2087;" horiz-adv-x="464" 
d="M10 379h436v-135l-165 -625h-172l180 608h-279v152z" />
    <glyph glyph-name="uni2088" unicode="&#x2088;" horiz-adv-x="512" 
d="M23 -190v18q0 65 32 113.5t82 62.5v2q-48 19 -75 62.5t-27 105.5v16q0 100 55.5 152.5t161.5 52.5h8q106 0 161.5 -52.5t55.5 -152.5v-16q0 -62 -27 -105.5t-75 -62.5v-2q51 -14 82.5 -62t31.5 -114v-18q0 -97 -58.5 -151t-166.5 -54h-16q-108 0 -166.5 54t-58.5 151z
M319 143v50q0 69 -63 69t-63 -69v-50q0 -71 63 -71t63 71zM326 -182v51q0 74 -70 74t-70 -74v-51q0 -74 70 -74t70 74z" />
    <glyph glyph-name="uni2089" unicode="&#x2089;" horiz-adv-x="546" 
d="M37 -160v13h164v-19q0 -47 16.5 -67.5t54.5 -20.5q37 0 52.5 20.5t15.5 71.5v195h-4q-12 -139 -143 -139q-156 0 -156 198v80q0 109 58.5 166t170.5 57h15q223 0 223 -243v-304q0 -243 -223 -243h-17q-227 0 -227 235zM340 123v45q0 88 -68 88q-71 0 -71 -88v-51
q0 -43 16 -61.5t51 -18.5q72 0 72 86z" />
    <glyph glyph-name="dong" unicode="&#x20ab;" horiz-adv-x="716" 
d="M741 1311v-129h-92v-910h-209v29q0 67 2 92l2 78h-2q-13 -116 -63 -167.5t-143 -51.5t-138 55t-45 168v422q0 229 189 229q95 0 143 -53.5t55 -173.5h4l-2 70q-2 27 -2 100v113h-176v129h178v82h207v-82h92zM451 578v219q0 76 -23.5 110.5t-77.5 34.5q-88 0 -88 -106
v-293q0 -109 88 -109q53 0 77 35.5t24 108.5zM96 0v117h508v-117h-508z" />
    <glyph glyph-name="Euro" unicode="&#x20ac;" horiz-adv-x="907" 
d="M864 981h-223v49q0 98 -31 141t-100 43t-100 -45t-31 -149v-98h246v-174h-246v-99h246v-172h-246v-96q0 -104 31 -151.5t100 -47.5t100 44t31 143v39h223v-23q0 -412 -342 -412h-24q-184 0 -271.5 106t-87.5 322v76h-129v172h129v99h-129v174h129v69q0 215 90 321.5
t273 106.5h16q346 0 346 -407v-31z" />
    <glyph glyph-name="uni20B9" unicode="&#x20b9;" horiz-adv-x="851" 
d="M805 1221h-195q40 -70 52 -174h143v-173h-143q-34 -270 -263 -327l281 -547h-272l-258 528h-91v172h158q100 0 151.5 41.5t61.5 132.5h-371v173h371q-11 88 -60.5 131t-142.5 43h-168v172h746v-172z" />
    <glyph glyph-name="uni20BA" unicode="&#x20ba;" horiz-adv-x="835" 
d="M586 492h223v-41q0 -248 -110 -349.5t-386 -101.5h-219v551l-94 -43v205l94 43v104l-94 -43v205l94 43v328h240v-248l203 94v-205l-203 -94v-104l203 94v-205l-203 -94v-418q45 1 75 3t58 8.5t44 14t30.5 24.5t21 34t12 48.5t7.5 63.5t4 83z" />
    <glyph glyph-name="uni2117" unicode="&#x2117;" horiz-adv-x="1261" 
d="M82 479v432q0 262 137.5 396.5t403.5 134.5h18q265 0 402 -134t137 -397v-432q0 -259 -135.5 -393.5t-395.5 -134.5h-35q-260 0 -396 134.5t-136 393.5zM612 80h39q393 0 393 385v465q0 195 -98.5 291t-300.5 96h-27q-202 0 -300.5 -96t-98.5 -291v-465q0 -385 393 -385z
M403 266v860h232q138 0 201 -66t63 -204q0 -140 -63.5 -205t-202.5 -65h-43v-320h-187zM590 735h39q44 0 63 28t19 91q0 65 -20 93t-64 28h-37v-240z" />
    <glyph glyph-name="uni2120" unicode="&#x2120;" horiz-adv-x="1140" 
d="M414 915q0 -98 -46.5 -145t-144.5 -47h-12q-99 0 -145 49t-46 150v30h146v-37q0 -40 12.5 -54.5t44.5 -14.5q29 0 39 12.5t10 48.5q0 40 -16 56q-19 19 -76 51q-88 46 -121.5 90t-33.5 123q0 180 190 180h6q182 0 191 -199v-22h-146v31q0 39 -11 55t-40 16q-51 0 -51 -53
q0 -33 17.5 -52t72.5 -50q46 -26 65.5 -38.5t42 -31t30 -37t14 -44.5t8.5 -67zM858 1393h225v-656h-145l2 531h-4l-94 -531h-131l-95 531h-4l2 -531h-135v656h236l71 -396z" />
    <glyph glyph-name="trademark" unicode="&#x2122;" horiz-adv-x="1118" 
d="M8 1257v136h387v-136h-119v-520h-147v520h-121zM840 1393h225v-656h-145l2 531h-4l-95 -531h-131l-94 531h-4l2 -531h-135v656h235l72 -396z" />
    <glyph glyph-name="minus" unicode="&#x2212;" horiz-adv-x="761" 
d="M66 602v199h630v-199h-630z" />
    <glyph glyph-name="uni275B" unicode="&#x275b;" horiz-adv-x="688" 
d="M616 1393v-230h-79q-135 0 -183.5 -50t-48.5 -191v-179h311v-743h-548v903q0 263 118 376.5t400 113.5h30z" />
    <glyph glyph-name="uni275C" unicode="&#x275c;" horiz-adv-x="688" 
d="M72 0v229h80q134 0 182.5 50t48.5 192v178h-311v744h549v-904q0 -263 -118.5 -376t-400.5 -113h-30z" />
    <glyph glyph-name="uni275D" unicode="&#x275d;" horiz-adv-x="1384" 
d="M616 1393v-230h-79q-135 0 -183.5 -50t-48.5 -191v-179h311v-743h-548v903q0 263 118 376.5t400 113.5h30zM1313 1393v-230h-80q-135 0 -183.5 -50t-48.5 -191v-179h312v-743h-549v903q0 263 118 376.5t400 113.5h31z" />
    <glyph glyph-name="uni275E" unicode="&#x275e;" horiz-adv-x="1384" 
d="M768 0v229h80q134 0 182.5 50t48.5 192v178h-311v744h549v-904q0 -263 -118 -376t-400 -113h-31zM72 0v229h80q134 0 182.5 50t48.5 192v178h-311v744h549v-904q0 -263 -118.5 -376t-400.5 -113h-30z" />
    <glyph glyph-name="uni276C" unicode="&#x276c;" horiz-adv-x="501" 
d="M268 696l168 -696h-233l-160 696l160 697h233z" />
    <glyph glyph-name="uni276D" unicode="&#x276d;" horiz-adv-x="501" 
d="M66 0l167 696l-167 697h233l160 -697l-160 -696h-233z" />
    <glyph glyph-name="uni276E" unicode="&#x276e;" horiz-adv-x="886" 
d="M653 696l168 -696h-233l-160 696l160 697h233zM268 696l168 -696h-233l-160 696l160 697h233z" />
    <glyph glyph-name="uni276F" unicode="&#x276f;" horiz-adv-x="886" 
d="M66 0l167 696l-167 697h233l160 -697l-160 -696h-233zM451 0l167 696l-167 697h233l160 -697l-160 -696h-233z" />
    <glyph glyph-name="NULL" horiz-adv-x="1024" 
 />
    <glyph glyph-name="Iacute_J.loclNLD" horiz-adv-x="894" 
d="M94 1495l211 266h277l-252 -266h-236zM94 401v74h240v-94q0 -106 30 -152.5t97 -46.5q66 0 95.5 46.5t29.5 152.5v1012h239v-992q0 -216 -86.5 -322t-265.5 -106h-24q-182 0 -268.5 105.5t-86.5 322.5zM94 567v826h240v-826h-240zM588 1495l211 266h276l-252 -266h-235z
" />
    <glyph glyph-name="J.bold" horiz-adv-x="825" 
d="M27 401v74h225v-94q0 -80 33.5 -139.5t91.5 -59.5q67 0 97 46.5t30 152.5v1012h239v-992q0 -217 -86 -322.5t-268 -105.5h-24q-172 0 -255 106t-83 322z" />
    <glyph glyph-name="uni00A40301" horiz-adv-x="526" 
d="M432 1393v-1080q0 -169 -73.5 -244t-235.5 -75q-65 0 -109 8v223q49 -6 76 -6q57 0 81 24.5t24 86.5v1063h237zM201 1495l211 266h276l-252 -266h-235z" />
    <glyph glyph-name="uni00A40301.bold" horiz-adv-x="825" 
d="M27 401v74h225v-94q0 -80 33.5 -139.5t91.5 -59.5q67 0 97 46.5t30 152.5v1012h239v-992q0 -217 -86 -322.5t-268 -105.5h-24q-172 0 -255 106t-83 322zM508 1495l211 266h276l-252 -266h-235z" />
    <glyph glyph-name="Jcircumflex.bold" horiz-adv-x="825" 
d="M618 1647l-77 -131h-148l125 278h211l123 -278h-154zM504 381v1012h239v-992q0 -217 -86 -322.5t-268 -105.5h-24q-172 0 -255 106t-83 322v74h225v-94q0 -80 33.5 -139.5t91.5 -59.5q67 0 97 46.5t30 152.5z" />
    <glyph glyph-name="iacute_j.loclNLD" horiz-adv-x="761" 
d="M102 1157l111 283h246l-176 -283h-181zM483 1157l111 283h246l-176 -283h-181zM78 31v41h225v-80q0 -62 23 -89.5t77 -27.5q51 0 74 27.5t23 89.5v1038h225v-1001q0 -175 -74.5 -259.5t-234.5 -84.5h-25q-160 0 -236.5 85.5t-76.5 260.5zM78 164v866h225v-866h-225z" />
    <glyph glyph-name="i.loclTRK" horiz-adv-x="380" 
d="M78 1030h225v-1030h-225v1030zM78 1370h227v-248h-227v248z" />
    <glyph glyph-name="uni006A0301" horiz-adv-x="380" 
d="M8 -328v191q42 0 56 14.5t14 56.5v1096h225v-1093q0 -147 -65.5 -206t-229.5 -59zM102 1157l111 283h246l-176 -283h-181z" />
    <glyph glyph-name="I_J.loclNLD" horiz-adv-x="894" 
d="M82 401v74h240v-94q0 -106 30 -152.5t97 -46.5q66 0 95 46.5t29 152.5v1012h240v-992q0 -216 -86.5 -322t-265.5 -106h-25q-182 0 -268 105.5t-86 322.5zM82 567v826h240v-826h-240z" />
    <glyph glyph-name="f_f_ij" horiz-adv-x="1886" 
d="M1159 836h-274v-836h-226v836h-276v-836h-225v836h-142v194h142v72q0 167 79 239t259 72q49 0 67 -2v-197q-21 3 -51 3q-72 0 -100.5 -26.5t-28.5 -92.5v-68h276v72q0 167 79 239t259 72q48 0 66 -2v-197q-18 3 -49 3q-72 0 -100.5 -26.5t-28.5 -92.5v-68h499v-866h-225
v672zM1386 1370v-248h-227v248h227zM1583 1370h227v-248h-227v248zM1581 -8v1038h225v-1001q0 -175 -74.5 -259.5t-234.5 -84.5h-24q-160 0 -237 86t-77 260v41h225v-80q0 -62 23.5 -89.5t77.5 -27.5q51 0 73.5 27.5t22.5 89.5z" />
    <glyph glyph-name="f_ij" horiz-adv-x="1386" 
d="M659 836h-276v-836h-225v836h-142v194h142v72q0 167 79 239t259 72q49 0 67 -2v-197q-21 3 -51 3q-72 0 -100.5 -26.5t-28.5 -92.5v-68h502v-866h-226v672zM887 1370v-248h-228v248h228zM1083 1370h228v-248h-228v248zM1081 -8v1038h226v-1001q0 -175 -75 -259.5
t-235 -84.5h-24q-160 0 -237 86t-77 260v41h226v-80q0 -62 23 -89.5t77 -27.5q51 0 73.5 27.5t22.5 89.5z" />
    <glyph glyph-name="i_j.loclNLD" horiz-adv-x="804" 
d="M78 1122v248h227v-248h-227zM502 1122v248h227v-248h-227zM78 31v41h225v-80q0 -62 23 -89.5t77 -27.5q51 0 74 27.5t23 89.5v1038h225v-1001q0 -175 -74.5 -259.5t-234.5 -84.5h-25q-160 0 -236.5 85.5t-76.5 260.5zM78 164v866h225v-866h-225z" />
    <glyph glyph-name="a.smcp" horiz-adv-x="780" 
d="M541 0l-39 244h-238l-41 -244h-223l219 1204h344l217 -1204h-239zM387 1032h-10l-86 -581h184z" />
    <glyph glyph-name="aacute.smcp" horiz-adv-x="780" 
d="M541 0l-39 244h-238l-41 -244h-223l219 1204h344l217 -1204h-239zM387 1032h-10l-86 -581h184zM295 1327l111 283h245l-176 -283h-180z" />
    <glyph glyph-name="abreve.smcp" horiz-adv-x="780" 
d="M541 0l-39 244h-238l-41 -244h-223l219 1204h344l217 -1204h-239zM387 1032h-10l-86 -581h184zM150 1587h145q3 -117 88 -117q44 0 65.5 28t22.5 89h147q-3 -260 -229 -260h-12q-224 0 -227 260z" />
    <glyph glyph-name="uni1EAF.smcp" horiz-adv-x="780" 
d="M541 0l-39 244h-238l-41 -244h-223l219 1204h344l217 -1204h-239zM387 1032h-10l-86 -581h184zM150 1587h145q3 -117 88 -117q44 0 65.5 28t22.5 89h147q-3 -260 -229 -260h-12q-224 0 -227 260zM295 1620l98 250h215l-153 -250h-160z" />
    <glyph glyph-name="uni1EB7.smcp" horiz-adv-x="780" 
d="M541 0l-39 244h-238l-41 -244h-223l219 1204h344l217 -1204h-239zM387 1032h-10l-86 -581h184zM268 -381v221h228v-221h-228zM150 1587h145q3 -117 88 -117q44 0 65.5 28t22.5 89h147q-3 -260 -229 -260h-12q-224 0 -227 260z" />
    <glyph glyph-name="uni1EB1.smcp" horiz-adv-x="780" 
d="M541 0l-39 244h-238l-41 -244h-223l219 1204h344l217 -1204h-239zM387 1032h-10l-86 -581h184zM473 1620h-160l-153 250h215zM150 1587h145q3 -117 88 -117q44 0 65.5 28t22.5 89h147q-3 -260 -229 -260h-12q-224 0 -227 260z" />
    <glyph glyph-name="uni1EB3.smcp" horiz-adv-x="780" 
d="M541 0l-39 244h-238l-41 -244h-223l219 1204h344l217 -1204h-239zM387 1032h-10l-86 -581h184zM150 1587h145q3 -117 88 -117q44 0 65.5 28t22.5 89h147q-3 -260 -229 -260h-12q-224 0 -227 260zM354 1786q0 63 -63 63q-44 0 -90 -18l-43 131q93 35 168 35
q97 0 140.5 -43t43.5 -135q0 -89 -47 -160h-158q49 64 49 127z" />
    <glyph glyph-name="uni1EB5.smcp" horiz-adv-x="780" 
d="M541 0l-39 244h-238l-41 -244h-223l219 1204h344l217 -1204h-239zM387 1032h-10l-86 -581h184zM356 1692q-11 20 -23 28.5t-34 8.5q-27 0 -39.5 -17.5t-13.5 -58.5h-99q1 103 40 151.5t118 48.5q42 0 64 -12t43 -39q13 -20 24 -27.5t33 -7.5q26 0 37 17t16 59h96
q-1 -105 -39 -154t-116 -49q-41 0 -62.5 12t-44.5 40zM150 1587h145q3 -117 88 -117q44 0 65.5 28t22.5 89h147q-3 -260 -229 -260h-12q-224 0 -227 260z" />
    <glyph glyph-name="uni01CE.smcp" horiz-adv-x="780" 
d="M541 0l-39 244h-238l-41 -244h-223l219 1204h344l217 -1204h-239zM387 1032h-10l-86 -581h184zM459 1610h178l-143 -283h-220l-143 283h176l76 -158z" />
    <glyph glyph-name="acircumflex.smcp" horiz-adv-x="780" 
d="M541 0l-39 244h-238l-41 -244h-223l219 1204h344l217 -1204h-239zM387 1032h-10l-86 -581h184zM637 1327h-178l-76 158l-76 -158h-176l143 283h220z" />
    <glyph glyph-name="uni1EA5.smcp" horiz-adv-x="780" 
d="M541 0l-39 244h-238l-41 -244h-223l219 1204h344l217 -1204h-239zM387 1032h-10l-86 -581h184zM637 1327h-178l-76 158l-76 -158h-176l143 283h220zM565 1550l99 250h215l-154 -250h-160z" />
    <glyph glyph-name="uni1EAD.smcp" horiz-adv-x="780" 
d="M541 0l-39 244h-238l-41 -244h-223l219 1204h344l217 -1204h-239zM387 1032h-10l-86 -581h184zM268 -381v221h228v-221h-228zM637 1327h-178l-76 158l-76 -158h-176l143 283h220z" />
    <glyph glyph-name="uni1EA7.smcp" horiz-adv-x="780" 
d="M541 0l-39 244h-238l-41 -244h-223l219 1204h344l217 -1204h-239zM387 1032h-10l-86 -581h184zM637 1327h-178l-76 158l-76 -158h-176l143 283h220zM750 1550h-160l-154 250h215z" />
    <glyph glyph-name="uni1EA9.smcp" horiz-adv-x="780" 
d="M541 0l-39 244h-238l-41 -244h-223l219 1204h344l217 -1204h-239zM387 1032h-10l-86 -581h184zM637 1327h-178l-76 158l-76 -158h-176l143 283h220zM610 1677q0 36 -14 51t-49 15q-43 0 -90 -21l-43 136q85 32 170 32q96 0 141 -43.5t45 -134.5q0 -92 -49 -162h-158
q47 65 47 127z" />
    <glyph glyph-name="uni1EAB.smcp" horiz-adv-x="780" 
d="M541 0l-39 244h-238l-41 -244h-223l219 1204h344l217 -1204h-239zM387 1032h-10l-86 -581h184zM246 1692h-99q1 103 40 151.5t118 48.5q42 0 64 -12t43 -39q13 -20 24 -27.5t33 -7.5q26 0 37 17t16 59h96q-1 -105 -39 -154t-116 -49q-41 0 -62.5 12t-44.5 40
q-11 20 -23 28t-34 8q-27 0 -39.5 -17t-13.5 -58zM637 1327h-178l-76 158l-76 -158h-176l143 283h220z" />
    <glyph glyph-name="adieresis.smcp" horiz-adv-x="780" 
d="M541 0l-39 244h-238l-41 -244h-223l219 1204h344l217 -1204h-239zM387 1032h-10l-86 -581h184zM131 1327v217h209v-217h-209zM426 1327v217h209v-217h-209z" />
    <glyph glyph-name="uni1EA1.smcp" horiz-adv-x="780" 
d="M541 0l-39 244h-238l-41 -244h-223l219 1204h344l217 -1204h-239zM387 1032h-10l-86 -581h184zM268 -381v221h228v-221h-228z" />
    <glyph glyph-name="agrave.smcp" horiz-adv-x="780" 
d="M541 0l-39 244h-238l-41 -244h-223l219 1204h344l217 -1204h-239zM387 1032h-10l-86 -581h184zM471 1327h-180l-176 283h245z" />
    <glyph glyph-name="uni1EA3.smcp" horiz-adv-x="780" 
d="M541 0l-39 244h-238l-41 -244h-223l219 1204h344l217 -1204h-239zM387 1032h-10l-86 -581h184zM397 1466q0 37 -16 53.5t-53 16.5q-52 0 -99 -20l-47 145q101 37 185 37q105 0 153.5 -48t48.5 -147t-53 -176h-172q53 71 53 139z" />
    <glyph glyph-name="amacron.smcp" horiz-adv-x="780" 
d="M541 0l-39 244h-238l-41 -244h-223l219 1204h344l217 -1204h-239zM387 1032h-10l-86 -581h184zM182 1386v164h404v-164h-404z" />
    <glyph glyph-name="aogonek.smcp" horiz-adv-x="780" 
d="M541 0l-39 244h-238l-41 -244h-223l219 1204h344l217 -1204h-239zM387 1032h-10l-86 -581h184zM508 -193q0 130 113 191h159q-56 -30 -82 -61.5t-26 -73.5q0 -43 26 -62.5t82 -19.5v-187q-132 0 -202 56t-70 157z" />
    <glyph glyph-name="aring.smcp" horiz-adv-x="780" 
d="M541 0l-39 244h-238l-41 -244h-223l219 1204h344l217 -1204h-239zM387 1032h-10l-86 -581h184zM188 1337v25q0 79 52.5 128.5t134.5 49.5h12q85 0 135.5 -48t50.5 -130v-25q0 -80 -50.5 -128t-135.5 -48h-12q-82 0 -134.5 48.5t-52.5 127.5zM451 1341v17q0 74 -70 74
t-70 -74v-17q0 -71 70 -71t70 71z" />
    <glyph glyph-name="aringacute.smcp" horiz-adv-x="780" 
d="M541 0l-39 244h-238l-41 -244h-223l219 1204h344l217 -1204h-239zM387 1032h-10l-86 -581h184zM188 1329v25q0 79 52.5 128.5t134.5 49.5h12q85 0 135.5 -48t50.5 -130v-25q0 -80 -50.5 -128t-135.5 -48h-12q-82 0 -134.5 48.5t-52.5 127.5zM451 1333v17q0 73 -70 73
t-70 -73v-17q0 -71 70 -71t70 71zM293 1450l110 283h246l-176 -283h-180z" />
    <glyph glyph-name="atilde.smcp" horiz-adv-x="780" 
d="M541 0l-39 244h-238l-41 -244h-223l219 1204h344l217 -1204h-239zM387 1032h-10l-86 -581h184zM342 1384q-14 20 -23.5 26.5t-27.5 6.5q-26 0 -37.5 -18t-11.5 -62h-131q3 240 184 240q53 0 81.5 -14.5t49.5 -44.5q14 -20 23.5 -26.5t27.5 -6.5q26 0 36.5 17.5t10.5 60.5
h131q-2 -122 -45.5 -180t-134.5 -58q-53 0 -80 13.5t-53 45.5z" />
    <glyph glyph-name="ae.smcp" horiz-adv-x="1064" 
d="M1016 979h-303v-262h264v-215h-264v-279h303v-223h-535v246h-192l-64 -246h-225l313 1200h703v-221zM332 449h149v538h-20z" />
    <glyph glyph-name="aeacute.smcp" horiz-adv-x="1064" 
d="M1016 979h-303v-262h264v-215h-264v-279h303v-223h-535v246h-192l-64 -246h-225l313 1200h703v-221zM332 449h149v538h-20zM510 1327l111 283h245l-176 -283h-180z" />
    <glyph glyph-name="b.smcp" horiz-adv-x="825" 
d="M84 0v1200h303q375 0 375 -309q0 -121 -47.5 -186.5t-145.5 -86.5v-8q111 -20 161 -88t50 -194q0 -167 -90 -247.5t-276 -80.5h-330zM315 702h68q152 0 152 146q0 76 -37.5 110.5t-122.5 34.5h-60v-291zM315 207h72q86 0 122 36t36 122q0 84 -37.5 118.5t-126.5 34.5h-66
v-311z" />
    <glyph glyph-name="c.smcp" horiz-adv-x="804" 
d="M76 352v496q0 379 342 379h16q326 0 326 -379v-103h-221v127q0 81 -26.5 115.5t-86.5 34.5t-86.5 -34.5t-26.5 -115.5v-540q0 -80 26.5 -116t86.5 -36t86.5 36t26.5 116v117h221v-97q0 -191 -79 -285t-243 -94h-24q-172 0 -255 94.5t-83 284.5z" />
    <glyph glyph-name="cacute.smcp" horiz-adv-x="804" 
d="M76 352v496q0 379 342 379h16q326 0 326 -379v-103h-221v127q0 81 -26.5 115.5t-86.5 34.5t-86.5 -34.5t-26.5 -115.5v-540q0 -80 26.5 -116t86.5 -36t86.5 36t26.5 116v117h221v-97q0 -191 -79 -285t-243 -94h-24q-172 0 -255 94.5t-83 284.5zM330 1327l110 283h246
l-176 -283h-180z" />
    <glyph glyph-name="ccaron.smcp" horiz-adv-x="804" 
d="M76 352v496q0 379 342 379h16q326 0 326 -379v-103h-221v127q0 81 -26.5 115.5t-86.5 34.5t-86.5 -34.5t-26.5 -115.5v-540q0 -80 26.5 -116t86.5 -36t86.5 36t26.5 116v117h221v-97q0 -191 -79 -285t-243 -94h-24q-172 0 -255 94.5t-83 284.5zM494 1610h178l-144 -283
h-219l-143 283h176l76 -158z" />
    <glyph glyph-name="ccedilla.smcp" horiz-adv-x="804" 
d="M76 352v496q0 379 342 379h16q326 0 326 -379v-103h-221v127q0 81 -26.5 115.5t-86.5 34.5t-86.5 -34.5t-26.5 -115.5v-540q0 -80 26.5 -116t86.5 -36t86.5 36t26.5 116v117h221v-97q0 -191 -79 -285t-243 -94h-24q-172 0 -255 94.5t-83 284.5zM614 -242
q0 -86 -57.5 -126t-185.5 -40q-62 0 -142 13v133q66 -14 131 -14q56 0 76.5 10t20.5 39t-26 38.5t-112 14.5l58 207h135l-35 -127q70 -11 103.5 -46t33.5 -102z" />
    <glyph glyph-name="ccircumflex.smcp" horiz-adv-x="804" 
d="M76 352v496q0 379 342 379h16q326 0 326 -379v-103h-221v127q0 81 -26.5 115.5t-86.5 34.5t-86.5 -34.5t-26.5 -115.5v-540q0 -80 26.5 -116t86.5 -36t86.5 36t26.5 116v117h221v-97q0 -191 -79 -285t-243 -94h-24q-172 0 -255 94.5t-83 284.5zM672 1327h-178l-76 158
l-76 -158h-176l143 283h219z" />
    <glyph glyph-name="cdotaccent.smcp" horiz-adv-x="804" 
d="M76 352v496q0 379 342 379h16q326 0 326 -379v-103h-221v127q0 81 -26.5 115.5t-86.5 34.5t-86.5 -34.5t-26.5 -115.5v-540q0 -80 26.5 -116t86.5 -36t86.5 36t26.5 116v117h221v-97q0 -191 -79 -285t-243 -94h-24q-172 0 -255 94.5t-83 284.5zM305 1540h227v-248h-227
v248z" />
    <glyph glyph-name="d.smcp" horiz-adv-x="858" 
d="M84 0v1200h317q210 0 302 -95.5t92 -309.5v-392q0 -212 -90 -307.5t-293 -95.5h-328zM319 213h76q93 0 128.5 37.5t35.5 136.5v424q0 98 -36 137t-128 39h-76v-774z" />
    <glyph glyph-name="eth.smcp" horiz-adv-x="862" 
d="M795 795v-392q0 -212 -90 -307.5t-293 -95.5h-328v508h-84v188h84v504h317q210 0 302 -95.5t92 -309.5zM559 387v424q0 98 -36 137t-128 39h-76v-289h119v-190h-119v-295h76q93 0 128.5 37.5t35.5 136.5z" />
    <glyph glyph-name="dcaron.smcp" horiz-adv-x="858" 
d="M84 0v1200h317q210 0 302 -95.5t92 -309.5v-392q0 -212 -90 -307.5t-293 -95.5h-328zM319 213h76q93 0 128.5 37.5t35.5 136.5v424q0 98 -36 137t-128 39h-76v-774zM510 1608h178l-143 -283h-219l-144 283h176l76 -158z" />
    <glyph glyph-name="dcroat.smcp" horiz-adv-x="862" 
d="M795 795v-392q0 -212 -90 -307.5t-293 -95.5h-328v508h-84v188h84v504h317q210 0 302 -95.5t92 -309.5zM559 387v424q0 98 -36 137t-128 39h-76v-289h119v-190h-119v-295h76q93 0 128.5 37.5t35.5 136.5z" />
    <glyph glyph-name="e.smcp" horiz-adv-x="749" 
d="M84 0v1200h616v-217h-387v-268h340v-211h-340v-285h387v-219h-616z" />
    <glyph glyph-name="eacute.smcp" horiz-adv-x="749" 
d="M84 0v1200h616v-217h-387v-268h340v-211h-340v-285h387v-219h-616zM305 1327l111 283h246l-177 -283h-180z" />
    <glyph glyph-name="ebreve.smcp" horiz-adv-x="749" 
d="M84 0v1200h616v-217h-387v-268h340v-211h-340v-285h387v-219h-616zM160 1587h145q3 -117 88 -117q44 0 65.5 28t22.5 89h148q-2 -126 -59 -193t-171 -67h-12q-224 0 -227 260z" />
    <glyph glyph-name="ecaron.smcp" horiz-adv-x="749" 
d="M84 0v1200h616v-217h-387v-268h340v-211h-340v-285h387v-219h-616zM469 1610h178l-143 -283h-219l-144 283h176l76 -158z" />
    <glyph glyph-name="ecircumflex.smcp" horiz-adv-x="749" 
d="M84 0v1200h616v-217h-387v-268h340v-211h-340v-285h387v-219h-616zM647 1327h-178l-76 158l-76 -158h-176l144 283h219z" />
    <glyph glyph-name="uni1EBF.smcp" horiz-adv-x="749" 
d="M84 0v1200h616v-217h-387v-268h340v-211h-340v-285h387v-219h-616zM647 1327h-178l-76 158l-76 -158h-176l144 283h219zM575 1550l99 250h215l-154 -250h-160z" />
    <glyph glyph-name="uni1EC7.smcp" horiz-adv-x="749" 
d="M84 0v1200h616v-217h-387v-268h340v-211h-340v-285h387v-219h-616zM281 -381v221h227v-221h-227zM647 1327h-178l-76 158l-76 -158h-176l144 283h219z" />
    <glyph glyph-name="uni1EC1.smcp" horiz-adv-x="749" 
d="M84 0v1200h616v-217h-387v-268h340v-211h-340v-285h387v-219h-616zM647 1327h-178l-76 158l-76 -158h-176l144 283h219zM760 1550h-160l-154 250h216z" />
    <glyph glyph-name="uni1EC3.smcp" horiz-adv-x="749" 
d="M84 0v1200h616v-217h-387v-268h340v-211h-340v-285h387v-219h-616zM647 1327h-178l-76 158l-76 -158h-176l144 283h219zM621 1677q0 36 -14.5 51t-49.5 15q-43 0 -90 -21l-43 136q85 32 170 32q96 0 141 -43.5t45 -134.5q0 -92 -49 -162h-158q48 67 48 127z" />
    <glyph glyph-name="uni1EC5.smcp" horiz-adv-x="749" 
d="M84 0v1200h616v-217h-387v-268h340v-211h-340v-285h387v-219h-616zM256 1692h-98q1 103 39.5 151.5t117.5 48.5q42 0 64 -12t43 -39q13 -20 24 -27.5t33 -7.5q26 0 37 17t16 59h97q-1 -105 -39.5 -154t-116.5 -49q-41 0 -62 12t-44 40q-11 20 -23.5 28t-34.5 8
q-27 0 -39.5 -17t-13.5 -58zM647 1327h-178l-76 158l-76 -158h-176l144 283h219z" />
    <glyph glyph-name="edieresis.smcp" horiz-adv-x="749" 
d="M84 0v1200h616v-217h-387v-268h340v-211h-340v-285h387v-219h-616zM141 1327v217h209v-217h-209zM436 1327v217h209v-217h-209z" />
    <glyph glyph-name="edotaccent.smcp" horiz-adv-x="749" 
d="M84 0v1200h616v-217h-387v-268h340v-211h-340v-285h387v-219h-616zM281 1540h227v-248h-227v248z" />
    <glyph glyph-name="uni1EB9.smcp" horiz-adv-x="749" 
d="M84 0v1200h616v-217h-387v-268h340v-211h-340v-285h387v-219h-616zM281 -381v221h227v-221h-227z" />
    <glyph glyph-name="egrave.smcp" horiz-adv-x="749" 
d="M84 0v1200h616v-217h-387v-268h340v-211h-340v-285h387v-219h-616zM481 1327h-180l-176 283h246z" />
    <glyph glyph-name="uni1EBB.smcp" horiz-adv-x="749" 
d="M84 0v1200h616v-217h-387v-268h340v-211h-340v-285h387v-219h-616zM408 1466q0 37 -16.5 53.5t-53.5 16.5q-51 0 -98 -20l-47 145q101 37 184 37q105 0 154 -48t49 -147q0 -97 -54 -176h-172q54 73 54 139z" />
    <glyph glyph-name="emacron.smcp" horiz-adv-x="749" 
d="M84 0v1200h616v-217h-387v-268h340v-211h-340v-285h387v-219h-616zM193 1386v164h403v-164h-403z" />
    <glyph glyph-name="eogonek.smcp" horiz-adv-x="749" 
d="M84 0v1200h616v-217h-387v-268h340v-211h-340v-285h387v-219h-616zM428 -193q0 130 113 191h159q-56 -30 -82 -61.5t-26 -73.5q0 -43 26 -62.5t82 -19.5v-187q-132 0 -202 56t-70 157z" />
    <glyph glyph-name="uni1EBD.smcp" horiz-adv-x="749" 
d="M84 0v1200h616v-217h-387v-268h340v-211h-340v-285h387v-219h-616zM352 1384q-14 20 -23.5 26.5t-27.5 6.5q-26 0 -37.5 -18t-11.5 -62h-131q3 240 184 240q53 0 81.5 -14.5t49.5 -44.5q14 -20 23.5 -26.5t27.5 -6.5q26 0 37 17.5t11 60.5h131q-1 -121 -45.5 -179.5
t-135.5 -58.5q-53 0 -80 13.5t-53 45.5z" />
    <glyph glyph-name="uni0259.smcp" horiz-adv-x="849" 
d="M782 848v-496q0 -191 -84 -285t-260 -94h-24q-176 0 -260 94t-84 285v328h477v192q0 82 -27.5 116t-93.5 34t-93.5 -34t-27.5 -116v-67h-235v43q0 379 348 379h16q348 0 348 -379zM547 332v157h-242v-157q0 -79 29 -115.5t92 -36.5t92 36.5t29 115.5z" />
    <glyph glyph-name="f.smcp" horiz-adv-x="737" 
d="M698 1200v-221h-383v-270h344v-213h-344v-496h-231v1200h614z" />
    <glyph glyph-name="g.smcp" horiz-adv-x="827" 
d="M76 352v496q0 377 348 377h16q167 0 247.5 -93.5t80.5 -285.5v-70h-221v96q0 81 -27.5 115.5t-89.5 34.5t-89.5 -34.5t-27.5 -115.5v-542q0 -81 28 -116.5t91 -35.5q62 0 89.5 35.5t27.5 116.5v102h-119v184h338v-264q0 -192 -77.5 -284.5t-246.5 -92.5h-24
q-177 0 -260.5 93t-83.5 284z" />
    <glyph glyph-name="gbreve.smcp" horiz-adv-x="827" 
d="M76 352v496q0 377 348 377h16q167 0 247.5 -93.5t80.5 -285.5v-70h-221v96q0 81 -27.5 115.5t-89.5 34.5t-89.5 -34.5t-27.5 -115.5v-542q0 -81 28 -116.5t91 -35.5q62 0 89.5 35.5t27.5 116.5v102h-119v184h338v-264q0 -192 -77.5 -284.5t-246.5 -92.5h-24
q-177 0 -260.5 93t-83.5 284zM199 1587h145q3 -117 88 -117q44 0 65.5 28t22.5 89h148q-2 -126 -59 -193t-171 -67h-12q-224 0 -227 260z" />
    <glyph glyph-name="gcaron.smcp" horiz-adv-x="827" 
d="M76 352v496q0 377 348 377h16q167 0 247.5 -93.5t80.5 -285.5v-70h-221v96q0 81 -27.5 115.5t-89.5 34.5t-89.5 -34.5t-27.5 -115.5v-542q0 -81 28 -116.5t91 -35.5q62 0 89.5 35.5t27.5 116.5v102h-119v184h338v-264q0 -192 -77.5 -284.5t-246.5 -92.5h-24
q-177 0 -260.5 93t-83.5 284zM508 1610h178l-143 -283h-219l-144 283h176l76 -158z" />
    <glyph glyph-name="gcircumflex.smcp" horiz-adv-x="827" 
d="M76 352v496q0 377 348 377h16q167 0 247.5 -93.5t80.5 -285.5v-70h-221v96q0 81 -27.5 115.5t-89.5 34.5t-89.5 -34.5t-27.5 -115.5v-542q0 -81 28 -116.5t91 -35.5q62 0 89.5 35.5t27.5 116.5v102h-119v184h338v-264q0 -192 -77.5 -284.5t-246.5 -92.5h-24
q-177 0 -260.5 93t-83.5 284zM686 1327h-178l-76 158l-76 -158h-176l144 283h219z" />
    <glyph glyph-name="gcommaaccent.smcp" horiz-adv-x="827" 
d="M76 352v496q0 377 348 377h16q167 0 247.5 -93.5t80.5 -285.5v-70h-221v96q0 81 -27.5 115.5t-89.5 34.5t-89.5 -34.5t-27.5 -115.5v-542q0 -81 28 -116.5t91 -35.5q62 0 89.5 35.5t27.5 116.5v102h-119v184h338v-264q0 -192 -77.5 -284.5t-246.5 -92.5h-24
q-177 0 -260.5 93t-83.5 284zM246 -449l71 289h244l-135 -289h-180z" />
    <glyph glyph-name="gdotaccent.smcp" horiz-adv-x="827" 
d="M76 352v496q0 377 348 377h16q167 0 247.5 -93.5t80.5 -285.5v-70h-221v96q0 81 -27.5 115.5t-89.5 34.5t-89.5 -34.5t-27.5 -115.5v-542q0 -81 28 -116.5t91 -35.5q62 0 89.5 35.5t27.5 116.5v102h-119v184h338v-264q0 -192 -77.5 -284.5t-246.5 -92.5h-24
q-177 0 -260.5 93t-83.5 284zM319 1540h228v-248h-228v248z" />
    <glyph glyph-name="h.smcp" horiz-adv-x="880" 
d="M559 1200h238v-1200h-238v494h-237v-494h-238v1200h238v-485h237v485z" />
    <glyph glyph-name="hbar.smcp" horiz-adv-x="880" 
d="M881 1047v-154h-84v-893h-238v494h-237v-494h-238v893h-84v154h84v153h238v-153h237v153h238v-153h84zM559 715v178h-237v-178h237z" />
    <glyph glyph-name="hcircumflex.smcp" horiz-adv-x="880" 
d="M559 1200h238v-1200h-238v494h-237v-494h-238v1200h238v-485h237v485zM694 1327h-178l-76 158l-75 -158h-177l144 283h219z" />
    <glyph glyph-name="i.smcp" horiz-adv-x="403" 
d="M319 1200v-1200h-235v1200h235z" />
    <glyph glyph-name="i_j.loclNLD.smcp" horiz-adv-x="841" 
d="M74 352v56h237v-74q0 -82 25.5 -117t85.5 -35t84 35t24 117v866h238v-848q0 -190 -81.5 -283.5t-252.5 -93.5h-24q-171 0 -253.5 93.5t-82.5 283.5zM74 487v713h237v-713h-237z" />
    <glyph glyph-name="iacute.smcp" horiz-adv-x="403" 
d="M319 1200v-1200h-235v1200h235zM115 1327l110 283h246l-176 -283h-180z" />
    <glyph glyph-name="iacute_j.loclNLD.smcp" horiz-adv-x="845" 
d="M113 1327l110 283h246l-176 -283h-180zM571 1327l111 283h246l-176 -283h-181zM74 352v56h237v-74q0 -82 25.5 -117t85.5 -35t84 35t24 117v866h238v-848q0 -190 -81.5 -283.5t-252.5 -93.5h-24q-171 0 -253.5 93.5t-82.5 283.5zM74 487v713h237v-713h-237z" />
    <glyph glyph-name="ibreve.smcp" horiz-adv-x="403" 
d="M319 1200v-1200h-235v1200h235zM-31 1587h146q3 -117 88 -117q44 0 65.5 28t22.5 89h147q-3 -260 -229 -260h-12q-225 0 -228 260z" />
    <glyph glyph-name="uni01D0.smcp" horiz-adv-x="403" 
d="M313 1327h-219l-143 283h176l76 -158l76 158h178zM84 0v1200h235v-1200h-235z" />
    <glyph glyph-name="icircumflex.smcp" horiz-adv-x="403" 
d="M201 1464l-84 -137h-146l129 283h207l129 -283h-153zM84 0v1200h235v-1200h-235z" />
    <glyph glyph-name="idieresis.smcp" horiz-adv-x="403" 
d="M-35 1327v211h201v-211h-201zM240 1327v211h200v-211h-200zM319 1200v-1200h-235v1200h235z" />
    <glyph glyph-name="i.loclTRK.smcp" horiz-adv-x="380" 
d="M78 1030h225v-1030h-225v1030zM78 1370h227v-248h-227v248z" />
    <glyph glyph-name="uni1ECB.smcp" horiz-adv-x="403" 
d="M319 1200v-1200h-235v1200h235zM90 -381v221h227v-221h-227z" />
    <glyph glyph-name="igrave.smcp" horiz-adv-x="403" 
d="M319 1200v-1200h-235v1200h235zM291 1327h-180l-177 283h246z" />
    <glyph glyph-name="uni1EC9.smcp" horiz-adv-x="403" 
d="M319 1200v-1200h-235v1200h235zM217 1466q0 37 -16.5 53.5t-53.5 16.5q-51 0 -98 -20l-47 145q101 37 184 37q105 0 154 -48t49 -147t-53 -176h-172q53 71 53 139z" />
    <glyph glyph-name="imacron.smcp" horiz-adv-x="403" 
d="M23 1348v163h360v-163h-360zM319 1200v-1200h-235v1200h235z" />
    <glyph glyph-name="iogonek.smcp" horiz-adv-x="403" 
d="M319 1200v-1200h-235v1200h235zM39 -193q0 130 113 191h159q-56 -30 -82 -61.5t-26 -73.5q0 -43 26 -62.5t82 -19.5v-187q-132 0 -202 56t-70 157z" />
    <glyph glyph-name="itilde.smcp" horiz-adv-x="403" 
d="M174 1372q-15 20 -25 27.5t-28 7.5q-25 0 -36 -18.5t-13 -61.5h-103q1 113 40.5 166t115.5 53q41 0 62.5 -12.5t48.5 -42.5q14 -20 24 -27.5t27 -7.5q25 0 36 18t11 60h102q-1 -114 -38.5 -165.5t-112.5 -51.5q-41 0 -65 13t-46 42zM319 1200v-1200h-235v1200h235z" />
    <glyph glyph-name="j.bold.smcp" horiz-adv-x="778" 
d="M27 352v68h223v-86q0 -80 25.5 -116t82.5 -36q60 0 84.5 35t24.5 117v866h238v-848q0 -190 -81.5 -283.5t-252.5 -93.5h-25q-164 0 -241.5 93t-77.5 284z" />
    <glyph glyph-name="j.smcp" horiz-adv-x="501" 
d="M420 1200v-909q0 -157 -71 -226t-228 -69q-67 0 -105 6v219q40 -4 70 -4q55 0 76.5 20.5t21.5 75.5v887h236z" />
    <glyph glyph-name="uni006A0301.bold.smcp" horiz-adv-x="778" 
d="M27 352v68h223v-86q0 -80 25.5 -116t82.5 -36q60 0 84.5 35t24.5 117v866h238v-848q0 -190 -81.5 -283.5t-252.5 -93.5h-25q-164 0 -241.5 93t-77.5 284zM498 1327l110 283h246l-176 -283h-180z" />
    <glyph glyph-name="uni006A0301.smcp" horiz-adv-x="501" 
d="M420 1200v-909q0 -157 -71 -226t-228 -69q-67 0 -105 6v219q40 -4 70 -4q55 0 76.5 20.5t21.5 75.5v887h236zM213 1327l111 283h245l-176 -283h-180z" />
    <glyph glyph-name="jcircumflex.bold.smcp" horiz-adv-x="778" 
d="M584 1464l-84 -137h-146l129 283h207l129 -283h-153zM467 334v866h238v-848q0 -190 -81.5 -283.5t-252.5 -93.5h-25q-164 0 -241.5 93t-77.5 284v68h223v-86q0 -80 25.5 -116t82.5 -36q60 0 84.5 35t24.5 117z" />
    <glyph glyph-name="jcircumflex.smcp" horiz-adv-x="501" 
d="M299 1464l-84 -137h-145l129 283h207l129 -283h-154zM184 313v887h236v-909q0 -157 -71 -226t-228 -69q-67 0 -105 6v219q40 -4 70 -4q55 0 76.5 20.5t21.5 75.5z" />
    <glyph glyph-name="k.smcp" horiz-adv-x="835" 
d="M551 641l285 -641h-258l-242 530v-530h-242v1198h242v-485h2l242 485h245z" />
    <glyph glyph-name="kcommaaccent.smcp" horiz-adv-x="835" 
d="M551 641l285 -641h-258l-242 530v-530h-242v1198h242v-485h2l242 485h245zM272 -449l72 289h244l-135 -289h-181z" />
    <glyph glyph-name="l.smcp" horiz-adv-x="706" 
d="M319 1200v-977h377v-223h-612v1200h235z" />
    <glyph glyph-name="lacute.smcp" horiz-adv-x="706" 
d="M319 1200v-977h377v-223h-612v1200h235zM115 1327l110 283h246l-176 -283h-180z" />
    <glyph glyph-name="lcaron.smcp" horiz-adv-x="706" 
d="M319 1200v-977h377v-223h-612v1200h235zM471 1180h191l-37 -332h-154v332z" />
    <glyph glyph-name="lcommaaccent.smcp" horiz-adv-x="706" 
d="M319 1200v-977h377v-223h-612v1200h235zM205 -449l71 289h244l-135 -289h-180z" />
    <glyph glyph-name="ldot.smcp" horiz-adv-x="749" 
d="M330 1200v-977h377v-223h-613v1200h236zM436 836h240v-246h-240v246z" />
    <glyph glyph-name="lslash.smcp" horiz-adv-x="749" 
d="M365 223h376v-223h-612v651l-82 -35v179l82 34v371h236v-282l157 65v-178l-157 -68v-514z" />
    <glyph glyph-name="m.smcp" horiz-adv-x="1210" 
d="M84 0v1200h381l141 -811h4l144 811h372v-1200h-231v1008h-4l-172 -1008h-240l-174 1008h-4l2 -1008h-219z" />
    <glyph glyph-name="n.smcp" horiz-adv-x="880" 
d="M84 0v1200h240l258 -702h6v702h209v-1200h-240l-258 702h-6v-702h-209z" />
    <glyph glyph-name="nacute.smcp" horiz-adv-x="880" 
d="M84 0v1200h240l258 -702h6v702h209v-1200h-240l-258 702h-6v-702h-209zM352 1327l111 283h246l-177 -283h-180z" />
    <glyph glyph-name="ncaron.smcp" horiz-adv-x="880" 
d="M84 0v1200h240l258 -702h6v702h209v-1200h-240l-258 702h-6v-702h-209zM516 1610h178l-143 -283h-219l-144 283h177l75 -158z" />
    <glyph glyph-name="ncommaaccent.smcp" horiz-adv-x="880" 
d="M84 0v1200h240l258 -702h6v702h209v-1200h-240l-258 702h-6v-702h-209zM254 -449l72 289h243l-135 -289h-180z" />
    <glyph glyph-name="eng.smcp" horiz-adv-x="880" 
d="M477 -266v186q10 -1 20.5 -2t16 -1.5t8.5 -0.5q33 0 47.5 11t14.5 40v19l-289 942h-8v-928h-205v1200h332l172 -557h8v557h205v-1229q0 -130 -56.5 -186.5t-185.5 -56.5q-37 0 -80 6z" />
    <glyph glyph-name="uni0272.smcp" horiz-adv-x="880" 
d="M-47 -244v181q45 -5 63 -5q37 0 52.5 15t15.5 53v1200h240l258 -702h6v702h209v-1200h-240l-258 702h-6v-704q0 -133 -58 -190.5t-188 -57.5q-45 0 -94 6z" />
    <glyph glyph-name="ntilde.smcp" horiz-adv-x="880" 
d="M84 0v1200h240l258 -702h6v702h209v-1200h-240l-258 702h-6v-702h-209zM399 1384q-14 20 -23.5 26.5t-27.5 6.5q-26 0 -37.5 -18t-11.5 -62h-131q3 240 184 240q53 0 81.5 -14.5t49.5 -44.5q14 -20 24 -26.5t28 -6.5q26 0 36.5 17.5t10.5 60.5h131q-1 -121 -45.5 -179.5
t-135.5 -58.5q-53 0 -80 13.5t-53 45.5z" />
    <glyph glyph-name="o.smcp" horiz-adv-x="849" 
d="M70 352v496q0 379 348 379h16q348 0 348 -379v-496q0 -191 -84 -285t-260 -94h-24q-176 0 -260 94t-84 285zM547 332v540q0 82 -27.5 116t-93.5 34t-93.5 -34t-27.5 -116v-540q0 -79 29 -115.5t92 -36.5t92 36.5t29 115.5z" />
    <glyph glyph-name="oacute.smcp" horiz-adv-x="849" 
d="M70 352v496q0 379 348 379h16q348 0 348 -379v-496q0 -191 -84 -285t-260 -94h-24q-176 0 -260 94t-84 285zM547 332v540q0 82 -27.5 116t-93.5 34t-93.5 -34t-27.5 -116v-540q0 -79 29 -115.5t92 -36.5t92 36.5t29 115.5zM338 1327l111 283h245l-176 -283h-180z" />
    <glyph glyph-name="obreve.smcp" horiz-adv-x="849" 
d="M70 352v496q0 379 348 379h16q348 0 348 -379v-496q0 -191 -84 -285t-260 -94h-24q-176 0 -260 94t-84 285zM547 332v540q0 82 -27.5 116t-93.5 34t-93.5 -34t-27.5 -116v-540q0 -79 29 -115.5t92 -36.5t92 36.5t29 115.5zM193 1587h145q3 -117 88 -117q44 0 65.5 28
t22.5 89h148q-2 -126 -59 -193t-171 -67h-12q-224 0 -227 260z" />
    <glyph glyph-name="uni01D2.smcp" horiz-adv-x="849" 
d="M70 352v496q0 379 348 379h16q348 0 348 -379v-496q0 -191 -84 -285t-260 -94h-24q-176 0 -260 94t-84 285zM547 332v540q0 82 -27.5 116t-93.5 34t-93.5 -34t-27.5 -116v-540q0 -79 29 -115.5t92 -36.5t92 36.5t29 115.5zM502 1610h178l-143 -283h-220l-143 283h176
l76 -158z" />
    <glyph glyph-name="ocircumflex.smcp" horiz-adv-x="849" 
d="M70 352v496q0 379 348 379h16q348 0 348 -379v-496q0 -191 -84 -285t-260 -94h-24q-176 0 -260 94t-84 285zM547 332v540q0 82 -27.5 116t-93.5 34t-93.5 -34t-27.5 -116v-540q0 -79 29 -115.5t92 -36.5t92 36.5t29 115.5zM680 1327h-178l-76 158l-76 -158h-176l143 283
h220z" />
    <glyph glyph-name="uni1ED1.smcp" horiz-adv-x="849" 
d="M70 352v496q0 379 348 379h16q348 0 348 -379v-496q0 -191 -84 -285t-260 -94h-24q-176 0 -260 94t-84 285zM547 332v540q0 82 -27.5 116t-93.5 34t-93.5 -34t-27.5 -116v-540q0 -79 29 -115.5t92 -36.5t92 36.5t29 115.5zM680 1327h-178l-76 158l-76 -158h-176l143 283
h220zM608 1550l99 250h215l-154 -250h-160z" />
    <glyph glyph-name="uni1ED9.smcp" horiz-adv-x="849" 
d="M70 352v496q0 379 348 379h16q348 0 348 -379v-496q0 -191 -84 -285t-260 -94h-24q-176 0 -260 94t-84 285zM547 332v540q0 82 -27.5 116t-93.5 34t-93.5 -34t-27.5 -116v-540q0 -79 29 -115.5t92 -36.5t92 36.5t29 115.5zM313 -381v221h228v-221h-228zM680 1327h-178
l-76 158l-76 -158h-176l143 283h220z" />
    <glyph glyph-name="uni1ED3.smcp" horiz-adv-x="849" 
d="M70 352v496q0 379 348 379h16q348 0 348 -379v-496q0 -191 -84 -285t-260 -94h-24q-176 0 -260 94t-84 285zM547 332v540q0 82 -27.5 116t-93.5 34t-93.5 -34t-27.5 -116v-540q0 -79 29 -115.5t92 -36.5t92 36.5t29 115.5zM680 1327h-178l-76 158l-76 -158h-176l143 283
h220zM793 1550h-160l-154 250h215z" />
    <glyph glyph-name="uni1ED5.smcp" horiz-adv-x="849" 
d="M70 352v496q0 379 348 379h16q348 0 348 -379v-496q0 -191 -84 -285t-260 -94h-24q-176 0 -260 94t-84 285zM547 332v540q0 82 -27.5 116t-93.5 34t-93.5 -34t-27.5 -116v-540q0 -79 29 -115.5t92 -36.5t92 36.5t29 115.5zM680 1327h-178l-76 158l-76 -158h-176l143 283
h220zM653 1677q0 36 -14 51t-49 15q-44 0 -90 -21l-43 136q85 32 170 32q96 0 141 -43.5t45 -134.5q0 -92 -49 -162h-158q47 65 47 127z" />
    <glyph glyph-name="uni1ED7.smcp" horiz-adv-x="849" 
d="M70 352v496q0 379 348 379h16q348 0 348 -379v-496q0 -191 -84 -285t-260 -94h-24q-176 0 -260 94t-84 285zM547 332v540q0 82 -27.5 116t-93.5 34t-93.5 -34t-27.5 -116v-540q0 -79 29 -115.5t92 -36.5t92 36.5t29 115.5zM289 1692h-99q1 103 40 151.5t118 48.5
q42 0 64 -12t43 -39q13 -20 24 -27.5t33 -7.5q26 0 37 17t16 59h97q-1 -105 -39.5 -154t-116.5 -49q-41 0 -62.5 12t-44.5 40q-11 20 -23 28t-34 8q-27 0 -39.5 -17t-13.5 -58zM680 1327h-178l-76 158l-76 -158h-176l143 283h220z" />
    <glyph glyph-name="odieresis.smcp" horiz-adv-x="849" 
d="M70 352v496q0 379 348 379h16q348 0 348 -379v-496q0 -191 -84 -285t-260 -94h-24q-176 0 -260 94t-84 285zM547 332v540q0 82 -27.5 116t-93.5 34t-93.5 -34t-27.5 -116v-540q0 -79 29 -115.5t92 -36.5t92 36.5t29 115.5zM174 1327v217h209v-217h-209zM469 1327v217h209
v-217h-209z" />
    <glyph glyph-name="uni1ECD.smcp" horiz-adv-x="849" 
d="M70 352v496q0 379 348 379h16q348 0 348 -379v-496q0 -191 -84 -285t-260 -94h-24q-176 0 -260 94t-84 285zM547 332v540q0 82 -27.5 116t-93.5 34t-93.5 -34t-27.5 -116v-540q0 -79 29 -115.5t92 -36.5t92 36.5t29 115.5zM313 -381v221h228v-221h-228z" />
    <glyph glyph-name="ograve.smcp" horiz-adv-x="849" 
d="M70 352v496q0 379 348 379h16q348 0 348 -379v-496q0 -191 -84 -285t-260 -94h-24q-176 0 -260 94t-84 285zM547 332v540q0 82 -27.5 116t-93.5 34t-93.5 -34t-27.5 -116v-540q0 -79 29 -115.5t92 -36.5t92 36.5t29 115.5zM514 1327h-180l-176 283h245z" />
    <glyph glyph-name="uni1ECF.smcp" horiz-adv-x="849" 
d="M70 352v496q0 379 348 379h16q348 0 348 -379v-496q0 -191 -84 -285t-260 -94h-24q-176 0 -260 94t-84 285zM547 332v540q0 82 -27.5 116t-93.5 34t-93.5 -34t-27.5 -116v-540q0 -79 29 -115.5t92 -36.5t92 36.5t29 115.5zM440 1466q0 37 -16 53.5t-53 16.5
q-52 0 -99 -20l-47 145q101 37 185 37q105 0 153.5 -48t48.5 -147t-53 -176h-172q53 71 53 139z" />
    <glyph glyph-name="ohorn.smcp" horiz-adv-x="849" 
d="M70 352v496q0 379 348 379h16q348 0 348 -379v-496q0 -191 -84 -285t-260 -94h-24q-176 0 -260 94t-84 285zM547 332v540q0 82 -27.5 116t-93.5 34t-93.5 -34t-27.5 -116v-540q0 -79 29 -115.5t92 -36.5t92 36.5t29 115.5zM639 1057l-137 143q89 0 128.5 32t39.5 101
q0 41 -17 107h205q12 -59 12 -107q0 -124 -61 -197t-170 -79z" />
    <glyph glyph-name="uni1EDB.smcp" horiz-adv-x="849" 
d="M70 352v496q0 379 348 379h16q348 0 348 -379v-496q0 -191 -84 -285t-260 -94h-24q-176 0 -260 94t-84 285zM547 332v540q0 82 -27.5 116t-93.5 34t-93.5 -34t-27.5 -116v-540q0 -79 29 -115.5t92 -36.5t92 36.5t29 115.5zM639 1057l-137 143q89 0 128.5 32t39.5 101
q0 41 -17 107h205q12 -59 12 -107q0 -124 -61 -197t-170 -79zM338 1327l111 283h245l-176 -283h-180z" />
    <glyph glyph-name="uni1EE3.smcp" horiz-adv-x="849" 
d="M70 352v496q0 379 348 379h16q348 0 348 -379v-496q0 -191 -84 -285t-260 -94h-24q-176 0 -260 94t-84 285zM547 332v540q0 82 -27.5 116t-93.5 34t-93.5 -34t-27.5 -116v-540q0 -79 29 -115.5t92 -36.5t92 36.5t29 115.5zM639 1057l-137 143q89 0 128.5 32t39.5 101
q0 41 -17 107h205q12 -59 12 -107q0 -124 -61 -197t-170 -79zM313 -381v221h228v-221h-228z" />
    <glyph glyph-name="uni1EDD.smcp" horiz-adv-x="849" 
d="M70 352v496q0 379 348 379h16q348 0 348 -379v-496q0 -191 -84 -285t-260 -94h-24q-176 0 -260 94t-84 285zM547 332v540q0 82 -27.5 116t-93.5 34t-93.5 -34t-27.5 -116v-540q0 -79 29 -115.5t92 -36.5t92 36.5t29 115.5zM639 1057l-137 143q89 0 128.5 32t39.5 101
q0 41 -17 107h205q12 -59 12 -107q0 -124 -61 -197t-170 -79zM514 1327h-180l-176 283h245z" />
    <glyph glyph-name="uni1EDF.smcp" horiz-adv-x="849" 
d="M70 352v496q0 379 348 379h16q348 0 348 -379v-496q0 -191 -84 -285t-260 -94h-24q-176 0 -260 94t-84 285zM547 332v540q0 82 -27.5 116t-93.5 34t-93.5 -34t-27.5 -116v-540q0 -79 29 -115.5t92 -36.5t92 36.5t29 115.5zM639 1057l-137 143q89 0 128.5 32t39.5 101
q0 41 -17 107h205q12 -59 12 -107q0 -124 -61 -197t-170 -79zM440 1466q0 37 -16 53.5t-53 16.5q-52 0 -99 -20l-47 145q101 37 185 37q105 0 153.5 -48t48.5 -147t-53 -176h-172q53 71 53 139z" />
    <glyph glyph-name="uni1EE1.smcp" horiz-adv-x="849" 
d="M70 352v496q0 379 348 379h16q348 0 348 -379v-496q0 -191 -84 -285t-260 -94h-24q-176 0 -260 94t-84 285zM547 332v540q0 82 -27.5 116t-93.5 34t-93.5 -34t-27.5 -116v-540q0 -79 29 -115.5t92 -36.5t92 36.5t29 115.5zM639 1057l-137 143q89 0 128.5 32t39.5 101
q0 41 -17 107h205q12 -59 12 -107q0 -124 -61 -197t-170 -79zM385 1384q-14 20 -23.5 26.5t-27.5 6.5q-26 0 -37.5 -18t-11.5 -62h-131q3 240 184 240q53 0 81.5 -14.5t49.5 -44.5q14 -20 23.5 -26.5t27.5 -6.5q26 0 36.5 17.5t10.5 60.5h131q-2 -122 -45.5 -180t-134.5 -58
q-53 0 -80 13.5t-53 45.5z" />
    <glyph glyph-name="ohungarumlaut.smcp" horiz-adv-x="849" 
d="M70 352v496q0 379 348 379h16q348 0 348 -379v-496q0 -191 -84 -285t-260 -94h-24q-176 0 -260 94t-84 285zM547 332v540q0 82 -27.5 116t-93.5 34t-93.5 -34t-27.5 -116v-540q0 -79 29 -115.5t92 -36.5t92 36.5t29 115.5zM201 1327l98 283h219l-151 -283h-166zM481 1327
l99 283h219l-152 -283h-166z" />
    <glyph glyph-name="omacron.smcp" horiz-adv-x="849" 
d="M70 352v496q0 379 348 379h16q348 0 348 -379v-496q0 -191 -84 -285t-260 -94h-24q-176 0 -260 94t-84 285zM547 332v540q0 82 -27.5 116t-93.5 34t-93.5 -34t-27.5 -116v-540q0 -79 29 -115.5t92 -36.5t92 36.5t29 115.5zM225 1386v164h404v-164h-404z" />
    <glyph glyph-name="uni01EB.smcp" horiz-adv-x="849" 
d="M70 352v496q0 379 348 379h16q348 0 348 -379v-496q0 -191 -84 -285t-260 -94h-24q-176 0 -260 94t-84 285zM547 332v540q0 82 -27.5 116t-93.5 34t-93.5 -34t-27.5 -116v-540q0 -79 29 -115.5t92 -36.5t92 36.5t29 115.5zM264 -193q0 130 113 191h160q-57 -30 -83 -61.5
t-26 -73.5q0 -82 109 -82v-187q-132 0 -202.5 56t-70.5 157z" />
    <glyph glyph-name="oslash.smcp" horiz-adv-x="849" 
d="M782 848v-496q0 -191 -84 -285t-260 -94h-24q-60 0 -101 9l-47 -146l-139 43l53 164q-110 88 -110 309v496q0 379 348 379h16q46 0 111 -10l47 147l139 -45l-55 -168q106 -93 106 -303zM301 877v-480l174 623q-21 6 -49 6q-68 0 -96.5 -34t-28.5 -115zM551 330v446
l-166 -596q32 -4 41 -4q66 0 95.5 36t29.5 118z" />
    <glyph glyph-name="oslashacute.smcp" horiz-adv-x="849" 
d="M782 848v-496q0 -191 -84 -285t-260 -94h-24q-60 0 -101 9l-47 -146l-139 43l53 164q-110 88 -110 309v496q0 379 348 379h16q46 0 111 -10l47 147l139 -45l-55 -168q106 -93 106 -303zM301 877v-480l174 623q-21 6 -49 6q-68 0 -96.5 -34t-28.5 -115zM551 330v446
l-166 -596q32 -4 41 -4q66 0 95.5 36t29.5 118zM338 1327l111 283h245l-176 -283h-180z" />
    <glyph glyph-name="otilde.smcp" horiz-adv-x="849" 
d="M70 352v496q0 379 348 379h16q348 0 348 -379v-496q0 -191 -84 -285t-260 -94h-24q-176 0 -260 94t-84 285zM547 332v540q0 82 -27.5 116t-93.5 34t-93.5 -34t-27.5 -116v-540q0 -79 29 -115.5t92 -36.5t92 36.5t29 115.5zM385 1384q-14 20 -23.5 26.5t-27.5 6.5
q-26 0 -37.5 -18t-11.5 -62h-131q3 240 184 240q53 0 81.5 -14.5t49.5 -44.5q14 -20 23.5 -26.5t27.5 -6.5q26 0 36.5 17.5t10.5 60.5h131q-2 -122 -45.5 -180t-134.5 -58q-53 0 -80 13.5t-53 45.5z" />
    <glyph glyph-name="oe.smcp" horiz-adv-x="1093" 
d="M63 393v406q0 212 88.5 306.5t290.5 94.5h600v-217h-303v-268h265v-211h-265v-285h303v-219h-612q-192 0 -279.5 94.5t-87.5 298.5zM451 219h63v764h-63q-86 0 -119 -38.5t-33 -137.5v-406q0 -106 32 -144t120 -38z" />
    <glyph glyph-name="p.smcp" horiz-adv-x="804" 
d="M84 0v1200h324q196 0 285 -92t89 -291q0 -202 -93.5 -294.5t-297.5 -92.5h-72v-430h-235zM319 631h66q88 0 124 41t36 141q0 98 -36 137t-124 39h-66v-358z" />
    <glyph glyph-name="thorn.smcp" horiz-adv-x="804" 
d="M84 0v1200h235v-205h89q196 0 285 -91t89 -290q0 -203 -93.5 -296t-297.5 -93h-72v-225h-235zM319 428h66q88 0 124 41t36 139t-36 138t-124 40h-66v-358z" />
    <glyph glyph-name="q.smcp" horiz-adv-x="849" 
d="M803 -223h-252l-98 196h-15h-24q-176 0 -260 94t-84 285v496q0 379 348 379h16q348 0 348 -379v-496q0 -230 -120 -319zM426 180q63 0 92 36.5t29 115.5v540q0 82 -27.5 116t-93.5 34t-93.5 -34t-27.5 -116v-540q0 -79 29 -115.5t92 -36.5z" />
    <glyph glyph-name="r.smcp" horiz-adv-x="829" 
d="M788 0h-237l-129 459h-105v-459h-233v1200h319q195 0 287 -89t92 -273q0 -234 -141 -324zM317 664h74q85 0 119.5 36.5t34.5 126.5q0 92 -35 129t-121 37h-72v-329z" />
    <glyph glyph-name="racute.smcp" horiz-adv-x="829" 
d="M788 0h-237l-129 459h-105v-459h-233v1200h319q195 0 287 -89t92 -273q0 -234 -141 -324zM317 664h74q85 0 119.5 36.5t34.5 126.5q0 92 -35 129t-121 37h-72v-329zM344 1327l111 283h245l-176 -283h-180z" />
    <glyph glyph-name="rcaron.smcp" horiz-adv-x="829" 
d="M788 0h-237l-129 459h-105v-459h-233v1200h319q195 0 287 -89t92 -273q0 -234 -141 -324zM317 664h74q85 0 119.5 36.5t34.5 126.5q0 92 -35 129t-121 37h-72v-329zM508 1610h178l-143 -283h-219l-144 283h176l76 -158z" />
    <glyph glyph-name="rcommaaccent.smcp" horiz-adv-x="829" 
d="M788 0h-237l-129 459h-105v-459h-233v1200h319q195 0 287 -89t92 -273q0 -234 -141 -324zM317 664h74q85 0 119.5 36.5t34.5 126.5q0 92 -35 129t-121 37h-72v-329zM250 -449l72 289h243l-135 -289h-180z" />
    <glyph glyph-name="s.smcp" horiz-adv-x="761" 
d="M41 336v49h235v-70q0 -81 25.5 -114t85.5 -33q62 0 83.5 29t21.5 106q-6 87 -26.5 113t-137.5 93q-12 7 -19 11q-77 44 -120 75t-78.5 74t-50 96.5t-17.5 131.5q0 330 332 330h16q165 0 247.5 -92.5t82.5 -270.5v-39h-236v56q0 86 -24 118.5t-84 32.5q-56 0 -81.5 -27.5
t-25.5 -89.5q0 -45 17 -84q18 -31 51 -55.5t115 -70.5q60 -33 92.5 -52.5t67.5 -46.5t51 -49.5t31 -58t20.5 -76t7.5 -98.5q0 -181 -79 -266t-251 -85h-22q-170 0 -250 89t-80 274z" />
    <glyph glyph-name="sacute.smcp" horiz-adv-x="761" 
d="M41 336v49h235v-70q0 -81 25.5 -114t85.5 -33q62 0 83.5 29t21.5 106q-6 87 -26.5 113t-137.5 93q-12 7 -19 11q-77 44 -120 75t-78.5 74t-50 96.5t-17.5 131.5q0 330 332 330h16q165 0 247.5 -92.5t82.5 -270.5v-39h-236v56q0 86 -24 118.5t-84 32.5q-56 0 -81.5 -27.5
t-25.5 -89.5q0 -45 17 -84q18 -31 51 -55.5t115 -70.5q60 -33 92.5 -52.5t67.5 -46.5t51 -49.5t31 -58t20.5 -76t7.5 -98.5q0 -181 -79 -266t-251 -85h-22q-170 0 -250 89t-80 274zM293 1325l110 283h246l-176 -283h-180z" />
    <glyph glyph-name="scaron.smcp" horiz-adv-x="761" 
d="M41 336v49h235v-70q0 -81 25.5 -114t85.5 -33q62 0 83.5 29t21.5 106q-6 87 -26.5 113t-137.5 93q-12 7 -19 11q-77 44 -120 75t-78.5 74t-50 96.5t-17.5 131.5q0 330 332 330h16q165 0 247.5 -92.5t82.5 -270.5v-39h-236v56q0 86 -24 118.5t-84 32.5q-56 0 -81.5 -27.5
t-25.5 -89.5q0 -45 17 -84q18 -31 51 -55.5t115 -70.5q60 -33 92.5 -52.5t67.5 -46.5t51 -49.5t31 -58t20.5 -76t7.5 -98.5q0 -181 -79 -266t-251 -85h-22q-170 0 -250 89t-80 274zM457 1608h178l-143 -283h-220l-143 283h176l76 -158z" />
    <glyph glyph-name="scedilla.smcp" horiz-adv-x="761" 
d="M41 336v49h235v-70q0 -81 25.5 -114t85.5 -33q62 0 83.5 29t21.5 106q-6 87 -26.5 113t-137.5 93q-12 7 -19 11q-77 44 -120 75t-78.5 74t-50 96.5t-17.5 131.5q0 330 332 330h16q165 0 247.5 -92.5t82.5 -270.5v-39h-236v56q0 86 -24 118.5t-84 32.5q-56 0 -81.5 -27.5
t-25.5 -89.5q0 -45 17 -84q18 -31 51 -55.5t115 -70.5q60 -33 92.5 -52.5t67.5 -46.5t51 -49.5t31 -58t20.5 -76t7.5 -98.5q0 -181 -79 -266t-251 -85h-22q-170 0 -250 89t-80 274zM580 -242q0 -86 -58 -126t-186 -40q-61 0 -141 13v133q66 -14 131 -14q56 0 76 10t20 39
t-25.5 38.5t-111.5 14.5l57 207h135l-35 -127q70 -11 104 -46.5t34 -101.5z" />
    <glyph glyph-name="scircumflex.smcp" horiz-adv-x="761" 
d="M41 336v49h235v-70q0 -81 25.5 -114t85.5 -33q62 0 83.5 29t21.5 106q-6 87 -26.5 113t-137.5 93q-12 7 -19 11q-77 44 -120 75t-78.5 74t-50 96.5t-17.5 131.5q0 330 332 330h16q165 0 247.5 -92.5t82.5 -270.5v-39h-236v56q0 86 -24 118.5t-84 32.5q-56 0 -81.5 -27.5
t-25.5 -89.5q0 -45 17 -84q18 -31 51 -55.5t115 -70.5q60 -33 92.5 -52.5t67.5 -46.5t51 -49.5t31 -58t20.5 -76t7.5 -98.5q0 -181 -79 -266t-251 -85h-22q-170 0 -250 89t-80 274zM635 1325h-178l-76 158l-76 -158h-176l143 283h220z" />
    <glyph glyph-name="scommaaccent.smcp" horiz-adv-x="761" 
d="M41 336v49h235v-70q0 -81 25.5 -114t85.5 -33q62 0 83.5 29t21.5 106q-6 87 -26.5 113t-137.5 93q-12 7 -19 11q-77 44 -120 75t-78.5 74t-50 96.5t-17.5 131.5q0 330 332 330h16q165 0 247.5 -92.5t82.5 -270.5v-39h-236v56q0 86 -24 118.5t-84 32.5q-56 0 -81.5 -27.5
t-25.5 -89.5q0 -45 17 -84q18 -31 51 -55.5t115 -70.5q60 -33 92.5 -52.5t67.5 -46.5t51 -49.5t31 -58t20.5 -76t7.5 -98.5q0 -181 -79 -266t-251 -85h-22q-170 0 -250 89t-80 274zM197 -449l71 289h244l-135 -289h-180z" />
    <glyph glyph-name="germandbls.smcp" horiz-adv-x="870" 
d="M829 530v-245q0 -147 -81.5 -218t-249.5 -71q-24 0 -90 4v213q46 -4 79 -4q59 0 82 23t23 81v183q0 37 -15.5 51t-56.5 14h-94v180l111 242h-218v-983h-235v1198h690v-176l-119 -264q84 -13 129 -73t45 -155z" />
    <glyph glyph-name="t.smcp" horiz-adv-x="724" 
d="M246 0v979h-226v221h687v-221h-226v-979h-235z" />
    <glyph glyph-name="tbar.smcp" horiz-adv-x="722" 
d="M707 979h-226v-363h150v-151h-150v-465h-235v465h-152v151h152v363h-226v221h687v-221z" />
    <glyph glyph-name="tcaron.smcp" horiz-adv-x="724" 
d="M246 0v979h-226v221h687v-221h-226v-979h-235zM438 1610h178l-143 -283h-219l-143 283h176l75 -158z" />
    <glyph glyph-name="uni0163.smcp" horiz-adv-x="724" 
d="M246 0v979h-226v221h687v-221h-226v-979h-235zM559 -242q0 -86 -58 -126t-186 -40q-61 0 -141 13v133q66 -14 131 -14q56 0 76 10t20 39t-25.5 38.5t-111.5 14.5l58 207h135l-35 -127q70 -11 103.5 -46t33.5 -102z" />
    <glyph glyph-name="uni021B.smcp" horiz-adv-x="724" 
d="M246 0v979h-226v221h687v-221h-226v-979h-235zM176 -449l72 289h244l-136 -289h-180z" />
    <glyph glyph-name="u.smcp" horiz-adv-x="845" 
d="M74 352v848h235v-866q0 -79 29 -115.5t92 -36.5q66 0 93.5 35t27.5 117v866h221v-850q0 -190 -81 -282.5t-253 -92.5h-24q-173 0 -256.5 93.5t-83.5 283.5z" />
    <glyph glyph-name="uacute.smcp" horiz-adv-x="845" 
d="M74 352v848h235v-866q0 -79 29 -115.5t92 -36.5q66 0 93.5 35t27.5 117v866h221v-850q0 -190 -81 -282.5t-253 -92.5h-24q-173 0 -256.5 93.5t-83.5 283.5zM336 1327l110 283h246l-176 -283h-180z" />
    <glyph glyph-name="ubreve.smcp" horiz-adv-x="845" 
d="M74 352v848h235v-866q0 -79 29 -115.5t92 -36.5q66 0 93.5 35t27.5 117v866h221v-850q0 -190 -81 -282.5t-253 -92.5h-24q-173 0 -256.5 93.5t-83.5 283.5zM190 1587h146q3 -117 88 -117q44 0 65.5 28t22.5 89h147q-3 -260 -229 -260h-12q-225 0 -228 260z" />
    <glyph glyph-name="uni01D4.smcp" horiz-adv-x="845" 
d="M74 352v848h235v-866q0 -79 29 -115.5t92 -36.5q66 0 93.5 35t27.5 117v866h221v-850q0 -190 -81 -282.5t-253 -92.5h-24q-173 0 -256.5 93.5t-83.5 283.5zM500 1610h178l-143 -283h-220l-143 283h176l76 -158z" />
    <glyph glyph-name="ucircumflex.smcp" horiz-adv-x="845" 
d="M74 352v848h235v-866q0 -79 29 -115.5t92 -36.5q66 0 93.5 35t27.5 117v866h221v-850q0 -190 -81 -282.5t-253 -92.5h-24q-173 0 -256.5 93.5t-83.5 283.5zM678 1327h-178l-76 158l-76 -158h-176l143 283h220z" />
    <glyph glyph-name="udieresis.smcp" horiz-adv-x="845" 
d="M74 352v848h235v-866q0 -79 29 -115.5t92 -36.5q66 0 93.5 35t27.5 117v866h221v-850q0 -190 -81 -282.5t-253 -92.5h-24q-173 0 -256.5 93.5t-83.5 283.5zM172 1327v217h209v-217h-209zM467 1327v217h209v-217h-209z" />
    <glyph glyph-name="uni01D8.smcp" horiz-adv-x="845" 
d="M74 352v848h235v-866q0 -79 29 -115.5t92 -36.5q66 0 93.5 35t27.5 117v866h221v-850q0 -190 -81 -282.5t-253 -92.5h-24q-173 0 -256.5 93.5t-83.5 283.5zM172 1327v217h209v-217h-209zM467 1327v217h209v-217h-209zM336 1628l110 283h246l-176 -283h-180z" />
    <glyph glyph-name="uni01DA.smcp" horiz-adv-x="845" 
d="M74 352v848h235v-866q0 -79 29 -115.5t92 -36.5q66 0 93.5 35t27.5 117v866h221v-850q0 -190 -81 -282.5t-253 -92.5h-24q-173 0 -256.5 93.5t-83.5 283.5zM172 1327v217h209v-217h-209zM467 1327v217h209v-217h-209zM500 1911h178l-143 -283h-220l-143 283h176l76 -158z
" />
    <glyph glyph-name="uni01DC.smcp" horiz-adv-x="845" 
d="M74 352v848h235v-866q0 -79 29 -115.5t92 -36.5q66 0 93.5 35t27.5 117v866h221v-850q0 -190 -81 -282.5t-253 -92.5h-24q-173 0 -256.5 93.5t-83.5 283.5zM172 1327v217h209v-217h-209zM467 1327v217h209v-217h-209zM512 1628h-180l-176 283h245z" />
    <glyph glyph-name="uni01D6.smcp" horiz-adv-x="845" 
d="M74 352v848h235v-866q0 -79 29 -115.5t92 -36.5q66 0 93.5 35t27.5 117v866h221v-850q0 -190 -81 -282.5t-253 -92.5h-24q-173 0 -256.5 93.5t-83.5 283.5zM172 1327v217h209v-217h-209zM467 1327v217h209v-217h-209zM223 1688v163h404v-163h-404z" />
    <glyph glyph-name="uni1EE5.smcp" horiz-adv-x="845" 
d="M74 352v848h235v-866q0 -79 29 -115.5t92 -36.5q66 0 93.5 35t27.5 117v866h221v-850q0 -190 -81 -282.5t-253 -92.5h-24q-173 0 -256.5 93.5t-83.5 283.5zM311 -381v221h228v-221h-228z" />
    <glyph glyph-name="ugrave.smcp" horiz-adv-x="845" 
d="M74 352v848h235v-866q0 -79 29 -115.5t92 -36.5q66 0 93.5 35t27.5 117v866h221v-850q0 -190 -81 -282.5t-253 -92.5h-24q-173 0 -256.5 93.5t-83.5 283.5zM512 1327h-180l-176 283h245z" />
    <glyph glyph-name="uni1EE7.smcp" horiz-adv-x="845" 
d="M74 352v848h235v-866q0 -79 29 -115.5t92 -36.5q66 0 93.5 35t27.5 117v866h221v-850q0 -190 -81 -282.5t-253 -92.5h-24q-173 0 -256.5 93.5t-83.5 283.5zM438 1466q0 37 -16 53.5t-53 16.5q-52 0 -99 -20l-47 145q101 37 185 37q105 0 153.5 -48t48.5 -147t-53 -176
h-172q53 71 53 139z" />
    <glyph glyph-name="uhorn.smcp" horiz-adv-x="845" 
d="M74 352v848h235v-866q0 -79 29 -115.5t92 -36.5q66 0 93.5 35t27.5 117v866h221v-850q0 -190 -81 -282.5t-253 -92.5h-24q-173 0 -256.5 93.5t-83.5 283.5zM686 1055l-137 143q89 0 128.5 32t39.5 101q0 41 -17 107h205q13 -63 13 -107q0 -124 -61.5 -197t-170.5 -79z
" />
    <glyph glyph-name="uni1EE9.smcp" horiz-adv-x="845" 
d="M74 352v848h235v-866q0 -79 29 -115.5t92 -36.5q66 0 93.5 35t27.5 117v866h221v-850q0 -190 -81 -282.5t-253 -92.5h-24q-173 0 -256.5 93.5t-83.5 283.5zM686 1055l-137 143q89 0 128.5 32t39.5 101q0 41 -17 107h205q13 -63 13 -107q0 -124 -61.5 -197t-170.5 -79z
M336 1327l110 283h246l-176 -283h-180z" />
    <glyph glyph-name="uni1EF1.smcp" horiz-adv-x="845" 
d="M74 352v848h235v-866q0 -79 29 -115.5t92 -36.5q66 0 93.5 35t27.5 117v866h221v-850q0 -190 -81 -282.5t-253 -92.5h-24q-173 0 -256.5 93.5t-83.5 283.5zM686 1055l-137 143q89 0 128.5 32t39.5 101q0 41 -17 107h205q13 -63 13 -107q0 -124 -61.5 -197t-170.5 -79z
M311 -381v221h228v-221h-228z" />
    <glyph glyph-name="uni1EEB.smcp" horiz-adv-x="845" 
d="M74 352v848h235v-866q0 -79 29 -115.5t92 -36.5q66 0 93.5 35t27.5 117v866h221v-850q0 -190 -81 -282.5t-253 -92.5h-24q-173 0 -256.5 93.5t-83.5 283.5zM686 1055l-137 143q89 0 128.5 32t39.5 101q0 41 -17 107h205q13 -63 13 -107q0 -124 -61.5 -197t-170.5 -79z
M512 1327h-180l-176 283h245z" />
    <glyph glyph-name="uni1EED.smcp" horiz-adv-x="845" 
d="M74 352v848h235v-866q0 -79 29 -115.5t92 -36.5q66 0 93.5 35t27.5 117v866h221v-850q0 -190 -81 -282.5t-253 -92.5h-24q-173 0 -256.5 93.5t-83.5 283.5zM686 1055l-137 143q89 0 128.5 32t39.5 101q0 41 -17 107h205q13 -63 13 -107q0 -124 -61.5 -197t-170.5 -79z
M438 1466q0 37 -16 53.5t-53 16.5q-52 0 -99 -20l-47 145q101 37 185 37q105 0 153.5 -48t48.5 -147t-53 -176h-172q53 71 53 139z" />
    </font>
</defs>
</svg>
